SplineFontDB: 3.0
FontName: Oswald-DemiBold
FullName: Oswald DemiBold
FamilyName: Oswald
Weight: Demi
Copyright: Copyright (c) 2010-13 by Vernon Adams
Version: 3.0
ItalicAngle: 0
UnderlinePosition: -130
UnderlineWidth: 68
Ascent: 1638
Descent: 410
sfntRevision: 0x00030000
LayerCount: 2
Layer: 0 1 "Back"  1
Layer: 1 1 "Fore"  0
XUID: [1021 653 12281407 16369237]
FSType: 0
OS2Version: 4
OS2_WeightWidthSlopeOnly: 0
OS2_UseTypoMetrics: 1
CreationTime: 1372384857
ModificationTime: 1372783065
PfmFamily: 17
TTFWeight: 600
TTFWidth: 5
LineGap: 0
VLineGap: 0
Panose: 2 0 7 3 0 0 0 0 0 0
OS2TypoAscent: 2233
OS2TypoAOffset: 0
OS2TypoDescent: -548
OS2TypoDOffset: 0
OS2TypoLinegap: 0
OS2WinAscent: 2233
OS2WinAOffset: 0
OS2WinDescent: 548
OS2WinDOffset: 0
HheadAscent: 2233
HheadAOffset: 0
HheadDescent: -548
HheadDOffset: 0
OS2SubXSize: 1331
OS2SubYSize: 1433
OS2SubXOff: 0
OS2SubYOff: 286
OS2SupXSize: 1331
OS2SupYSize: 1433
OS2SupXOff: 0
OS2SupYOff: 983
OS2StrikeYSize: 102
OS2StrikeYPos: 530
OS2Vendor: 'newt'
OS2CodePages: 20000097.00000000
OS2UnicodeRanges: a00002ef.4000204b.00000000.00000000
Lookup: 258 0 0 "'kern' Horizontal Kerning lookup 0"  {"'kern' Horizontal Kerning lookup 0 per glyph data 0"  "'kern' Horizontal Kerning lookup 0 kerning class 1"  } ['kern' ('DFLT' <'dflt' > 'cyrl' <'dflt' > 'latn' <'dflt' > ) ]
Lookup: 260 0 0 "'mark' Mark Positioning lookup 1"  {"'mark' Mark Positioning lookup 1 subtable"  } ['mark' ('DFLT' <'dflt' > 'cyrl' <'dflt' > 'grek' <'dflt' > 'latn' <'dflt' > ) ]
MarkAttachClasses: 1
DEI: 91125
KernClass2: 44 59 "'kern' Horizontal Kerning lookup 0 kerning class 1" 
 89 A Agrave Aacute Acircumflex Atilde Adieresis Aring Abreve Amacron Aogonek uni0200 uni0202
 9 B uni1E02
 16 D Dcaron uni1E0A
 94 E Egrave Eacute Ecircumflex Edieresis Ebreve Ecaron Edotaccent Emacron Eogonek uni0204 uni0206
 9 F uni1E1E
 52 G Gbreve Gcircumflex Gcommaaccent Gdotaccent uni01F4
 14 K Kcommaaccent
 28 L Lacute Lcaron Lcommaaccent
 9 P uni1E56

StartChar: exclam
Encoding: 33 33 1
Width: 500
GlyphClass: 2
Flags: W
LayerCount: 2
UndoRedoHistory
Layer: 1
Undoes
EndUndoes
Redoes
EndRedoes
EndUndoRedoHistory
Fore
SplineSet
189 404 m 1,0,-1
 98 1655 l 1,1,-1
 406 1655 l 1,2,-1
 297 404 l 1,3,-1
 189 404 l 1,0,-1
94 0 m 1,4,-1
 94 293 l 1,5,-1
 389 293 l 1,6,-1
 389 0 l 1,7,-1
 94 0 l 1,4,-1
EndSplineSet
EndChar

StartChar: quotedbl
Encoding: 34 34 2
Width: 745
GlyphClass: 2
Flags: W
LayerCount: 2
UndoRedoHistory
Layer: 1
Undoes
EndUndoes
Redoes
EndRedoes
EndUndoRedoHistory
Fore
SplineSet
451 1069 m 1,0,-1
 451 1658 l 1,1,-1
 717 1658 l 1,2,-1
 598 1069 l 1,3,-1
 451 1069 l 1,0,-1
88 1069 m 1,4,-1
 88 1658 l 1,5,-1
 354 1658 l 1,6,-1
 235 1069 l 1,7,-1
 88 1069 l 1,4,-1
EndSplineSet
EndChar

StartChar: numbersign
Encoding: 35 35 3
Width: 1071
GlyphClass: 2
Flags: W
LayerCount: 2
UndoRedoHistory
Layer: 1
Undoes
EndUndoes
Redoes
EndRedoes
EndUndoRedoHistory
Fore
SplineSet
440 763 m 1,0,-1
 605 763 l 1,1,-1
 632 982 l 1,2,-1
 468 982 l 1,3,-1
 440 763 l 1,0,-1
120 -1 m 1,4,-1
 189 562 l 1,5,-1
 85 562 l 1,6,-1
 89 763 l 1,7,-1
 218 763 l 1,8,-1
 244 982 l 1,9,-1
 91 982 l 1,10,-1
 95 1185 l 1,11,-1
 278 1185 l 1,12,-1
 336 1658 l 1,13,-1
 561 1658 l 1,14,-1
 502 1185 l 1,15,-1
 665 1185 l 1,16,-1
 724 1658 l 1,17,-1
 947 1658 l 1,18,-1
 888 1185 l 1,19,-1
 986 1185 l 1,20,-1
 983 982 l 1,21,-1
 855 982 l 1,22,-1
 828 763 l 1,23,-1
 980 763 l 1,24,-1
 977 562 l 1,25,-1
 799 562 l 1,26,-1
 729 -1 l 1,27,-1
 506 -1 l 1,28,-1
 576 562 l 1,29,-1
 412 562 l 1,30,-1
 342 -1 l 1,31,-1
 120 -1 l 1,4,-1
EndSplineSet
EndChar

StartChar: dollar
Encoding: 36 36 4
Width: 1002
GlyphClass: 2
Flags: W
LayerCount: 2
UndoRedoHistory
Layer: 1
Undoes
EndUndoes
Redoes
EndRedoes
EndUndoRedoHistory
Fore
SplineSet
485 -203 m 1,0,-1
 485 -21 l 1,1,2
 274 -12 274 -12 168 116 c 128,-1,3
 62 244 62 244 53 495 c 1,4,-1
 345 547 l 1,5,6
 350 235 350 235 508 235 c 0,7,8
 567 235 567 235 594 273 c 128,-1,9
 621 311 621 311 621 371 c 0,10,11
 621 439 621 439 596.5 496 c 128,-1,12
 572 553 572 553 538 591 c 128,-1,13
 504 629 504 629 441 684 c 2,14,-1
 263 838 l 2,15,16
 195 897 195 897 153.5 948.5 c 128,-1,17
 112 1000 112 1000 83.5 1079.5 c 128,-1,18
 55 1159 55 1159 55 1256 c 0,19,20
 55 1445 55 1445 163 1554.5 c 128,-1,21
 271 1664 271 1664 459 1677 c 1,22,-1
 459 1851 l 1,23,-1
 556 1851 l 1,24,-1
 556 1678 l 1,25,26
 641 1672 641 1672 705.5 1641.5 c 128,-1,27
 770 1611 770 1611 807.5 1568 c 128,-1,28
 845 1525 845 1525 869.5 1462.5 c 128,-1,29
 894 1400 894 1400 903.5 1344 c 128,-1,30
 913 1288 913 1288 917 1219 c 1,31,-1
 627 1173 l 1,32,33
 625 1224 625 1224 622 1258 c 128,-1,34
 619 1292 619 1292 610.5 1328.5 c 128,-1,35
 602 1365 602 1365 588 1385.5 c 128,-1,36
 574 1406 574 1406 550 1419 c 128,-1,37
 526 1432 526 1432 493 1430 c 0,38,39
 437 1427 437 1427 406.5 1387 c 128,-1,40
 376 1347 376 1347 376 1290 c 0,41,42
 376 1245 376 1245 386.5 1208.5 c 128,-1,43
 397 1172 397 1172 421 1139 c 128,-1,44
 445 1106 445 1106 465 1086 c 128,-1,45
 485 1066 485 1066 522 1032 c 1,46,-1
 697 880 l 1,47,48
 816 774 816 774 882 660 c 128,-1,49
 948 546 948 546 948 391 c 0,50,51
 948 225 948 225 847.5 112 c 128,-1,52
 747 -1 747 -1 580 -19 c 1,53,-1
 580 -203 l 1,54,-1
 485 -203 l 1,0,-1
EndSplineSet
EndChar

StartChar: percent
Encoding: 37 37 5
Width: 2031
GlyphClass: 2
Flags: W
LayerCount: 2
UndoRedoHistory
Layer: 1
Undoes
EndUndoes
Redoes
EndRedoes
EndUndoRedoHistory
Fore
SplineSet
675 0 m 1,0,-1
 1162 1658 l 1,1,-1
 1355 1658 l 1,2,-1
 867 0 l 1,3,-1
 675 0 l 1,0,-1
1566 -5 m 0,4,5
 1366 -5 1366 -5 1277.5 102.5 c 128,-1,6
 1189 210 1189 210 1189 428 c 2,7,-1
 1189 506 l 2,8,9
 1189 728 1189 728 1275 829 c 128,-1,10
 1361 930 1361 930 1566 930 c 0,11,12
 1770 930 1770 930 1857.5 830.5 c 128,-1,13
 1945 731 1945 731 1945 512 c 2,14,-1
 1945 425 l 2,15,16
 1945 206 1945 206 1856 100.5 c 128,-1,17
 1767 -5 1767 -5 1566 -5 c 0,4,5
1566 201 m 128,-1,19
 1597 201 1597 201 1619 212.5 c 128,-1,20
 1641 224 1641 224 1653 242 c 128,-1,21
 1665 260 1665 260 1672 292.5 c 128,-1,22
 1679 325 1679 325 1680.5 355.5 c 128,-1,23
 1682 386 1682 386 1682 435 c 2,24,-1
 1682 503 l 2,25,26
 1682 553 1682 553 1680.5 582 c 128,-1,27
 1679 611 1679 611 1673 641.5 c 128,-1,28
 1667 672 1667 672 1654.5 687 c 128,-1,29
 1642 702 1642 702 1620.5 712 c 128,-1,30
 1599 722 1599 722 1566 722 c 128,-1,31
 1533 722 1533 722 1511.5 712 c 128,-1,32
 1490 702 1490 702 1477.5 687 c 128,-1,33
 1465 672 1465 672 1459 641 c 128,-1,34
 1453 610 1453 610 1451.5 581.5 c 128,-1,35
 1450 553 1450 553 1450 503 c 2,36,-1
 1450 434 l 2,37,38
 1450 386 1450 386 1452 354.5 c 128,-1,39
 1454 323 1454 323 1460.5 291 c 128,-1,40
 1467 259 1467 259 1479.5 241.5 c 128,-1,41
 1492 224 1492 224 1513.5 212.5 c 128,-1,18
 1535 201 1535 201 1566 201 c 128,-1,19
463 728 m 0,42,43
 263 728 263 728 175 835 c 128,-1,44
 87 942 87 942 87 1160 c 2,45,-1
 87 1239 l 2,46,47
 87 1461 87 1461 173 1562 c 128,-1,48
 259 1663 259 1663 463 1663 c 0,49,50
 668 1663 668 1663 755 1563.5 c 128,-1,51
 842 1464 842 1464 842 1245 c 2,52,-1
 842 1157 l 2,53,54
 842 939 842 939 753 833.5 c 128,-1,55
 664 728 664 728 463 728 c 0,42,43
463 934 m 0,56,57
 494 934 494 934 516 945.5 c 128,-1,58
 538 957 538 957 550.5 975 c 128,-1,59
 563 993 563 993 569.5 1025 c 128,-1,60
 576 1057 576 1057 578 1088 c 128,-1,61
 580 1119 580 1119 580 1167 c 2,62,-1
 580 1235 l 2,63,64
 580 1286 580 1286 578.5 1314.5 c 128,-1,65
 577 1343 577 1343 571 1374 c 128,-1,66
 565 1405 565 1405 552.5 1420 c 128,-1,67
 540 1435 540 1435 518 1445 c 128,-1,68
 496 1455 496 1455 463 1455 c 128,-1,69
 430 1455 430 1455 408.5 1445 c 128,-1,70
 387 1435 387 1435 374.5 1420 c 128,-1,71
 362 1405 362 1405 356 1374 c 128,-1,72
 350 1343 350 1343 348.5 1314.5 c 128,-1,73
 347 1286 347 1286 347 1236 c 2,74,-1
 347 1167 l 2,75,76
 347 1127 347 1127 348.5 1100 c 128,-1,77
 350 1073 350 1073 354 1044 c 128,-1,78
 358 1015 358 1015 366 997 c 128,-1,79
 374 979 374 979 386.5 963.5 c 128,-1,80
 399 948 399 948 418 941 c 128,-1,81
 437 934 437 934 463 934 c 0,56,57
EndSplineSet
EndChar

StartChar: ampersand
Encoding: 38 38 6
Width: 1187
GlyphClass: 2
Flags: W
LayerCount: 2
UndoRedoHistory
Layer: 1
Undoes
EndUndoes
Redoes
EndRedoes
EndUndoRedoHistory
Fore
SplineSet
499 993 m 1,0,1
 542 1064 542 1064 581 1168 c 128,-1,2
 620 1272 620 1272 620 1350 c 0,3,4
 620 1398 620 1398 591.5 1426 c 128,-1,5
 563 1454 563 1454 519 1454 c 0,6,7
 474 1454 474 1454 447 1416.5 c 128,-1,8
 420 1379 420 1379 420 1321 c 0,9,10
 420 1284 420 1284 430 1233 c 128,-1,11
 440 1182 440 1182 450.5 1147 c 128,-1,12
 461 1112 461 1112 478.5 1057.5 c 128,-1,13
 496 1003 496 1003 499 993 c 1,0,1
468 195 m 0,14,15
 568 195 568 195 633 280 c 1,16,17
 449 625 449 625 436 657 c 1,18,19
 350 521 350 521 350 379 c 0,20,21
 350 297 350 297 383.5 246 c 128,-1,22
 417 195 417 195 468 195 c 0,14,15
463 -23 m 0,23,24
 296 -23 296 -23 193.5 83.5 c 128,-1,25
 91 190 91 190 91 361 c 0,26,27
 91 505 91 505 157.5 638 c 128,-1,28
 224 771 224 771 325 867 c 1,29,30
 309 900 309 900 270.5 972.5 c 128,-1,31
 232 1045 232 1045 212 1086 c 128,-1,32
 192 1127 192 1127 174 1190 c 128,-1,33
 156 1253 156 1253 156 1310 c 0,34,35
 156 1470 156 1470 252 1575 c 128,-1,36
 348 1680 348 1680 509 1680 c 0,37,38
 668 1680 668 1680 772 1587.5 c 128,-1,39
 876 1495 876 1495 876 1338 c 0,40,41
 876 1296 876 1296 867.5 1254 c 128,-1,42
 859 1212 859 1212 849 1180 c 128,-1,43
 839 1148 839 1148 815.5 1107.5 c 128,-1,44
 792 1067 792 1067 778 1045 c 128,-1,45
 764 1023 764 1023 730.5 983.5 c 128,-1,46
 697 944 697 944 685 930 c 128,-1,47
 673 916 673 916 635.5 876.5 c 128,-1,48
 598 837 598 837 591 830 c 1,49,-1
 793 470 l 1,50,51
 817 515 817 515 833 612 c 128,-1,52
 849 709 849 709 854 804 c 1,53,-1
 1086 804 l 1,54,55
 1086 534 1086 534 954 294 c 1,56,57
 974 268 974 268 1013 247.5 c 128,-1,58
 1052 227 1052 227 1093 224 c 1,59,-1
 1093 -21 l 1,60,61
 1061 -27 1061 -27 1043 -27 c 0,62,63
 1023 -27 1023 -27 1003 -22.5 c 128,-1,64
 983 -18 983 -18 967.5 -13 c 128,-1,65
 952 -8 952 -8 931 4.5 c 128,-1,66
 910 17 910 17 899 24 c 128,-1,67
 888 31 888 31 867 49 c 128,-1,68
 846 67 846 67 839.5 73 c 128,-1,69
 833 79 833 79 810.5 99.5 c 128,-1,70
 788 120 788 120 785 123 c 1,71,72
 730 54 730 54 647 15.5 c 128,-1,73
 564 -23 564 -23 463 -23 c 0,23,24
EndSplineSet
EndChar

StartChar: quotesingle
Encoding: 39 39 7
Width: 558
GlyphClass: 2
Flags: W
LayerCount: 2
UndoRedoHistory
Layer: 1
Undoes
EndUndoes
Redoes
EndRedoes
EndUndoRedoHistory
Fore
SplineSet
111 1069 m 1,0,-1
 111 1658 l 1,1,-1
 369 1658 l 1,2,-1
 265 1069 l 1,3,-1
 111 1069 l 1,0,-1
EndSplineSet
EndChar

StartChar: parenleft
Encoding: 40 40 8
Width: 674
GlyphClass: 2
Flags: W
LayerCount: 2
UndoRedoHistory
Layer: 1
Undoes
EndUndoes
Redoes
EndRedoes
EndUndoRedoHistory
Fore
SplineSet
605 -381 m 1,0,1
 533 -381 533 -381 473 -362.5 c 128,-1,2
 413 -344 413 -344 367.5 -313 c 128,-1,3
 322 -282 322 -282 286.5 -231 c 128,-1,4
 251 -180 251 -180 226.5 -126 c 128,-1,5
 202 -72 202 -72 184 2.5 c 128,-1,6
 166 77 166 77 156.5 145.5 c 128,-1,7
 147 214 147 214 141 304.5 c 128,-1,8
 135 395 135 395 133.5 469 c 128,-1,9
 132 543 132 543 132 641 c 0,10,11
 132 744 132 744 133.5 821 c 128,-1,12
 135 898 135 898 141 991 c 128,-1,13
 147 1084 147 1084 157 1153 c 128,-1,14
 167 1222 167 1222 184.5 1297 c 128,-1,15
 202 1372 202 1372 226.5 1425.5 c 128,-1,16
 251 1479 251 1479 286.5 1529 c 128,-1,17
 322 1579 322 1579 367.5 1609.5 c 128,-1,18
 413 1640 413 1640 473 1658 c 128,-1,19
 533 1676 533 1676 605 1676 c 1,20,-1
 605 1461 l 1,21,22
 565 1461 565 1461 534.5 1435 c 128,-1,23
 504 1409 504 1409 484 1354.5 c 128,-1,24
 464 1300 464 1300 451.5 1233 c 128,-1,25
 439 1166 439 1166 432.5 1066.5 c 128,-1,26
 426 967 426 967 423.5 870.5 c 128,-1,27
 421 774 421 774 421 641 c 0,28,29
 421 509 421 509 423.5 410.5 c 128,-1,30
 426 312 426 312 433.5 215.5 c 128,-1,31
 441 119 441 119 454 53 c 128,-1,32
 467 -13 467 -13 487 -64.5 c 128,-1,33
 507 -116 507 -116 536.5 -141 c 128,-1,34
 566 -166 566 -166 605 -166 c 1,35,-1
 605 -381 l 1,0,1
EndSplineSet
EndChar

StartChar: parenright
Encoding: 41 41 9
Width: 634
GlyphClass: 2
Flags: W
LayerCount: 2
UndoRedoHistory
Layer: 1
Undoes
EndUndoes
Redoes
EndRedoes
EndUndoRedoHistory
Fore
SplineSet
69 -381 m 1,0,-1
 69 -165 l 1,1,2
 102 -165 102 -165 128.5 -145 c 128,-1,3
 155 -125 155 -125 174 -90 c 128,-1,4
 193 -55 193 -55 207 0.5 c 128,-1,5
 221 56 221 56 230 120 c 128,-1,6
 239 184 239 184 244 270.5 c 128,-1,7
 249 357 249 357 251 444.5 c 128,-1,8
 253 532 253 532 253 643 c 0,9,10
 253 777 253 777 250.5 873 c 128,-1,11
 248 969 248 969 241.5 1069 c 128,-1,12
 235 1169 235 1169 222.5 1235.5 c 128,-1,13
 210 1302 210 1302 190 1356 c 128,-1,14
 170 1410 170 1410 139.5 1436 c 128,-1,15
 109 1462 109 1462 69 1462 c 1,16,-1
 69 1676 l 1,17,18
 141 1676 141 1676 201 1658 c 128,-1,19
 261 1640 261 1640 306.5 1609.5 c 128,-1,20
 352 1579 352 1579 387.5 1529 c 128,-1,21
 423 1479 423 1479 447.5 1426 c 128,-1,22
 472 1373 472 1373 489.5 1297.5 c 128,-1,23
 507 1222 507 1222 517 1153.5 c 128,-1,24
 527 1085 527 1085 533 992 c 128,-1,25
 539 899 539 899 540.5 822.5 c 128,-1,26
 542 746 542 746 542 643 c 0,27,28
 542 515 542 515 539 422 c 128,-1,29
 536 329 536 329 525 215 c 128,-1,30
 514 101 514 101 494.5 21 c 128,-1,31
 475 -59 475 -59 440 -140 c 128,-1,32
 405 -221 405 -221 356 -270.5 c 128,-1,33
 307 -320 307 -320 234 -350.5 c 128,-1,34
 161 -381 161 -381 69 -381 c 1,0,-1
EndSplineSet
EndChar

StartChar: asterisk
Encoding: 42 42 10
Width: 857
GlyphClass: 2
Flags: W
LayerCount: 2
UndoRedoHistory
Layer: 1
Undoes
EndUndoes
Redoes
EndRedoes
EndUndoRedoHistory
Fore
SplineSet
343 929 m 1,0,-1
 161 1037 l 1,1,-1
 310 1249 l 1,2,-1
 86 1335 l 1,3,-1
 156 1522 l 1,4,-1
 363 1409 l 1,5,-1
 336 1657 l 1,6,-1
 568 1657 l 1,7,-1
 542 1408 l 1,8,-1
 748 1523 l 1,9,-1
 818 1334 l 1,10,-1
 593 1248 l 1,11,-1
 745 1038 l 1,12,-1
 560 929 l 1,13,-1
 452 1157 l 1,14,-1
 343 929 l 1,0,-1
EndSplineSet
EndChar

StartChar: plus
Encoding: 43 43 11
Width: 907
GlyphClass: 2
Flags: W
LayerCount: 2
UndoRedoHistory
Layer: 1
Undoes
EndUndoes
Redoes
EndRedoes
EndUndoRedoHistory
Fore
SplineSet
345 423 m 1,0,-1
 345 754 l 1,1,-1
 53 754 l 1,2,-1
 53 946 l 1,3,-1
 345 946 l 1,4,-1
 345 1272 l 1,5,-1
 556 1272 l 1,6,-1
 556 946 l 1,7,-1
 854 946 l 1,8,-1
 854 754 l 1,9,-1
 556 754 l 1,10,-1
 556 423 l 1,11,-1
 345 423 l 1,0,-1
EndSplineSet
EndChar

StartChar: comma
Encoding: 44 44 12
Width: 461
GlyphClass: 2
Flags: W
LayerCount: 2
UndoRedoHistory
Layer: 1
Undoes
EndUndoes
Redoes
EndRedoes
EndUndoRedoHistory
Fore
SplineSet
131 -285 m 1,0,-1
 106 -177 l 1,1,2
 168 -162 168 -162 207 -118.5 c 128,-1,3
 246 -75 246 -75 246 0 c 1,4,-1
 85 0 l 1,5,-1
 85 294 l 1,6,-1
 382 294 l 1,7,-1
 382 31 l 2,8,9
 382 -252 382 -252 131 -285 c 1,0,-1
EndSplineSet
EndChar

StartChar: hyphen
Encoding: 45 45 13
Width: 760
GlyphClass: 2
Flags: W
LayerCount: 2
UndoRedoHistory
Layer: 1
Undoes
EndUndoes
Redoes
EndRedoes
EndUndoRedoHistory
Fore
SplineSet
123 583 m 1,0,-1
 123 789 l 1,1,-1
 637 789 l 1,2,-1
 637 583 l 1,3,-1
 123 583 l 1,0,-1
EndSplineSet
EndChar

StartChar: period
Encoding: 46 46 14
Width: 470
GlyphClass: 2
Flags: W
LayerCount: 2
UndoRedoHistory
Layer: 1
Undoes
EndUndoes
Redoes
EndRedoes
EndUndoRedoHistory
Fore
SplineSet
93 0 m 1,0,-1
 93 298 l 1,1,-1
 390 298 l 1,2,-1
 390 0 l 1,3,-1
 93 0 l 1,0,-1
EndSplineSet
EndChar

StartChar: slash
Encoding: 47 47 15
Width: 841
GlyphClass: 2
Flags: W
LayerCount: 2
UndoRedoHistory
Layer: 1
Undoes
EndUndoes
Redoes
EndRedoes
EndUndoRedoHistory
Fore
SplineSet
82 0 m 1,0,-1
 570 1658 l 1,1,-1
 758 1658 l 1,2,-1
 269 0 l 1,3,-1
 82 0 l 1,0,-1
EndSplineSet
EndChar

StartChar: zero
Encoding: 48 48 16
Width: 1071
GlyphClass: 2
Flags: W
LayerCount: 2
UndoRedoHistory
Layer: 1
Undoes
EndUndoes
Redoes
EndRedoes
EndUndoRedoHistory
Fore
SplineSet
536 -27 m 0,0,1
 322 -27 322 -27 208 103.5 c 128,-1,2
 94 234 94 234 94 452 c 2,3,-1
 94 1194 l 2,4,5
 94 1420 94 1420 204.5 1550 c 128,-1,6
 315 1680 315 1680 536 1680 c 0,7,8
 756 1680 756 1680 867 1549.5 c 128,-1,9
 978 1419 978 1419 978 1194 c 2,10,-1
 978 452 l 2,11,12
 978 235 978 235 863.5 104 c 128,-1,13
 749 -27 749 -27 536 -27 c 0,0,1
536 250 m 0,14,15
 657 250 657 250 657 459 c 2,16,-1
 657 1186 l 2,17,18
 657 1229 657 1229 654 1259 c 128,-1,19
 651 1289 651 1289 640 1326 c 128,-1,20
 629 1363 629 1363 603 1383 c 128,-1,21
 577 1403 577 1403 536 1403 c 0,22,23
 508 1403 508 1403 487 1393.5 c 128,-1,24
 466 1384 466 1384 453.5 1366 c 128,-1,25
 441 1348 441 1348 433 1328.5 c 128,-1,26
 425 1309 425 1309 421.5 1281 c 128,-1,27
 418 1253 418 1253 417 1233.5 c 128,-1,28
 416 1214 416 1214 416 1186 c 2,29,-1
 416 459 l 2,30,31
 416 250 416 250 536 250 c 0,14,15
EndSplineSet
EndChar

StartChar: one
Encoding: 49 49 17
Width: 1059
GlyphClass: 2
Flags: W
LayerCount: 2
UndoRedoHistory
Layer: 1
Undoes
EndUndoes
Redoes
EndRedoes
EndUndoRedoHistory
Fore
SplineSet
434 0 m 1,0,-1
 434 1326 l 1,1,-1
 187 1241 l 1,2,-1
 187 1477 l 1,3,4
 271 1511 271 1511 367.5 1561 c 128,-1,5
 464 1611 464 1611 506 1658 c 1,6,-1
 751 1658 l 1,7,-1
 751 0 l 1,8,-1
 434 0 l 1,0,-1
EndSplineSet
EndChar

StartChar: two
Encoding: 50 50 18
Width: 1058
GlyphClass: 2
Flags: W
LayerCount: 2
UndoRedoHistory
Layer: 1
Undoes
EndUndoes
Redoes
EndRedoes
EndUndoRedoHistory
Fore
SplineSet
103 0 m 1,0,-1
 103 223 l 1,1,-1
 502 844 l 2,2,3
 509 855 509 855 549 915.5 c 128,-1,4
 589 976 589 976 601.5 998.5 c 128,-1,5
 614 1021 614 1021 638.5 1070 c 128,-1,6
 663 1119 663 1119 672 1160.5 c 128,-1,7
 681 1202 681 1202 681 1247 c 0,8,9
 681 1333 681 1333 646 1377 c 0,10,11
 616 1415 616 1415 564 1415 c 0,12,13
 556 1415 556 1415 547 1414 c 1,14,15
 416 1402 416 1402 416 1168 c 2,16,-1
 416 1093 l 1,17,-1
 108 1093 l 1,18,-1
 108 1173 l 2,19,20
 108 1287 108 1287 133 1377.5 c 128,-1,21
 158 1468 158 1468 210 1537.5 c 128,-1,22
 262 1607 262 1607 350 1644.5 c 128,-1,23
 438 1682 438 1682 556 1682 c 0,24,25
 772 1682 772 1682 883 1567 c 128,-1,26
 994 1452 994 1452 994 1244 c 0,27,28
 994 1173 994 1173 979.5 1108.5 c 128,-1,29
 965 1044 965 1044 934 982 c 128,-1,30
 903 920 903 920 876.5 876.5 c 128,-1,31
 850 833 850 833 804 766 c 0,32,33
 789 745 789 745 782 734 c 2,34,-1
 462 251 l 1,35,-1
 950 251 l 1,36,-1
 950 0 l 1,37,-1
 103 0 l 1,0,-1
EndSplineSet
EndChar

StartChar: three
Encoding: 51 51 19
Width: 1046
GlyphClass: 2
Flags: W
LayerCount: 2
UndoRedoHistory
Layer: 1
Undoes
EndUndoes
Redoes
EndRedoes
EndUndoRedoHistory
Fore
SplineSet
538 -27 m 0,0,1
 90 -27 90 -27 90 470 c 2,2,-1
 90 529 l 1,3,-1
 407 529 l 1,4,-1
 407 477 l 1,5,6
 408 350 408 350 436 294 c 128,-1,7
 464 238 464 238 541 238 c 0,8,9
 582 238 582 238 607.5 253.5 c 128,-1,10
 633 269 633 269 646 302.5 c 128,-1,11
 659 336 659 336 663.5 375.5 c 128,-1,12
 668 415 668 415 668 477 c 0,13,14
 668 609 668 609 629 673 c 128,-1,15
 590 737 590 737 486 741 c 1,16,-1
 433 741 l 1,17,-1
 433 981 l 1,18,-1
 480 981 l 1,19,20
 587 983 587 983 627.5 1038 c 128,-1,21
 668 1093 668 1093 668 1220 c 0,22,23
 668 1325 668 1325 638.5 1376 c 128,-1,24
 609 1427 609 1427 535 1427 c 128,-1,25
 461 1427 461 1427 434.5 1371 c 128,-1,26
 408 1315 408 1315 407 1208 c 1,27,-1
 407 1136 l 1,28,-1
 90 1136 l 1,29,-1
 90 1226 l 2,30,31
 90 1443 90 1443 207 1562.5 c 128,-1,32
 324 1682 324 1682 534 1682 c 0,33,34
 748 1682 748 1682 864.5 1567 c 128,-1,35
 981 1452 981 1452 981 1236 c 0,36,37
 981 1095 981 1095 922 998.5 c 128,-1,38
 863 902 863 902 769 876 c 1,39,40
 981 799 981 799 981 484 c 0,41,42
 981 367 981 367 956.5 276 c 128,-1,43
 932 185 932 185 880.5 116 c 128,-1,44
 829 47 829 47 742.5 10 c 128,-1,45
 656 -27 656 -27 538 -27 c 0,0,1
EndSplineSet
EndChar

StartChar: four
Encoding: 52 52 20
Width: 1071
GlyphClass: 2
Flags: W
LayerCount: 2
UndoRedoHistory
Layer: 1
Undoes
EndUndoes
Redoes
EndRedoes
EndUndoRedoHistory
Fore
SplineSet
323 635 m 1,0,-1
 567 635 l 1,1,-1
 567 1332 l 1,2,-1
 323 635 l 1,0,-1
567 0 m 1,3,-1
 567 392 l 1,4,-1
 70 392 l 1,5,-1
 70 651 l 1,6,-1
 496 1658 l 1,7,-1
 856 1658 l 1,8,-1
 856 635 l 1,9,-1
 1021 635 l 1,10,-1
 1021 392 l 1,11,-1
 856 392 l 1,12,-1
 856 0 l 1,13,-1
 567 0 l 1,3,-1
EndSplineSet
EndChar

StartChar: five
Encoding: 53 53 21
Width: 1056
GlyphClass: 2
Flags: W
LayerCount: 2
UndoRedoHistory
Layer: 1
Undoes
EndUndoes
Redoes
EndRedoes
EndUndoRedoHistory
Fore
SplineSet
537 -27 m 0,0,1
 434 -27 434 -27 358 -3 c 128,-1,2
 282 21 282 21 234.5 63.5 c 128,-1,3
 187 106 187 106 158.5 172 c 128,-1,4
 130 238 130 238 119 312 c 128,-1,5
 108 386 108 386 108 484 c 1,6,-1
 416 484 l 1,7,8
 416 412 416 412 421 366 c 128,-1,9
 426 320 426 320 440 282 c 128,-1,10
 454 244 454 244 482 227 c 0,11,12
 508 211 508 211 549 211 c 0,13,14
 551 211 551 211 554 211 c 0,15,16
 577 212 577 212 595.5 218 c 128,-1,17
 614 224 614 224 627 239 c 128,-1,18
 640 254 640 254 649.5 269 c 128,-1,19
 659 284 659 284 664.5 312 c 128,-1,20
 670 340 670 340 673.5 361.5 c 128,-1,21
 677 383 677 383 678.5 423 c 128,-1,22
 680 463 680 463 680.5 490.5 c 128,-1,23
 681 518 681 518 681 567 c 0,24,25
 681 614 681 614 679 649 c 128,-1,26
 677 684 677 684 672.5 720.5 c 128,-1,27
 668 757 668 757 658 781.5 c 128,-1,28
 648 806 648 806 633 826 c 128,-1,29
 618 846 618 846 595 856 c 128,-1,30
 572 866 572 866 541 866 c 0,31,32
 429 866 429 866 399 719 c 1,33,-1
 126 719 l 1,34,-1
 147 1658 l 1,35,-1
 914 1658 l 1,36,-1
 914 1383 l 1,37,-1
 409 1383 l 1,38,-1
 391 1021 l 1,39,40
 418 1052 418 1052 475 1074 c 128,-1,41
 532 1096 532 1096 601 1101 c 0,42,43
 619 1102 619 1102 635 1102 c 0,44,45
 798 1102 798 1102 886 978 c 0,46,47
 982 841 982 841 982 584 c 0,48,49
 982 490 982 490 975 416.5 c 128,-1,50
 968 343 968 343 950.5 271 c 128,-1,51
 933 199 933 199 900.5 147 c 128,-1,52
 868 95 868 95 820 54.5 c 128,-1,53
 772 14 772 14 700.5 -6.5 c 128,-1,54
 629 -27 629 -27 537 -27 c 0,0,1
EndSplineSet
EndChar

StartChar: six
Encoding: 54 54 22
Width: 1070
GlyphClass: 2
Flags: W
LayerCount: 2
UndoRedoHistory
Layer: 1
Undoes
EndUndoes
Redoes
EndRedoes
EndUndoRedoHistory
Fore
SplineSet
554 216 m 0,0,1
 592 216 592 216 617 235 c 128,-1,2
 642 254 642 254 654.5 294 c 128,-1,3
 667 334 667 334 672 381.5 c 128,-1,4
 677 429 677 429 677 499 c 0,5,6
 677 544 677 544 676.5 567 c 128,-1,7
 676 590 676 590 673.5 626.5 c 128,-1,8
 671 663 671 663 666.5 682.5 c 128,-1,9
 662 702 662 702 653 726 c 128,-1,10
 644 750 644 750 630.5 761.5 c 128,-1,11
 617 773 617 773 597 781.5 c 128,-1,12
 577 790 577 790 551 790 c 0,13,14
 508 790 508 790 474 765.5 c 128,-1,15
 440 741 440 741 423 708 c 1,16,-1
 423 449 l 2,17,18
 423 216 423 216 554 216 c 0,0,1
550 -22 m 0,19,20
 434 -22 434 -22 347 19 c 128,-1,21
 260 60 260 60 207.5 135 c 128,-1,22
 155 210 155 210 129 307.5 c 128,-1,23
 103 405 103 405 103 525 c 2,24,-1
 103 1102 l 2,25,26
 103 1205 103 1205 115 1287.5 c 128,-1,27
 127 1370 127 1370 157.5 1445 c 128,-1,28
 188 1520 188 1520 237.5 1570 c 128,-1,29
 287 1620 287 1620 366 1649.5 c 128,-1,30
 445 1679 445 1679 549 1679 c 0,31,32
 769 1679 769 1679 869 1573 c 128,-1,33
 969 1467 969 1467 972 1257 c 1,34,-1
 972 1231 l 1,35,-1
 671 1231 l 1,36,37
 671 1342 671 1342 648 1389.5 c 128,-1,38
 625 1437 625 1437 551 1437 c 128,-1,39
 477 1437 477 1437 450 1364 c 128,-1,40
 423 1291 423 1291 423 1100 c 2,41,-1
 423 930 l 1,42,43
 450 976 450 976 506 1002.5 c 128,-1,44
 562 1029 562 1029 635 1030 c 0,45,46
 638 1030 638 1030 641 1030 c 0,47,48
 714 1030 714 1030 774 1008 c 0,49,50
 836 984 836 984 877 942 c 128,-1,51
 918 900 918 900 944 839 c 128,-1,52
 970 778 970 778 981.5 708 c 128,-1,53
 993 638 993 638 993 555 c 0,54,55
 993 451 993 451 979.5 366 c 128,-1,56
 966 281 966 281 934 207.5 c 128,-1,57
 902 134 902 134 852 84 c 128,-1,58
 802 34 802 34 725.5 6 c 128,-1,59
 649 -22 649 -22 550 -22 c 0,19,20
EndSplineSet
EndChar

StartChar: seven
Encoding: 55 55 23
Width: 960
GlyphClass: 2
Flags: W
LayerCount: 2
UndoRedoHistory
Layer: 1
Undoes
EndUndoes
Redoes
EndRedoes
EndUndoRedoHistory
Fore
SplineSet
211 0 m 1,0,-1
 553 1417 l 1,1,-1
 109 1417 l 1,2,-1
 109 1658 l 1,3,-1
 862 1658 l 1,4,-1
 862 1455 l 1,5,-1
 518 0 l 1,6,-1
 211 0 l 1,0,-1
EndSplineSet
EndChar

StartChar: eight
Encoding: 56 56 24
Width: 1058
GlyphClass: 2
Flags: W
LayerCount: 2
UndoRedoHistory
Layer: 1
Undoes
EndUndoes
Redoes
EndRedoes
EndUndoRedoHistory
Fore
SplineSet
529 993 m 0,0,1
 644 993 644 993 644 1247 c 0,2,3
 644 1336 644 1336 615.5 1388.5 c 128,-1,4
 587 1441 587 1441 529 1441 c 0,5,6
 469 1441 469 1441 440 1389 c 128,-1,7
 411 1337 411 1337 411 1248 c 0,8,9
 411 993 411 993 529 993 c 0,0,1
529 212 m 0,10,11
 565 212 565 212 590.5 229 c 128,-1,12
 616 246 616 246 630 270.5 c 128,-1,13
 644 295 644 295 651.5 332.5 c 128,-1,14
 659 370 659 370 661 400 c 128,-1,15
 663 430 663 430 663 469 c 0,16,17
 663 524 663 524 658.5 565.5 c 128,-1,18
 654 607 654 607 641 647.5 c 128,-1,19
 628 688 628 688 599.5 710 c 128,-1,20
 571 732 571 732 529 732 c 128,-1,21
 487 732 487 732 458.5 710 c 128,-1,22
 430 688 430 688 416.5 647.5 c 128,-1,23
 403 607 403 607 398 565.5 c 128,-1,24
 393 524 393 524 393 469 c 0,25,26
 393 430 393 430 395 399 c 128,-1,27
 397 368 397 368 405.5 331 c 128,-1,28
 414 294 414 294 428 269.5 c 128,-1,29
 442 245 442 245 468 228.5 c 128,-1,30
 494 212 494 212 529 212 c 0,10,11
529 -24 m 128,-1,32
 85 -24 85 -24 85 478 c 0,33,34
 85 484 85 484 85 489 c 0,35,36
 86 623 86 623 134 723 c 128,-1,37
 182 823 182 823 276 874 c 1,38,39
 114 996 114 996 111 1235 c 1,40,41
 111 1243 111 1243 111 1250 c 0,42,43
 110 1450 110 1450 214 1562 c 0,44,45
 322 1678 322 1678 529 1678.5 c 0,46,47
 736 1678 736 1678 842 1562 c 0,48,49
 945 1449 945 1449 944 1247 c 0,50,51
 944 1241 944 1241 944 1235 c 0,52,53
 940 990 940 990 780 874 c 1,54,55
 874 822 874 822 922.5 722 c 128,-1,56
 971 622 971 622 973 489 c 0,57,58
 973 480 973 480 973 471 c 0,59,31
 973 -24 973 -24 529 -24 c 128,-1,32
EndSplineSet
EndChar

StartChar: nine
Encoding: 57 57 25
Width: 1070
GlyphClass: 2
Flags: W
LayerCount: 2
UndoRedoHistory
Layer: 1
Undoes
EndUndoes
Redoes
EndRedoes
EndUndoRedoHistory
Fore
SplineSet
533 867 m 0,0,1
 612 867 612 867 655 949 c 1,2,-1
 655 1208 l 2,3,4
 655 1257 655 1257 650 1295 c 128,-1,5
 645 1333 645 1333 632.5 1368 c 128,-1,6
 620 1403 620 1403 594 1422 c 128,-1,7
 568 1441 568 1441 530 1441 c 0,8,9
 499 1441 499 1441 477 1427.5 c 128,-1,10
 455 1414 455 1414 442 1391 c 128,-1,11
 429 1368 429 1368 421 1331 c 128,-1,12
 413 1294 413 1294 410.5 1253.5 c 128,-1,13
 408 1213 408 1213 408 1158 c 0,14,15
 408 1112 408 1112 408.5 1090 c 128,-1,16
 409 1068 409 1068 411 1030.5 c 128,-1,17
 413 993 413 993 417.5 974.5 c 128,-1,18
 422 956 422 956 431 931.5 c 128,-1,19
 440 907 440 907 453.5 895.5 c 128,-1,20
 467 884 467 884 487 875.5 c 128,-1,21
 507 867 507 867 533 867 c 0,0,1
529 -22 m 0,22,23
 308 -22 308 -22 209 84.5 c 128,-1,24
 110 191 110 191 108 403 c 1,25,-1
 108 426 l 1,26,-1
 409 426 l 1,27,28
 409 316 409 316 433 268.5 c 128,-1,29
 457 221 457 221 531 221 c 128,-1,30
 605 221 605 221 630 293 c 128,-1,31
 655 365 655 365 655 558 c 2,32,-1
 655 727 l 1,33,34
 628 681 628 681 573 655 c 128,-1,35
 518 629 518 629 445 627 c 1,36,37
 442 627 442 627 439 627 c 0,38,39
 365 626 365 626 305 650 c 0,40,41
 243 674 243 674 203 719 c 128,-1,42
 163 764 163 764 136.5 827 c 128,-1,43
 110 890 110 890 98.5 961.5 c 128,-1,44
 87 1033 87 1033 87 1116 c 0,45,46
 87 1679 87 1679 530 1679 c 0,47,48
 646 1679 646 1679 733 1640 c 128,-1,49
 820 1601 820 1601 873 1528.5 c 128,-1,50
 926 1456 926 1456 951.5 1360.5 c 128,-1,51
 977 1265 977 1265 977 1146 c 2,52,-1
 977 555 l 2,53,54
 977 452 977 452 965 369.5 c 128,-1,55
 953 287 953 287 922 212 c 128,-1,56
 891 137 891 137 841 87 c 128,-1,57
 791 37 791 37 712 7.5 c 128,-1,58
 633 -22 633 -22 529 -22 c 0,22,23
EndSplineSet
EndChar

StartChar: colon
Encoding: 58 58 26
Width: 524
GlyphClass: 2
Flags: W
LayerCount: 2
UndoRedoHistory
Layer: 1
Undoes
EndUndoes
Redoes
EndRedoes
EndUndoRedoHistory
Fore
SplineSet
131 842 m 1,0,-1
 131 1134 l 1,1,-1
 425 1134 l 1,2,-1
 425 842 l 1,3,-1
 131 842 l 1,0,-1
131 140 m 1,4,-1
 131 431 l 1,5,-1
 425 431 l 1,6,-1
 425 140 l 1,7,-1
 131 140 l 1,4,-1
EndSplineSet
EndChar

StartChar: semicolon
Encoding: 59 59 27
Width: 545
GlyphClass: 2
Flags: W
LayerCount: 2
UndoRedoHistory
Layer: 1
Undoes
EndUndoes
Redoes
EndRedoes
EndUndoRedoHistory
Fore
SplineSet
130 878 m 1,0,-1
 130 1175 l 1,1,-1
 424 1175 l 1,2,-1
 424 878 l 1,3,-1
 130 878 l 1,0,-1
177 -205 m 1,4,-1
 152 -97 l 1,5,6
 293 -83 293 -83 293 62 c 1,7,-1
 131 62 l 1,8,-1
 131 355 l 1,9,-1
 429 355 l 1,10,-1
 429 92 l 1,11,12
 427 -204 427 -204 177 -205 c 1,4,-1
EndSplineSet
EndChar

StartChar: less
Encoding: 60 60 28
Width: 804
GlyphClass: 2
Flags: W
LayerCount: 2
UndoRedoHistory
Layer: 1
Undoes
EndUndoes
Redoes
EndRedoes
EndUndoRedoHistory
Fore
SplineSet
686 164 m 1,0,-1
 63 598 l 1,1,-1
 63 854 l 1,2,-1
 686 1290 l 1,3,-1
 686 1011 l 1,4,-1
 287 727 l 1,5,-1
 686 441 l 1,6,-1
 686 164 l 1,0,-1
EndSplineSet
EndChar

StartChar: equal
Encoding: 61 61 29
Width: 895
GlyphClass: 2
Flags: W
LayerCount: 2
UndoRedoHistory
Layer: 1
Undoes
EndUndoes
Redoes
EndRedoes
EndUndoRedoHistory
Fore
SplineSet
124 906 m 1,0,-1
 124 1104 l 1,1,-1
 771 1104 l 1,2,-1
 771 906 l 1,3,-1
 124 906 l 1,0,-1
124 523 m 1,4,-1
 124 721 l 1,5,-1
 771 721 l 1,6,-1
 771 523 l 1,7,-1
 124 523 l 1,4,-1
EndSplineSet
EndChar

StartChar: greater
Encoding: 62 62 30
Width: 804
GlyphClass: 2
Flags: W
LayerCount: 2
UndoRedoHistory
Layer: 1
Undoes
EndUndoes
Redoes
EndRedoes
EndUndoRedoHistory
Fore
SplineSet
113 164 m 1,0,-1
 113 441 l 1,1,-1
 512 727 l 1,2,-1
 113 1011 l 1,3,-1
 113 1290 l 1,4,-1
 737 854 l 1,5,-1
 737 598 l 1,6,-1
 113 164 l 1,0,-1
EndSplineSet
EndChar

StartChar: question
Encoding: 63 63 31
Width: 995
GlyphClass: 2
Flags: W
LayerCount: 2
UndoRedoHistory
Layer: 1
Undoes
EndUndoes
Redoes
EndRedoes
EndUndoRedoHistory
Fore
SplineSet
271 0 m 1,0,-1
 271 297 l 1,1,-1
 574 297 l 1,2,-1
 574 0 l 1,3,-1
 271 0 l 1,0,-1
280 431 m 1,4,-1
 280 693 l 1,5,6
 617 981 617 981 617 1252 c 0,7,8
 617 1263 617 1263 616 1274 c 0,9,10
 613 1344 613 1344 576 1380 c 128,-1,11
 539 1416 539 1416 482 1416 c 0,12,13
 426 1416 426 1416 396 1379 c 0,14,15
 370 1347 370 1347 370 1298 c 0,16,17
 370 1290 370 1290 371 1282 c 1,18,19
 371 1240 371 1240 389 1184 c 1,20,-1
 108 1123 l 1,21,22
 82 1223 82 1223 82 1271 c 1,23,24
 79 1300 79 1300 79 1328 c 0,25,26
 80 1474 80 1474 164 1570 c 0,27,28
 264 1684 264 1684 477 1684 c 0,29,30
 692 1684 692 1684 807.5 1573 c 128,-1,31
 923 1462 923 1462 923 1262 c 0,32,33
 923 1083 923 1083 821 918.5 c 128,-1,34
 719 754 719 754 561 629 c 1,35,-1
 561 431 l 1,36,-1
 280 431 l 1,4,-1
EndSplineSet
EndChar

StartChar: at
Encoding: 64 64 32
Width: 1934
GlyphClass: 2
Flags: W
LayerCount: 2
UndoRedoHistory
Layer: 1
Undoes
EndUndoes
Redoes
EndRedoes
EndUndoRedoHistory
Fore
SplineSet
965 426 m 0,0,1
 978 428 978 428 992 433.5 c 128,-1,2
 1006 439 1006 439 1024.5 450 c 128,-1,3
 1043 461 1043 461 1058.5 480.5 c 128,-1,4
 1074 500 1074 500 1081 525 c 1,5,-1
 1145 1001 l 1,6,7
 1142 1012 1142 1012 1124.5 1018 c 128,-1,8
 1107 1024 1107 1024 1091 1024 c 0,9,10
 1013 1024 1013 1024 951.5 963 c 128,-1,11
 890 902 890 902 859 810.5 c 128,-1,12
 828 719 828 719 827 619 c 0,13,14
 826 531 826 531 860 475 c 0,15,16
 890 425 890 425 950 425 c 0,17,18
 957 425 957 425 965 426 c 0,0,1
969 -268 m 0,19,20
 532 -268 532 -268 306 -20 c 0,21,22
 112 193 112 193 113 551 c 0,23,24
 113 610 113 610 118 672 c 1,25,26
 148 1134 148 1134 410.5 1396.5 c 128,-1,27
 673 1659 673 1659 1104 1659 c 0,28,29
 1267 1659 1267 1659 1399 1615 c 128,-1,30
 1531 1571 1531 1571 1621 1493.5 c 128,-1,31
 1711 1416 1711 1416 1769.5 1309 c 128,-1,32
 1828 1202 1828 1202 1850 1076 c 0,33,34
 1865 992 1865 992 1865 901 c 0,35,36
 1865 856 1865 856 1861 809 c 1,37,38
 1856 723 1856 723 1834.5 638.5 c 128,-1,39
 1813 554 1813 554 1770.5 474 c 128,-1,40
 1728 394 1728 394 1669.5 333.5 c 128,-1,41
 1611 273 1611 273 1526 236 c 128,-1,42
 1441 199 1441 199 1342 199 c 0,43,44
 1251 199 1251 199 1180.5 241 c 128,-1,45
 1110 283 1110 283 1091 361 c 1,46,47
 1069 301 1069 301 1019 260 c 128,-1,48
 969 219 969 219 899 213 c 0,49,50
 883 212 883 212 868 212 c 0,51,52
 804 212 804 212 750 236 c 0,53,54
 682 266 682 266 639.5 323 c 128,-1,55
 597 380 597 380 575 456 c 0,56,57
 556 523 556 523 556 600 c 0,58,59
 556 610 556 610 556 621 c 0,60,61
 558 700 558 700 576.5 783.5 c 128,-1,62
 595 867 595 867 634 951 c 128,-1,63
 673 1035 673 1035 726 1101 c 128,-1,64
 779 1167 779 1167 858 1208.5 c 128,-1,65
 937 1250 937 1250 1028 1250 c 0,66,67
 1056 1250 1056 1250 1080 1239.5 c 128,-1,68
 1104 1229 1104 1229 1122 1208 c 128,-1,69
 1140 1187 1140 1187 1149 1174.5 c 128,-1,70
 1158 1162 1158 1162 1170 1140 c 0,71,72
 1171 1138 1171 1138 1172 1136.5 c 128,-1,73
 1173 1135 1173 1135 1174 1133 c 1,74,-1
 1194 1236 l 1,75,-1
 1436 1236 l 1,76,-1
 1339 540 l 1,77,78
 1331 482 1331 482 1331 445 c 0,79,80
 1331 414 1331 414 1337 398 c 0,81,82
 1346 375 1346 375 1365 372 c 0,83,84
 1376 370 1376 370 1387 370 c 0,85,86
 1474 370 1474 370 1550 486 c 0,87,88
 1636 616 1636 616 1647 801 c 1,89,90
 1650 845 1650 845 1650 886 c 0,91,92
 1650 953 1650 953 1642 1013 c 0,93,94
 1628 1111 1628 1111 1586.5 1194.5 c 128,-1,95
 1545 1278 1545 1278 1478.5 1337 c 128,-1,96
 1412 1396 1412 1396 1311.5 1429 c 128,-1,97
 1211 1462 1211 1462 1082 1462 c 0,98,99
 913 1462 913 1462 778.5 1402 c 128,-1,100
 644 1342 644 1342 555.5 1235 c 128,-1,101
 467 1128 467 1128 416.5 987.5 c 128,-1,102
 366 847 366 847 354 678 c 1,103,104
 349 618 349 618 349 563 c 0,105,106
 349 288 349 288 481 126 c 0,107,108
 640 -68 640 -68 998 -68 c 0,109,110
 1081 -68 1081 -68 1192.5 -50.5 c 128,-1,111
 1304 -33 1304 -33 1394 -4 c 1,112,-1
 1433 -201 l 1,113,114
 1172 -268 1172 -268 969 -268 c 0,19,20
EndSplineSet
EndChar

StartChar: A
Encoding: 65 65 33
Width: 1099
GlyphClass: 2
Flags: W
AnchorPoint: "Anchor-0" 918 0 basechar 0
LayerCount: 2
UndoRedoHistory
Layer: 1
Undoes
EndUndoes
Redoes
EndRedoes
EndUndoRedoHistory
Fore
SplineSet
453 576 m 1,0,-1
 650 576 l 1,1,-1
 551 1236 l 1,2,-1
 453 576 l 1,0,-1
41 0 m 1,3,-1
 365 1658 l 1,4,-1
 735 1658 l 1,5,-1
 1058 0 l 1,6,-1
 745 0 l 1,7,-1
 684 367 l 1,8,-1
 421 367 l 1,9,-1
 360 0 l 1,10,-1
 41 0 l 1,3,-1
EndSplineSet
EndChar

StartChar: B
Encoding: 66 66 34
Width: 1174
GlyphClass: 2
Flags: W
LayerCount: 2
UndoRedoHistory
Layer: 1
Undoes
EndUndoes
Redoes
EndRedoes
EndUndoRedoHistory
Fore
SplineSet
460 989 m 1,0,-1
 541 989 l 2,1,2
 666 989 666 989 712 1044 c 128,-1,3
 758 1099 758 1099 758 1223 c 0,4,5
 758 1338 758 1338 698.5 1383 c 128,-1,6
 639 1428 639 1428 511 1428 c 2,7,-1
 460 1428 l 1,8,-1
 460 989 l 1,0,-1
460 237 m 1,9,-1
 552 237 l 2,10,11
 679 237 679 237 728.5 297 c 128,-1,12
 778 357 778 357 778 491 c 0,13,14
 778 636 778 636 724.5 698 c 128,-1,15
 671 760 671 760 542 760 c 2,16,-1
 460 760 l 1,17,-1
 460 237 l 1,9,-1
123 0 m 1,18,-1
 123 1658 l 1,19,-1
 543 1658 l 2,20,21
 635 1658 635 1658 707.5 1647 c 128,-1,22
 780 1636 780 1636 847.5 1607.5 c 128,-1,23
 915 1579 915 1579 959 1531.5 c 128,-1,24
 1003 1484 1003 1484 1028 1408 c 0,25,26
 1052 1334 1052 1334 1052 1237 c 0,27,28
 1052 1233 1052 1233 1052 1229 c 0,29,30
 1048 930 1048 930 809 891 c 1,31,32
 1099 846 1099 846 1102 487 c 0,33,34
 1102 481 1102 481 1102 476 c 0,35,36
 1102 242 1102 242 980 122 c 0,37,38
 855 0 855 0 618 0 c 2,39,-1
 123 0 l 1,18,-1
EndSplineSet
EndChar

StartChar: C
Encoding: 67 67 35
Width: 1129
GlyphClass: 2
Flags: W
AnchorPoint: "Anchor-1" 580 0 basechar 0
LayerCount: 2
UndoRedoHistory
Layer: 1
Undoes
EndUndoes
Redoes
EndRedoes
EndUndoRedoHistory
Fore
SplineSet
584 -22 m 0,0,1
 448 -22 448 -22 352 17.5 c 128,-1,2
 256 57 256 57 201 133 c 128,-1,3
 146 209 146 209 122 307 c 128,-1,4
 98 405 98 405 98 535 c 2,5,-1
 98 1120 l 2,6,7
 98 1255 98 1255 122 1354 c 128,-1,8
 146 1453 146 1453 201 1528 c 128,-1,9
 256 1603 256 1603 351.5 1641 c 128,-1,10
 447 1679 447 1679 584 1679 c 0,11,12
 714 1679 714 1679 805.5 1645.5 c 128,-1,13
 897 1612 897 1612 949.5 1547 c 128,-1,14
 1002 1482 1002 1482 1025.5 1397.5 c 128,-1,15
 1049 1313 1049 1313 1049 1200 c 2,16,-1
 1049 1056 l 1,17,-1
 720 1056 l 1,18,-1
 720 1212 l 2,19,20
 720 1240 720 1240 720 1251 c 128,-1,21
 720 1262 720 1262 719 1287 c 128,-1,22
 718 1312 718 1312 715.5 1322.5 c 128,-1,23
 713 1333 713 1333 708.5 1353 c 128,-1,24
 704 1373 704 1373 697.5 1382 c 128,-1,25
 691 1391 691 1391 681 1404 c 128,-1,26
 671 1417 671 1417 657.5 1422.5 c 128,-1,27
 644 1428 644 1428 625.5 1432.5 c 128,-1,28
 607 1437 607 1437 585 1437 c 0,29,30
 546 1437 546 1437 518.5 1423.5 c 128,-1,31
 491 1410 491 1410 476 1390 c 128,-1,32
 461 1370 461 1370 453 1335.5 c 128,-1,33
 445 1301 445 1301 443 1271.5 c 128,-1,34
 441 1242 441 1242 441 1197 c 2,35,-1
 441 456 l 2,36,37
 441 335 441 335 471.5 278 c 128,-1,38
 502 221 502 221 585 221 c 0,39,40
 617 221 617 221 641 229 c 128,-1,41
 665 237 665 237 679.5 255.5 c 128,-1,42
 694 274 694 274 702.5 291.5 c 128,-1,43
 711 309 711 309 714.5 341 c 128,-1,44
 718 373 718 373 719 395 c 128,-1,45
 720 417 720 417 720 456 c 2,46,-1
 720 618 l 1,47,-1
 1049 618 l 1,48,-1
 1049 478 l 2,49,50
 1049 363 1049 363 1026.5 276.5 c 128,-1,51
 1004 190 1004 190 953 120.5 c 128,-1,52
 902 51 902 51 809 14.5 c 128,-1,53
 716 -22 716 -22 584 -22 c 0,0,1
EndSplineSet
EndChar

StartChar: D
Encoding: 68 68 36
Width: 1167
GlyphClass: 2
Flags: W
LayerCount: 2
UndoRedoHistory
Layer: 1
Undoes
EndUndoes
Redoes
EndRedoes
EndUndoRedoHistory
Fore
SplineSet
123 0 m 1,0,-1
 123 1658 l 1,1,-1
 526 1658 l 2,2,3
 683 1658 683 1658 787.5 1629 c 128,-1,4
 892 1600 892 1600 954.5 1534 c 128,-1,5
 1017 1468 1017 1468 1043 1373.5 c 128,-1,6
 1069 1279 1069 1279 1069 1137 c 2,7,-1
 1069 539 l 2,8,9
 1069 395 1069 395 1043 297 c 128,-1,10
 1017 199 1017 199 955 130.5 c 128,-1,11
 893 62 893 62 790 31 c 128,-1,12
 687 0 687 0 534 0 c 2,13,-1
 123 0 l 1,0,-1
460 235 m 1,14,-1
 530 235 l 2,15,16
 565 235 565 235 592.5 239 c 128,-1,17
 620 243 620 243 640 253 c 128,-1,18
 660 263 660 263 674 273.5 c 128,-1,19
 688 284 688 284 697.5 304 c 128,-1,20
 707 324 707 324 712.5 341.5 c 128,-1,21
 718 359 718 359 720.5 390 c 128,-1,22
 723 421 723 421 723.5 445 c 128,-1,23
 724 469 724 469 724 510 c 2,24,-1
 724 1175 l 2,25,26
 724 1234 724 1234 721 1269 c 128,-1,27
 718 1304 718 1304 707 1336.5 c 128,-1,28
 696 1369 696 1369 674.5 1385 c 128,-1,29
 653 1401 653 1401 617 1410.5 c 128,-1,30
 581 1420 581 1420 527 1420 c 2,31,-1
 460 1420 l 1,32,-1
 460 235 l 1,14,-1
EndSplineSet
EndChar

StartChar: E
Encoding: 69 69 37
Width: 896
GlyphClass: 2
Flags: W
AnchorPoint: "Anchor-0" 581 0 basechar 0
LayerCount: 2
UndoRedoHistory
Layer: 1
Undoes
EndUndoes
Redoes
EndRedoes
EndUndoRedoHistory
Fore
SplineSet
123 0 m 1,0,-1
 123 1658 l 1,1,-1
 845 1658 l 1,2,-1
 845 1424 l 1,3,-1
 460 1424 l 1,4,-1
 460 985 l 1,5,-1
 759 985 l 1,6,-1
 759 749 l 1,7,-1
 460 749 l 1,8,-1
 460 230 l 1,9,-1
 849 230 l 1,10,-1
 849 0 l 1,11,-1
 123 0 l 1,0,-1
EndSplineSet
EndChar

StartChar: F
Encoding: 70 70 38
Width: 866
GlyphClass: 2
Flags: W
LayerCount: 2
UndoRedoHistory
Layer: 1
Undoes
EndUndoes
Redoes
EndRedoes
EndUndoRedoHistory
Fore
SplineSet
123 0 m 1,0,-1
 123 1658 l 1,1,-1
 825 1658 l 1,2,-1
 825 1427 l 1,3,-1
 460 1427 l 1,4,-1
 460 980 l 1,5,-1
 763 980 l 1,6,-1
 763 744 l 1,7,-1
 460 744 l 1,8,-1
 460 0 l 1,9,-1
 123 0 l 1,0,-1
EndSplineSet
EndChar

StartChar: G
Encoding: 71 71 39
Width: 1169
GlyphClass: 2
Flags: W
LayerCount: 2
UndoRedoHistory
Layer: 1
Undoes
EndUndoes
Redoes
EndRedoes
EndUndoRedoHistory
Fore
SplineSet
548 -23 m 0,0,1
 425 -23 425 -23 337 17 c 128,-1,2
 249 57 249 57 197 134 c 128,-1,3
 145 211 145 211 121.5 313.5 c 128,-1,4
 98 416 98 416 98 552 c 2,5,-1
 98 1098 l 2,6,7
 98 1210 98 1210 112.5 1297 c 128,-1,8
 127 1384 127 1384 162 1457.5 c 128,-1,9
 197 1531 197 1531 252 1578.5 c 128,-1,10
 307 1626 307 1626 390.5 1652.5 c 128,-1,11
 474 1679 474 1679 584 1679 c 0,12,13
 714 1679 714 1679 807 1646.5 c 128,-1,14
 900 1614 900 1614 954.5 1549 c 128,-1,15
 1009 1484 1009 1484 1033.5 1397 c 128,-1,16
 1058 1310 1058 1310 1058 1193 c 2,17,-1
 1058 1099 l 1,18,-1
 731 1099 l 1,19,-1
 731 1211 l 2,20,21
 731 1257 731 1257 729 1286 c 128,-1,22
 727 1315 727 1315 719 1346.5 c 128,-1,23
 711 1378 711 1378 696 1396 c 128,-1,24
 681 1414 681 1414 654.5 1425.5 c 128,-1,25
 628 1437 628 1437 589 1437 c 0,26,27
 548 1437 548 1437 520 1422.5 c 128,-1,28
 492 1408 492 1408 477 1387.5 c 128,-1,29
 462 1367 462 1367 453.5 1330 c 128,-1,30
 445 1293 445 1293 443.5 1264 c 128,-1,31
 442 1235 442 1235 442 1188 c 2,32,-1
 442 469 l 2,33,34
 442 348 442 348 475 285 c 128,-1,35
 508 222 508 222 598 222 c 0,36,37
 689 222 689 222 724.5 289.5 c 128,-1,38
 760 357 760 357 760 482 c 2,39,-1
 760 645 l 1,40,-1
 597 645 l 1,41,-1
 597 853 l 1,42,-1
 1064 853 l 1,43,-1
 1064 0 l 1,44,-1
 843 0 l 1,45,-1
 821 152 l 1,46,47
 746 -23 746 -23 548 -23 c 0,0,1
EndSplineSet
EndChar

StartChar: H
Encoding: 72 72 40
Width: 1224
GlyphClass: 2
Flags: W
LayerCount: 2
UndoRedoHistory
Layer: 1
Undoes
EndUndoes
Redoes
EndRedoes
EndUndoRedoHistory
Fore
SplineSet
128 0 m 1,0,-1
 128 1658 l 1,1,-1
 466 1658 l 1,2,-1
 466 978 l 1,3,-1
 758 978 l 1,4,-1
 758 1658 l 1,5,-1
 1096 1658 l 1,6,-1
 1096 0 l 1,7,-1
 758 0 l 1,8,-1
 758 737 l 1,9,-1
 466 737 l 1,10,-1
 466 0 l 1,11,-1
 128 0 l 1,0,-1
EndSplineSet
EndChar

StartChar: I
Encoding: 73 73 41
Width: 591
GlyphClass: 2
Flags: W
AnchorPoint: "Anchor-0" 331 0 basechar 0
LayerCount: 2
UndoRedoHistory
Layer: 1
Undoes
EndUndoes
Redoes
EndRedoes
EndUndoRedoHistory
Fore
SplineSet
129 0 m 1,0,-1
 129 1658 l 1,1,-1
 464 1658 l 1,2,-1
 464 0 l 1,3,-1
 129 0 l 1,0,-1
EndSplineSet
EndChar

StartChar: J
Encoding: 74 74 42
Width: 693
GlyphClass: 2
Flags: W
AnchorPoint: "Anchor-2" 408 1808 basechar 0
LayerCount: 2
UndoRedoHistory
Layer: 1
Undoes
EndUndoes
Redoes
EndRedoes
EndUndoRedoHistory
Fore
SplineSet
23 -38 m 1,0,-1
 23 198 l 1,1,2
 26 198 26 198 30 198 c 0,3,4
 148 198 148 198 189 234 c 0,5,6
 232 270 232 270 232 385 c 2,7,-1
 232 1658 l 1,8,-1
 570 1658 l 1,9,-1
 569 373 l 1,10,11
 567 265 567 265 549 192 c 128,-1,12
 531 119 531 119 487.5 65.5 c 128,-1,13
 444 12 444 12 370 -13 c 128,-1,14
 296 -38 296 -38 186 -38 c 2,15,-1
 23 -38 l 1,0,-1
EndSplineSet
EndChar

StartChar: K
Encoding: 75 75 43
Width: 1127
GlyphClass: 2
Flags: W
LayerCount: 2
UndoRedoHistory
Layer: 1
Undoes
EndUndoes
Redoes
EndRedoes
EndUndoRedoHistory
Fore
SplineSet
123 0 m 1,0,-1
 123 1658 l 1,1,-1
 460 1658 l 1,2,-1
 460 963 l 1,3,-1
 761 1658 l 1,4,-1
 1087 1658 l 1,5,-1
 776 912 l 1,6,-1
 1110 0 l 1,7,-1
 769 0 l 1,8,-1
 507 759 l 1,9,-1
 460 679 l 1,10,-1
 460 0 l 1,11,-1
 123 0 l 1,0,-1
EndSplineSet
EndChar

StartChar: L
Encoding: 76 76 44
Width: 885
GlyphClass: 2
Flags: W
LayerCount: 2
UndoRedoHistory
Layer: 1
Undoes
EndUndoes
Redoes
EndRedoes
EndUndoRedoHistory
Fore
SplineSet
123 0 m 1,0,-1
 123 1658 l 1,1,-1
 460 1658 l 1,2,-1
 460 230 l 1,3,-1
 847 230 l 1,4,-1
 847 0 l 1,5,-1
 123 0 l 1,0,-1
EndSplineSet
EndChar

StartChar: M
Encoding: 77 77 45
Width: 1421
GlyphClass: 2
Flags: W
LayerCount: 2
UndoRedoHistory
Layer: 1
Undoes
EndUndoes
Redoes
EndRedoes
EndUndoRedoHistory
Fore
SplineSet
119 0 m 1,0,-1
 146 1658 l 1,1,-1
 501 1658 l 1,2,-1
 710 600 l 1,3,-1
 930 1658 l 1,4,-1
 1275 1658 l 1,5,-1
 1302 0 l 1,6,-1
 1055 0 l 1,7,-1
 1032 1119 l 1,8,-1
 817 0 l 1,9,-1
 611 0 l 1,10,-1
 390 1125 l 1,11,-1
 369 0 l 1,12,-1
 119 0 l 1,0,-1
EndSplineSet
EndChar

StartChar: N
Encoding: 78 78 46
Width: 1131
GlyphClass: 2
Flags: W
LayerCount: 2
UndoRedoHistory
Layer: 1
Undoes
EndUndoes
Redoes
EndRedoes
EndUndoRedoHistory
Fore
SplineSet
123 0 m 1,0,-1
 123 1658 l 1,1,-1
 358 1658 l 1,2,-1
 728 797 l 1,3,-1
 728 1658 l 1,4,-1
 1008 1658 l 1,5,-1
 1008 0 l 1,6,-1
 783 0 l 1,7,-1
 411 916 l 1,8,-1
 411 0 l 1,9,-1
 123 0 l 1,0,-1
EndSplineSet
EndChar

StartChar: O
Encoding: 79 79 47
Width: 1177
GlyphClass: 2
Flags: W
AnchorPoint: "Anchor-0" 631 0 basechar 0
LayerCount: 2
UndoRedoHistory
Layer: 1
Undoes
EndUndoes
Redoes
EndRedoes
EndUndoRedoHistory
Fore
SplineSet
587 -22 m 0,0,1
 452 -22 452 -22 357 14.5 c 128,-1,2
 262 51 262 51 205.5 123.5 c 128,-1,3
 149 196 149 196 123.5 294 c 128,-1,4
 98 392 98 392 98 525 c 2,5,-1
 98 1137 l 2,6,7
 98 1270 98 1270 123.5 1367.5 c 128,-1,8
 149 1465 149 1465 205.5 1536 c 128,-1,9
 262 1607 262 1607 357 1643 c 128,-1,10
 452 1679 452 1679 587 1679 c 0,11,12
 850 1679 850 1679 964.5 1542 c 128,-1,13
 1079 1405 1079 1405 1079 1137 c 2,14,-1
 1079 525 l 2,15,16
 1079 257 1079 257 964.5 117.5 c 128,-1,17
 850 -22 850 -22 587 -22 c 0,0,1
587 221 m 128,-1,19
 625 221 625 221 652.5 233.5 c 128,-1,20
 680 246 680 246 695.5 265 c 128,-1,21
 711 284 711 284 720 315 c 128,-1,22
 729 346 729 346 731.5 374.5 c 128,-1,23
 734 403 734 403 734 443 c 2,24,-1
 734 1219 l 2,25,26
 734 1259 734 1259 731.5 1287.5 c 128,-1,27
 729 1316 729 1316 720 1346 c 128,-1,28
 711 1376 711 1376 695.5 1394.5 c 128,-1,29
 680 1413 680 1413 652.5 1425 c 128,-1,30
 625 1437 625 1437 587 1437 c 128,-1,31
 549 1437 549 1437 522 1425 c 128,-1,32
 495 1413 495 1413 480 1394.5 c 128,-1,33
 465 1376 465 1376 456.5 1345.5 c 128,-1,34
 448 1315 448 1315 445.5 1287 c 128,-1,35
 443 1259 443 1259 443 1219 c 2,36,-1
 443 443 l 2,37,38
 443 403 443 403 445.5 374.5 c 128,-1,39
 448 346 448 346 456.5 315 c 128,-1,40
 465 284 465 284 480 265 c 128,-1,41
 495 246 495 246 522 233.5 c 128,-1,18
 549 221 549 221 587 221 c 128,-1,19
EndSplineSet
EndChar

StartChar: P
Encoding: 80 80 48
Width: 1117
GlyphClass: 2
Flags: W
LayerCount: 2
UndoRedoHistory
Layer: 1
Undoes
EndUndoes
Redoes
EndRedoes
EndUndoRedoHistory
Fore
SplineSet
460 958 m 1,0,-1
 568 958 l 2,1,2
 680 958 680 958 718 1008.5 c 128,-1,3
 756 1059 756 1059 756 1186 c 0,4,5
 756 1251 756 1251 750.5 1288.5 c 128,-1,6
 745 1326 745 1326 726.5 1359.5 c 128,-1,7
 708 1393 708 1393 669.5 1407 c 128,-1,8
 631 1421 631 1421 568 1421 c 2,9,-1
 460 1421 l 1,10,-1
 460 958 l 1,0,-1
123 0 m 1,11,-1
 123 1658 l 1,12,-1
 641 1658 l 2,13,14
 1073 1658 1073 1658 1073 1182 c 0,15,16
 1073 1053 1073 1053 1039 961.5 c 128,-1,17
 1005 870 1005 870 941 818.5 c 128,-1,18
 877 767 877 767 796 744.5 c 128,-1,19
 715 722 715 722 610 722 c 2,20,-1
 460 722 l 1,21,-1
 460 0 l 1,22,-1
 123 0 l 1,11,-1
EndSplineSet
EndChar

StartChar: Q
Encoding: 81 81 49
Width: 1177
GlyphClass: 2
Flags: W
LayerCount: 2
UndoRedoHistory
Layer: 1
Undoes
EndUndoes
Redoes
EndRedoes
EndUndoRedoHistory
Fore
SplineSet
587 221 m 128,-1,1
 625 221 625 221 652.5 233.5 c 128,-1,2
 680 246 680 246 695.5 265 c 128,-1,3
 711 284 711 284 720 315 c 128,-1,4
 729 346 729 346 731.5 374.5 c 128,-1,5
 734 403 734 403 734 443 c 2,6,-1
 734 1219 l 2,7,8
 734 1259 734 1259 731.5 1287.5 c 128,-1,9
 729 1316 729 1316 720 1346 c 128,-1,10
 711 1376 711 1376 695.5 1394.5 c 128,-1,11
 680 1413 680 1413 652.5 1425 c 128,-1,12
 625 1437 625 1437 587 1437 c 128,-1,13
 549 1437 549 1437 522 1425 c 128,-1,14
 495 1413 495 1413 480 1394.5 c 128,-1,15
 465 1376 465 1376 456.5 1345.5 c 128,-1,16
 448 1315 448 1315 445.5 1287 c 128,-1,17
 443 1259 443 1259 443 1219 c 2,18,-1
 443 443 l 2,19,20
 443 403 443 403 445.5 374.5 c 128,-1,21
 448 346 448 346 456.5 315 c 128,-1,22
 465 284 465 284 480 265 c 128,-1,23
 495 246 495 246 522 233.5 c 128,-1,0
 549 221 549 221 587 221 c 128,-1,1
952 -329 m 1,24,25
 877 -296 877 -296 780 -205.5 c 128,-1,26
 683 -115 683 -115 622 -21 c 1,27,28
 610 -22 610 -22 587 -22 c 0,29,30
 452 -22 452 -22 357 14.5 c 128,-1,31
 262 51 262 51 205.5 123.5 c 128,-1,32
 149 196 149 196 123.5 294 c 128,-1,33
 98 392 98 392 98 525 c 2,34,-1
 98 1137 l 2,35,36
 98 1270 98 1270 123.5 1367.5 c 128,-1,37
 149 1465 149 1465 205.5 1536 c 128,-1,38
 262 1607 262 1607 357 1643 c 128,-1,39
 452 1679 452 1679 587 1679 c 0,40,41
 850 1679 850 1679 964.5 1542 c 128,-1,42
 1079 1405 1079 1405 1079 1137 c 2,43,-1
 1079 525 l 2,44,45
 1079 146 1079 146 855 33 c 1,46,47
 952 -78 952 -78 1019 -116 c 1,48,-1
 952 -329 l 1,24,25
EndSplineSet
EndChar

StartChar: R
Encoding: 82 82 50
Width: 1185
GlyphClass: 2
Flags: W
LayerCount: 2
UndoRedoHistory
Layer: 1
Undoes
EndUndoes
Redoes
EndRedoes
EndUndoRedoHistory
Fore
SplineSet
460 952 m 1,0,-1
 544 952 l 2,1,2
 666 952 666 952 717 1009.5 c 128,-1,3
 768 1067 768 1067 768 1193 c 0,4,5
 768 1316 768 1316 723.5 1372.5 c 128,-1,6
 679 1429 679 1429 563 1429 c 2,7,-1
 460 1429 l 1,8,-1
 460 952 l 1,0,-1
123 0 m 1,9,-1
 123 1658 l 1,10,-1
 542 1658 l 2,11,12
 674 1658 674 1658 769 1637.5 c 128,-1,13
 864 1617 864 1617 937.5 1568 c 128,-1,14
 1011 1519 1011 1519 1047.5 1432 c 128,-1,15
 1084 1345 1084 1345 1084 1218 c 0,16,17
 1084 1058 1084 1058 1038.5 959 c 128,-1,18
 993 860 993 860 882 809 c 1,19,-1
 1111 0 l 1,20,-1
 767 0 l 1,21,-1
 577 748 l 1,22,-1
 460 748 l 1,23,-1
 460 0 l 1,24,-1
 123 0 l 1,9,-1
EndSplineSet
EndChar

StartChar: S
Encoding: 83 83 51
Width: 1033
GlyphClass: 2
Flags: W
AnchorPoint: "Anchor-1" 550 0 basechar 0
LayerCount: 2
UndoRedoHistory
Layer: 1
Undoes
EndUndoes
Redoes
EndRedoes
EndUndoRedoHistory
Fore
SplineSet
553 -22 m 0,0,1
 322 -22 322 -22 208 105 c 128,-1,2
 94 232 94 232 84 495 c 1,3,-1
 376 547 l 1,4,5
 378 392 378 392 417.5 313.5 c 128,-1,6
 457 235 457 235 539 235 c 0,7,8
 598 235 598 235 624.5 273 c 128,-1,9
 651 311 651 311 651 371 c 0,10,11
 651 469 651 469 608.5 535.5 c 128,-1,12
 566 602 566 602 472 684 c 2,13,-1
 294 838 l 2,14,15
 226 897 226 897 184.5 948.5 c 128,-1,16
 143 1000 143 1000 114.5 1079.5 c 128,-1,17
 86 1159 86 1159 86 1256 c 0,18,19
 86 1457 86 1457 205 1567.5 c 128,-1,20
 324 1678 324 1678 532 1679 c 0,21,22
 602 1679 602 1679 660 1665 c 128,-1,23
 718 1651 718 1651 759.5 1627 c 128,-1,24
 801 1603 801 1603 833 1567 c 128,-1,25
 865 1531 865 1531 885 1492.5 c 128,-1,26
 905 1454 905 1454 919 1405.5 c 128,-1,27
 933 1357 933 1357 939 1313.5 c 128,-1,28
 945 1270 945 1270 948 1219 c 1,29,-1
 658 1173 l 1,30,31
 656 1224 656 1224 653 1258 c 128,-1,32
 650 1292 650 1292 641.5 1328.5 c 128,-1,33
 633 1365 633 1365 619 1385.5 c 128,-1,34
 605 1406 605 1406 581 1419 c 128,-1,35
 557 1432 557 1432 524 1430 c 0,36,37
 468 1427 468 1427 437.5 1387 c 128,-1,38
 407 1347 407 1347 407 1290 c 0,39,40
 407 1245 407 1245 417.5 1208.5 c 128,-1,41
 428 1172 428 1172 452 1139 c 128,-1,42
 476 1106 476 1106 495.5 1086 c 128,-1,43
 515 1066 515 1066 552 1032 c 1,44,-1
 727 880 l 1,45,46
 783 830 783 830 824.5 783 c 128,-1,47
 866 736 866 736 903 676 c 128,-1,48
 940 616 940 616 959.5 544 c 128,-1,49
 979 472 979 472 979 391 c 0,50,51
 979 210 979 210 861.5 94 c 128,-1,52
 744 -22 744 -22 553 -22 c 0,0,1
EndSplineSet
EndChar

StartChar: T
Encoding: 84 84 52
Width: 892
GlyphClass: 2
Flags: W
AnchorPoint: "Anchor-1" 460 0 basechar 0
LayerCount: 2
UndoRedoHistory
Layer: 1
Undoes
EndUndoes
Redoes
EndRedoes
EndUndoRedoHistory
Fore
SplineSet
280 0 m 1,0,-1
 280 1409 l 1,1,-1
 15 1409 l 1,2,-1
 15 1658 l 1,3,-1
 878 1658 l 1,4,-1
 878 1409 l 1,5,-1
 617 1409 l 1,6,-1
 617 0 l 1,7,-1
 280 0 l 1,0,-1
EndSplineSet
EndChar

StartChar: U
Encoding: 85 85 53
Width: 1180
GlyphClass: 2
Flags: W
AnchorPoint: "Anchor-0" 671 0 basechar 0
LayerCount: 2
UndoRedoHistory
Layer: 1
Undoes
EndUndoes
Redoes
EndRedoes
EndUndoRedoHistory
Fore
SplineSet
590 -22 m 0,0,1
 451 -22 451 -22 356.5 14.5 c 128,-1,2
 262 51 262 51 208.5 125.5 c 128,-1,3
 155 200 155 200 133 298.5 c 128,-1,4
 111 397 111 397 111 537 c 2,5,-1
 111 1658 l 1,6,-1
 442 1658 l 1,7,-1
 442 494 l 2,8,9
 442 447 442 447 444.5 413.5 c 128,-1,10
 447 380 447 380 455.5 342 c 128,-1,11
 464 304 464 304 479.5 280.5 c 128,-1,12
 495 257 495 257 523 241.5 c 128,-1,13
 551 226 551 226 590 226 c 128,-1,14
 629 226 629 226 657.5 241.5 c 128,-1,15
 686 257 686 257 701 280.5 c 128,-1,16
 716 304 716 304 725 342 c 128,-1,17
 734 380 734 380 736 413 c 128,-1,18
 738 446 738 446 738 494 c 2,19,-1
 738 1658 l 1,20,-1
 1069 1658 l 1,21,-1
 1069 537 l 2,22,23
 1069 397 1069 397 1047 298.5 c 128,-1,24
 1025 200 1025 200 972 125.5 c 128,-1,25
 919 51 919 51 824.5 14.5 c 128,-1,26
 730 -22 730 -22 590 -22 c 0,0,1
EndSplineSet
EndChar

StartChar: V
Encoding: 86 86 54
Width: 1069
GlyphClass: 2
Flags: W
LayerCount: 2
UndoRedoHistory
Layer: 1
Undoes
EndUndoes
Redoes
EndRedoes
EndUndoRedoHistory
Fore
SplineSet
363 0 m 1,0,-1
 46 1658 l 1,1,-1
 339 1658 l 1,2,-1
 535 524 l 1,3,-1
 719 1658 l 1,4,-1
 1025 1658 l 1,5,-1
 706 0 l 1,6,-1
 363 0 l 1,0,-1
EndSplineSet
EndChar

StartChar: W
Encoding: 87 87 55
Width: 1449
GlyphClass: 2
Flags: W
LayerCount: 2
UndoRedoHistory
Layer: 1
Undoes
EndUndoes
Redoes
EndRedoes
EndUndoRedoHistory
Fore
SplineSet
278 0 m 1,0,-1
 62 1658 l 1,1,-1
 347 1658 l 1,2,-1
 462 647 l 1,3,-1
 611 1658 l 1,4,-1
 836 1658 l 1,5,-1
 991 650 l 1,6,-1
 1106 1658 l 1,7,-1
 1388 1658 l 1,8,-1
 1171 0 l 1,9,-1
 887 0 l 1,10,-1
 725 1048 l 1,11,-1
 567 0 l 1,12,-1
 278 0 l 1,0,-1
EndSplineSet
EndChar

StartChar: X
Encoding: 88 88 56
Width: 1040
GlyphClass: 2
Flags: W
LayerCount: 2
UndoRedoHistory
Layer: 1
Undoes
EndUndoes
Redoes
EndRedoes
EndUndoRedoHistory
Fore
SplineSet
17 0 m 1,0,-1
 345 887 l 1,1,-1
 29 1658 l 1,2,-1
 347 1658 l 1,3,-1
 543 1180 l 1,4,-1
 707 1658 l 1,5,-1
 996 1658 l 1,6,-1
 692 812 l 1,7,-1
 1023 0 l 1,8,-1
 708 0 l 1,9,-1
 493 522 l 1,10,-1
 303 0 l 1,11,-1
 17 0 l 1,0,-1
EndSplineSet
EndChar

StartChar: Y
Encoding: 89 89 57
Width: 1007
GlyphClass: 2
Flags: W
LayerCount: 2
UndoRedoHistory
Layer: 1
Undoes
EndUndoes
Redoes
EndRedoes
EndUndoRedoHistory
Fore
SplineSet
343 0 m 1,0,-1
 343 657 l 1,1,-1
 18 1658 l 1,2,-1
 334 1658 l 1,3,-1
 513 1072 l 1,4,-1
 680 1658 l 1,5,-1
 989 1658 l 1,6,-1
 666 657 l 1,7,-1
 666 0 l 1,8,-1
 343 0 l 1,0,-1
EndSplineSet
EndChar

StartChar: Z
Encoding: 90 90 58
Width: 879
GlyphClass: 2
Flags: W
LayerCount: 2
UndoRedoHistory
Layer: 1
Undoes
EndUndoes
Redoes
EndRedoes
EndUndoRedoHistory
Fore
SplineSet
67 0 m 1,0,-1
 67 211 l 1,1,-1
 486 1427 l 1,2,-1
 85 1427 l 1,3,-1
 85 1658 l 1,4,-1
 824 1658 l 1,5,-1
 824 1480 l 1,6,-1
 389 230 l 1,7,-1
 827 230 l 1,8,-1
 827 0 l 1,9,-1
 67 0 l 1,0,-1
EndSplineSet
EndChar

StartChar: bracketleft
Encoding: 91 91 59
Width: 693
GlyphClass: 2
Flags: W
LayerCount: 2
UndoRedoHistory
Layer: 1
Undoes
EndUndoes
Redoes
EndRedoes
EndUndoRedoHistory
Fore
SplineSet
111 -384 m 1,0,-1
 112 1658 l 1,1,-1
 618 1658 l 1,2,-1
 618 1531 l 1,3,-1
 368 1531 l 1,4,-1
 367 -256 l 1,5,-1
 617 -256 l 1,6,-1
 617 -384 l 1,7,-1
 111 -384 l 1,0,-1
EndSplineSet
EndChar

StartChar: backslash
Encoding: 92 92 60
Width: 841
GlyphClass: 2
Flags: W
LayerCount: 2
UndoRedoHistory
Layer: 1
Undoes
EndUndoes
Redoes
EndRedoes
EndUndoRedoHistory
Fore
SplineSet
571 0 m 1,0,-1
 82 1658 l 1,1,-1
 270 1658 l 1,2,-1
 758 0 l 1,3,-1
 571 0 l 1,0,-1
EndSplineSet
EndChar

StartChar: bracketright
Encoding: 93 93 61
Width: 661
GlyphClass: 2
Flags: W
LayerCount: 2
UndoRedoHistory
Layer: 1
Undoes
EndUndoes
Redoes
EndRedoes
EndUndoRedoHistory
Fore
SplineSet
44 -384 m 1,0,-1
 44 -256 l 1,1,-1
 294 -256 l 1,2,-1
 293 1530 l 1,3,-1
 43 1530 l 1,4,-1
 43 1658 l 1,5,-1
 549 1658 l 1,6,-1
 550 -384 l 1,7,-1
 44 -384 l 1,0,-1
EndSplineSet
EndChar

StartChar: asciicircum
Encoding: 94 94 62
Width: 967
GlyphClass: 2
Flags: W
LayerCount: 2
UndoRedoHistory
Layer: 1
Undoes
EndUndoes
Redoes
EndRedoes
EndUndoRedoHistory
Fore
SplineSet
64 975 m 1,0,-1
 353 1658 l 1,1,-1
 613 1658 l 1,2,-1
 903 975 l 1,3,-1
 633 975 l 1,4,-1
 482 1400 l 1,5,-1
 333 975 l 1,6,-1
 64 975 l 1,0,-1
EndSplineSet
EndChar

StartChar: underscore
Encoding: 95 95 63
Width: 742
GlyphClass: 2
Flags: W
LayerCount: 2
UndoRedoHistory
Layer: 1
Undoes
EndUndoes
Redoes
EndRedoes
EndUndoRedoHistory
Fore
SplineSet
0 -329 m 1,0,-1
 0 -116 l 1,1,-1
 742 -116 l 1,2,-1
 742 -329 l 1,3,-1
 0 -329 l 1,0,-1
EndSplineSet
EndChar

StartChar: grave
Encoding: 96 96 64
Width: 623
GlyphClass: 2
Flags: W
LayerCount: 2
UndoRedoHistory
Layer: 1
Undoes
EndUndoes
Redoes
EndRedoes
EndUndoRedoHistory
Fore
SplineSet
346 1247 m 1,0,-1
 93 1658 l 1,1,-1
 409 1658 l 1,2,-1
 532 1247 l 1,3,-1
 346 1247 l 1,0,-1
EndSplineSet
EndChar

StartChar: a
Encoding: 97 97 65
Width: 954
GlyphClass: 2
Flags: W
AnchorPoint: "Anchor-0" 757 0 basechar 0
LayerCount: 2
UndoRedoHistory
Layer: 1
Undoes
EndUndoes
Redoes
EndRedoes
EndUndoRedoHistory
Fore
SplineSet
457 204 m 0,0,1
 484 204 484 204 512.5 224 c 128,-1,2
 541 244 541 244 558 268 c 1,3,-1
 558 592 l 1,4,5
 475 549 475 549 419.5 479.5 c 128,-1,6
 364 410 364 410 364 335 c 0,7,8
 364 275 364 275 389 239.5 c 128,-1,9
 414 204 414 204 457 204 c 0,0,1
342 -20 m 1,10,11
 262 -19 262 -19 199.5 24 c 128,-1,12
 137 67 137 67 106.5 131 c 128,-1,13
 76 195 76 195 76 266 c 0,14,15
 76 312 76 312 85 354 c 128,-1,16
 94 396 94 396 107 429 c 128,-1,17
 120 462 120 462 144 492.5 c 128,-1,18
 168 523 168 523 189 545.5 c 128,-1,19
 210 568 210 568 244.5 591 c 128,-1,20
 279 614 279 614 304 628.5 c 128,-1,21
 329 643 329 643 369 661 c 128,-1,22
 409 679 409 679 432.5 688.5 c 128,-1,23
 456 698 456 698 497.5 714 c 128,-1,24
 539 730 539 730 558 737 c 1,25,-1
 558 846 l 2,26,27
 558 910 558 910 541.5 941.5 c 128,-1,28
 525 973 525 973 478 973 c 0,29,30
 399 973 399 973 395 862 c 1,31,-1
 389 781 l 1,32,-1
 96 793 l 1,33,34
 96 813 96 813 99 834 c 1,35,36
 112 1024 112 1024 214 1113.5 c 128,-1,37
 316 1203 316 1203 505 1203 c 0,38,39
 680 1203 680 1203 768.5 1107 c 128,-1,40
 857 1011 857 1011 857 844 c 2,41,-1
 857 297 l 2,42,43
 857 161 857 161 879 0 c 1,44,-1
 602 0 l 1,45,46
 577 131 577 131 573 170 c 1,47,48
 549 89 549 89 490.5 34.5 c 128,-1,49
 432 -20 432 -20 342 -20 c 1,10,11
EndSplineSet
EndChar

StartChar: b
Encoding: 98 98 66
Width: 1010
GlyphClass: 2
Flags: W
LayerCount: 2
UndoRedoHistory
Layer: 1
Undoes
EndUndoes
Redoes
EndRedoes
EndUndoRedoHistory
Fore
SplineSet
524 190 m 0,0,1
 525 190 525 190 526 190 c 0,2,3
 574 190 574 190 594 236 c 0,4,5
 614 284 614 284 613 365 c 2,6,-1
 613 850 l 2,7,8
 613 1004 613 1004 525 1004 c 0,9,10
 522 1004 522 1004 519 1004 c 1,11,12
 474 1003 474 1003 417 962 c 1,13,-1
 417 223 l 1,14,15
 469 191 469 191 524 190 c 0,0,1
654 -20 m 0,16,17
 535 -20 535 -20 417 88 c 1,18,-1
 417 0 l 1,19,-1
 108 0 l 1,20,-1
 108 1658 l 1,21,-1
 417 1658 l 1,22,-1
 417 1096 l 1,23,24
 532 1203 532 1203 659 1203 c 0,25,26
 662 1203 662 1203 666 1203 c 0,27,28
 737 1202 737 1202 789.5 1167.5 c 128,-1,29
 842 1133 842 1133 869.5 1077 c 128,-1,30
 897 1021 897 1021 910 960 c 128,-1,31
 923 899 923 899 923 831 c 2,32,-1
 923 378 l 2,33,34
 923 200 923 200 855.5 90 c 128,-1,35
 788 -20 788 -20 654 -20 c 0,16,17
EndSplineSet
EndChar

StartChar: c
Encoding: 99 99 67
Width: 932
GlyphClass: 2
Flags: W
AnchorPoint: "Anchor-1" 481 0 basechar 0
LayerCount: 2
UndoRedoHistory
Layer: 1
Undoes
EndUndoes
Redoes
EndRedoes
EndUndoRedoHistory
Fore
SplineSet
477 -20 m 0,0,1
 280 -20 280 -20 181.5 89 c 128,-1,2
 83 198 83 198 83 398 c 2,3,-1
 83 787 l 2,4,5
 83 987 83 987 181 1095 c 128,-1,6
 279 1203 279 1203 477 1203 c 0,7,8
 859 1203 859 1203 859 843 c 2,9,-1
 859 731 l 1,10,-1
 564 731 l 1,11,-1
 564 850 l 2,12,13
 564 927 564 927 544 957.5 c 128,-1,14
 524 988 524 988 479 988 c 0,15,16
 431 988 431 988 412 952 c 128,-1,17
 393 916 393 916 393 822 c 2,18,-1
 393 358 l 2,19,20
 393 265 393 265 413.5 231 c 128,-1,21
 434 197 434 197 480 197 c 128,-1,22
 526 197 526 197 545 229 c 128,-1,23
 564 261 564 261 564 331 c 2,24,-1
 564 473 l 1,25,-1
 859 473 l 1,26,-1
 859 344 l 2,27,28
 859 165 859 165 762 72.5 c 128,-1,29
 665 -20 665 -20 477 -20 c 0,0,1
EndSplineSet
EndChar

StartChar: d
Encoding: 100 100 68
Width: 1003
GlyphClass: 2
Flags: W
LayerCount: 2
UndoRedoHistory
Layer: 1
Undoes
EndUndoes
Redoes
EndRedoes
EndUndoRedoHistory
Fore
SplineSet
492 188 m 0,0,1
 533 188 533 188 588 218 c 1,2,-1
 588 969 l 1,3,4
 538 999 538 999 492 999 c 0,5,6
 442 999 442 999 419.5 956.5 c 128,-1,7
 397 914 397 914 397 847 c 2,8,-1
 397 355 l 2,9,10
 397 188 397 188 492 188 c 0,0,1
369 -20 m 1,11,12
 87 -20 87 -20 87 376 c 2,13,-1
 87 795 l 2,14,15
 87 914 87 914 114 1003 c 128,-1,16
 141 1092 141 1092 205.5 1147.5 c 128,-1,17
 270 1203 270 1203 367 1203 c 0,18,19
 484 1203 484 1203 588 1111 c 1,20,-1
 588 1658 l 1,21,-1
 897 1658 l 1,22,-1
 897 0 l 1,23,-1
 588 0 l 1,24,-1
 588 86 l 1,25,26
 483 -19 483 -19 369 -20 c 1,11,12
EndSplineSet
EndChar

StartChar: e
Encoding: 101 101 69
Width: 940
GlyphClass: 2
Flags: W
AnchorPoint: "Anchor-0" 491 0 basechar 0
LayerCount: 2
UndoRedoHistory
Layer: 1
Undoes
EndUndoes
Redoes
EndRedoes
EndUndoRedoHistory
Fore
SplineSet
390 723 m 1,0,-1
 571 723 l 1,1,-1
 571 839 l 2,2,3
 571 915 571 915 548.5 948 c 128,-1,4
 526 981 526 981 478 981 c 128,-1,5
 430 981 430 981 410 943.5 c 128,-1,6
 390 906 390 906 390 812 c 2,7,-1
 390 723 l 1,0,-1
480 -20 m 0,8,9
 281 -20 281 -20 182 88.5 c 128,-1,10
 83 197 83 197 83 400 c 2,11,-1
 83 783 l 2,12,13
 83 986 83 986 183 1094.5 c 128,-1,14
 283 1203 283 1203 479 1203 c 0,15,16
 680 1203 680 1203 770.5 1094.5 c 128,-1,17
 861 986 861 986 861 772 c 2,18,-1
 861 574 l 1,19,-1
 390 574 l 1,20,-1
 390 380 l 2,21,22
 390 292 390 292 408 247.5 c 128,-1,23
 426 203 426 203 479 203 c 0,24,25
 571 203 571 203 571 336 c 2,26,-1
 571 446 l 1,27,-1
 860 446 l 1,28,-1
 860 350 l 2,29,30
 860 170 860 170 762 75 c 128,-1,31
 664 -20 664 -20 480 -20 c 0,8,9
EndSplineSet
EndChar

StartChar: f
Encoding: 102 102 70
Width: 642
GlyphClass: 2
Flags: W
LayerCount: 2
UndoRedoHistory
Layer: 1
Undoes
EndUndoes
Redoes
EndRedoes
EndUndoRedoHistory
Fore
SplineSet
156 0 m 1,0,-1
 156 970 l 1,1,-1
 36 970 l 1,2,-1
 36 1184 l 1,3,-1
 156 1184 l 1,4,-1
 156 1258 l 2,5,6
 156 1329 156 1329 162 1378.5 c 128,-1,7
 168 1428 168 1428 186.5 1475.5 c 128,-1,8
 205 1523 205 1523 238.5 1551 c 128,-1,9
 272 1579 272 1579 329 1596 c 128,-1,10
 386 1613 386 1613 466 1613 c 0,11,12
 526 1613 526 1613 622 1602 c 1,13,-1
 622 1372 l 1,14,15
 552 1382 552 1382 549 1382 c 0,16,17
 465 1382 465 1382 465 1276 c 2,18,-1
 465 1184 l 1,19,-1
 622 1184 l 1,20,-1
 622 970 l 1,21,-1
 465 970 l 1,22,-1
 465 0 l 1,23,-1
 156 0 l 1,0,-1
EndSplineSet
EndChar

StartChar: g
Encoding: 103 103 71
Width: 990
GlyphClass: 2
Flags: W
LayerCount: 2
UndoRedoHistory
Layer: 1
Undoes
EndUndoes
Redoes
EndRedoes
EndUndoRedoHistory
Fore
SplineSet
485 556 m 0,0,1
 548 556 548 556 567 605 c 128,-1,2
 586 654 586 654 586 782 c 0,3,4
 586 836 586 836 584.5 868 c 128,-1,5
 583 900 583 900 577.5 931 c 128,-1,6
 572 962 572 962 561 977.5 c 128,-1,7
 550 993 550 993 531.5 1002.5 c 128,-1,8
 513 1012 513 1012 486 1012 c 0,9,10
 458 1012 458 1012 439.5 1002 c 128,-1,11
 421 992 421 992 410.5 976 c 128,-1,12
 400 960 400 960 394.5 928.5 c 128,-1,13
 389 897 389 897 387.5 865.5 c 128,-1,14
 386 834 386 834 386 782 c 0,15,16
 386 723 386 723 389.5 685.5 c 128,-1,17
 393 648 393 648 403 616.5 c 128,-1,18
 413 585 413 585 433 570.5 c 128,-1,19
 453 556 453 556 485 556 c 0,0,1
534 -153 m 0,20,21
 617 -153 617 -153 655.5 -134 c 128,-1,22
 694 -115 694 -115 697 -71 c 1,23,24
 698 -63 698 -63 698 -56 c 0,25,26
 698 -14 698 -14 673 6 c 0,27,28
 644 30 644 30 568 38 c 2,29,-1
 385 57 l 1,30,31
 332 -13 332 -13 332 -66 c 0,32,33
 332 -112 332 -112 374 -132.5 c 128,-1,34
 416 -153 416 -153 534 -153 c 0,20,21
535 -357 m 0,35,36
 476 -357 476 -357 429.5 -355 c 128,-1,37
 383 -353 383 -353 322 -346.5 c 128,-1,38
 261 -340 261 -340 217 -325 c 128,-1,39
 173 -310 173 -310 132.5 -287.5 c 128,-1,40
 92 -265 92 -265 70.5 -228 c 128,-1,41
 49 -191 49 -191 49 -143 c 0,42,43
 49 -11 49 -11 216 99 c 1,44,45
 147 124 147 124 115 157 c 128,-1,46
 83 190 83 190 78 233 c 0,47,48
 76 247 76 247 76 259 c 0,49,50
 76 308 76 308 104 348 c 0,51,52
 139 398 139 398 218 461 c 1,53,54
 154 509 154 509 121 581 c 128,-1,55
 88 653 88 653 88 770 c 0,56,57
 88 989 88 989 190 1096 c 128,-1,58
 292 1203 292 1203 480 1203 c 128,-1,59
 668 1203 668 1203 743 1095 c 1,60,61
 816 1179 816 1179 903 1223 c 2,62,-1
 945 1244 l 1,63,-1
 1017 1083 l 1,64,65
 984 1074 984 1074 916.5 1046 c 128,-1,66
 849 1018 849 1018 817 999 c 1,67,68
 839 964 839 964 855 902 c 128,-1,69
 871 840 871 840 871 770 c 0,70,71
 871 578 871 578 780 471 c 128,-1,72
 689 364 689 364 498 364 c 0,73,74
 458 364 458 364 405.5 373.5 c 128,-1,75
 353 383 353 383 328 394 c 1,76,77
 294 350 294 350 294 320 c 0,78,79
 294 317 294 317 294 314 c 0,80,81
 298 280 298 280 402 267 c 1,82,83
 421 263 421 263 514 252.5 c 128,-1,84
 607 242 607 242 639 237 c 1,85,86
 800 218 800 218 869.5 149 c 128,-1,87
 939 80 939 80 939 -49 c 0,88,89
 939 -201 939 -201 846 -279 c 128,-1,90
 753 -357 753 -357 535 -357 c 0,35,36
EndSplineSet
EndChar

StartChar: h
Encoding: 104 104 72
Width: 1014
GlyphClass: 2
Flags: W
LayerCount: 2
UndoRedoHistory
Layer: 1
Undoes
EndUndoes
Redoes
EndRedoes
EndUndoRedoHistory
Fore
SplineSet
108 0 m 1,0,-1
 108 1658 l 1,1,-1
 418 1658 l 1,2,-1
 418 1074 l 1,3,4
 550 1203 550 1203 709 1203 c 0,5,6
 812 1203 812 1203 864 1127.5 c 128,-1,7
 916 1052 916 1052 916 937 c 2,8,-1
 916 0 l 1,9,-1
 607 0 l 1,10,-1
 607 882 l 2,11,12
 607 931 607 931 592 955 c 0,13,14
 578 978 578 978 538 978 c 0,15,16
 536 978 536 978 535 978 c 1,17,18
 488 978 488 978 418 928 c 1,19,-1
 418 0 l 1,20,-1
 108 0 l 1,0,-1
EndSplineSet
EndChar

StartChar: i
Encoding: 105 105 73
Width: 529
GlyphClass: 2
Flags: W
AnchorPoint: "Anchor-0" 246 0 basechar 0
LayerCount: 2
UndoRedoHistory
Layer: 1
Undoes
EndUndoes
Redoes
EndRedoes
EndUndoRedoHistory
Fore
SplineSet
110 1378 m 1,0,-1
 110 1613 l 1,1,-1
 421 1613 l 1,2,-1
 421 1378 l 1,3,-1
 110 1378 l 1,0,-1
111 0 m 1,4,-1
 111 1184 l 1,5,-1
 420 1184 l 1,6,-1
 420 0 l 1,7,-1
 111 0 l 1,4,-1
EndSplineSet
EndChar

StartChar: j
Encoding: 106 106 74
Width: 544
GlyphClass: 2
Flags: W
LayerCount: 2
UndoRedoHistory
Layer: 1
Undoes
EndUndoes
Redoes
EndRedoes
EndUndoRedoHistory
Fore
SplineSet
132 1378 m 1,0,-1
 132 1613 l 1,1,-1
 443 1613 l 1,2,-1
 443 1378 l 1,3,-1
 132 1378 l 1,0,-1
-24 -325 m 1,4,-1
 -24 -103 l 1,5,6
 16 -110 16 -110 35 -110 c 0,7,8
 133 -110 133 -110 133 -2 c 2,9,-1
 133 1184 l 1,10,-1
 442 1184 l 1,11,-1
 442 -38 l 2,12,13
 442 -180 442 -180 362.5 -264 c 128,-1,14
 283 -348 283 -348 139 -348 c 0,15,16
 55 -348 55 -348 -24 -325 c 1,4,-1
EndSplineSet
EndChar

StartChar: k
Encoding: 107 107 75
Width: 1051
GlyphClass: 2
Flags: W
LayerCount: 2
UndoRedoHistory
Layer: 1
Undoes
EndUndoes
Redoes
EndRedoes
EndUndoRedoHistory
Fore
SplineSet
108 1 m 1,0,-1
 108 1659 l 1,1,-1
 415 1659 l 1,2,-1
 415 727 l 1,3,-1
 705 1184 l 1,4,-1
 1048 1184 l 1,5,-1
 746 704 l 1,6,-1
 1044 0 l 1,7,-1
 712 0 l 1,8,-1
 504 571 l 1,9,-1
 415 452 l 1,10,-1
 415 1 l 1,11,-1
 108 1 l 1,0,-1
EndSplineSet
EndChar

StartChar: l
Encoding: 108 108 76
Width: 542
GlyphClass: 2
Flags: W
LayerCount: 2
UndoRedoHistory
Layer: 1
Undoes
EndUndoes
Redoes
EndRedoes
EndUndoRedoHistory
Fore
SplineSet
121 0 m 1,0,-1
 121 1658 l 1,1,-1
 431 1658 l 1,2,-1
 431 0 l 1,3,-1
 121 0 l 1,0,-1
EndSplineSet
EndChar

StartChar: m
Encoding: 109 109 77
Width: 1509
GlyphClass: 2
Flags: W
LayerCount: 2
UndoRedoHistory
Layer: 1
Undoes
EndUndoes
Redoes
EndRedoes
EndUndoRedoHistory
Fore
SplineSet
106 0 m 1,0,-1
 106 1184 l 1,1,-1
 405 1184 l 1,2,-1
 405 1085 l 1,3,4
 525 1206 525 1206 686 1206 c 0,5,6
 756 1206 756 1206 808 1170 c 128,-1,7
 860 1134 860 1134 886 1063 c 1,8,9
 1012 1206 1012 1206 1187 1206 c 0,10,11
 1289 1206 1289 1206 1350 1131.5 c 128,-1,12
 1411 1057 1411 1057 1411 922 c 2,13,-1
 1411 0 l 1,14,-1
 1111 0 l 1,15,-1
 1111 893 l 2,16,17
 1111 948 1111 948 1092 972.5 c 128,-1,18
 1073 997 1073 997 1035 995 c 1,19,20
 973 995 973 995 908 941 c 1,21,22
 909 935 909 935 909 922 c 2,23,-1
 909 0 l 1,24,-1
 611 0 l 1,25,-1
 611 893 l 2,26,27
 612 948 612 948 592 972 c 0,28,29
 574 995 574 995 539 995 c 0,30,31
 536 995 536 995 533 995 c 1,32,33
 475 995 475 995 405 939 c 1,34,-1
 405 0 l 1,35,-1
 106 0 l 1,0,-1
EndSplineSet
EndChar

StartChar: n
Encoding: 110 110 78
Width: 1008
GlyphClass: 2
Flags: W
LayerCount: 2
UndoRedoHistory
Layer: 1
Undoes
EndUndoes
Redoes
EndRedoes
EndUndoRedoHistory
Fore
SplineSet
106 0 m 1,0,-1
 106 1184 l 1,1,-1
 415 1184 l 1,2,-1
 415 1067 l 1,3,4
 558 1203 558 1203 703 1203 c 0,5,6
 806 1203 806 1203 858 1127.5 c 128,-1,7
 910 1052 910 1052 910 937 c 2,8,-1
 910 0 l 1,9,-1
 600 0 l 1,10,-1
 600 882 l 2,11,12
 600 931 600 931 585 955 c 128,-1,13
 570 979 570 979 529 978 c 1,14,15
 481 978 481 978 415 931 c 1,16,-1
 415 0 l 1,17,-1
 106 0 l 1,0,-1
EndSplineSet
EndChar

StartChar: o
Encoding: 111 111 79
Width: 962
GlyphClass: 2
Flags: W
AnchorPoint: "Anchor-0" 421 0 basechar 0
LayerCount: 2
UndoRedoHistory
Layer: 1
Undoes
EndUndoes
Redoes
EndRedoes
EndUndoRedoHistory
Fore
SplineSet
479 -20 m 0,0,1
 287 -20 287 -20 185 83.5 c 128,-1,2
 83 187 83 187 83 381 c 2,3,-1
 83 803 l 2,4,5
 83 996 83 996 185 1099.5 c 128,-1,6
 287 1203 287 1203 479 1203 c 0,7,8
 672 1203 672 1203 775.5 1099.5 c 128,-1,9
 879 996 879 996 879 803 c 2,10,-1
 879 381 l 2,11,12
 879 188 879 188 775.5 84 c 128,-1,13
 672 -20 672 -20 479 -20 c 0,0,1
480 192 m 0,14,15
 535 192 535 192 554 234.5 c 128,-1,16
 573 277 573 277 573 359 c 2,17,-1
 573 824 l 2,18,19
 573 907 573 907 554 949.5 c 128,-1,20
 535 992 535 992 480 992 c 0,21,22
 426 992 426 992 407.5 948.5 c 128,-1,23
 389 905 389 905 389 824 c 2,24,-1
 389 359 l 2,25,26
 389 278 389 278 407.5 235 c 128,-1,27
 426 192 426 192 480 192 c 0,14,15
EndSplineSet
EndChar

StartChar: p
Encoding: 112 112 80
Width: 1008
GlyphClass: 2
Flags: W
LayerCount: 2
UndoRedoHistory
Layer: 1
Undoes
EndUndoes
Redoes
EndRedoes
EndUndoRedoHistory
Fore
SplineSet
520 190 m 0,0,1
 555 190 555 190 576 215 c 128,-1,2
 597 240 597 240 604 276.5 c 128,-1,3
 611 313 611 313 611 365 c 2,4,-1
 611 850 l 2,5,6
 610 919 610 919 588 963 c 0,7,8
 567 1004 567 1004 521 1004 c 0,9,10
 518 1004 518 1004 515 1004 c 1,11,12
 472 1003 472 1003 415 962 c 1,13,-1
 415 223 l 1,14,15
 467 191 467 191 520 190 c 0,0,1
106 -390 m 1,16,-1
 106 1184 l 1,17,-1
 415 1184 l 1,18,-1
 415 1095 l 1,19,20
 531 1203 531 1203 657 1203 c 0,21,22
 660 1203 660 1203 664 1203 c 0,23,24
 735 1202 735 1202 787.5 1167.5 c 128,-1,25
 840 1133 840 1133 867.5 1077 c 128,-1,26
 895 1021 895 1021 908 960 c 128,-1,27
 921 899 921 899 921 831 c 2,28,-1
 921 378 l 2,29,30
 921 200 921 200 853.5 90 c 128,-1,31
 786 -20 786 -20 652 -20 c 0,32,33
 534 -20 534 -20 415 89 c 1,34,-1
 415 -390 l 1,35,-1
 106 -390 l 1,16,-1
EndSplineSet
EndChar

StartChar: q
Encoding: 113 113 81
Width: 1005
GlyphClass: 2
Flags: W
LayerCount: 2
UndoRedoHistory
Layer: 1
Undoes
EndUndoes
Redoes
EndRedoes
EndUndoRedoHistory
Fore
SplineSet
493 188 m 0,0,1
 534 188 534 188 592 221 c 1,2,-1
 592 967 l 1,3,4
 538 999 538 999 493 999 c 0,5,6
 444 999 444 999 420.5 956.5 c 128,-1,7
 397 914 397 914 397 847 c 2,8,-1
 397 355 l 2,9,10
 397 188 397 188 493 188 c 0,0,1
592 -390 m 1,11,-1
 592 90 l 1,12,13
 483 -19 483 -19 368 -20 c 1,14,15
 87 -20 87 -20 87 376 c 2,16,-1
 87 795 l 2,17,18
 87 979 87 979 155.5 1091 c 128,-1,19
 224 1203 224 1203 366 1203 c 0,20,21
 485 1203 485 1203 592 1106 c 1,22,-1
 592 1184 l 1,23,-1
 901 1184 l 1,24,-1
 901 -390 l 1,25,-1
 592 -390 l 1,11,-1
EndSplineSet
EndChar

StartChar: r
Encoding: 114 114 82
Width: 738
GlyphClass: 2
Flags: W
LayerCount: 2
UndoRedoHistory
Layer: 1
Undoes
EndUndoes
Redoes
EndRedoes
EndUndoRedoHistory
Fore
SplineSet
110 0 m 1,0,-1
 110 1184 l 1,1,-1
 419 1184 l 1,2,-1
 419 994 l 1,3,4
 529 1199 529 1199 661 1199 c 0,5,6
 682 1199 682 1199 706 1192 c 1,7,-1
 706 905 l 1,8,9
 672 917 672 917 633 917 c 1,10,11
 566 914 566 914 515.5 882.5 c 128,-1,12
 465 851 465 851 419 783 c 1,13,-1
 419 0 l 1,14,-1
 110 0 l 1,0,-1
EndSplineSet
EndChar

StartChar: s
Encoding: 115 115 83
Width: 841
GlyphClass: 2
Flags: W
AnchorPoint: "Anchor-1" 460 0 basechar 0
LayerCount: 2
UndoRedoHistory
Layer: 1
Undoes
EndUndoes
Redoes
EndRedoes
EndUndoRedoHistory
Fore
SplineSet
435 -20 m 0,0,1
 139 -20 139 -20 41 287 c 1,2,-1
 264 377 l 1,3,4
 321 194 321 194 425 194 c 0,5,6
 429 194 429 194 433 194 c 0,7,8
 471 196 471 196 495 222 c 0,9,10
 517 246 517 246 517 280 c 0,11,12
 517 283 517 283 517 286 c 0,13,14
 515 339 515 339 378 456 c 2,15,-1
 256 560 l 2,16,17
 70 718 70 718 70 880 c 0,18,19
 70 1024 70 1024 172 1114 c 0,20,21
 272 1203 272 1203 421 1203 c 0,22,23
 563 1203 563 1203 655.5 1121.5 c 128,-1,24
 748 1040 748 1040 782 897 c 1,25,-1
 580 807 l 1,26,27
 562 880 562 880 525.5 931.5 c 128,-1,28
 489 983 489 983 437 984 c 1,29,30
 434 984 434 984 431 984 c 0,31,32
 395 984 395 984 373 962 c 0,33,34
 349 938 349 938 348 905 c 0,35,36
 347 882 347 882 369.5 850.5 c 128,-1,37
 392 819 392 819 413.5 798.5 c 128,-1,38
 435 778 435 778 481 738 c 1,39,-1
 603 628 l 1,40,41
 640 596 640 596 661.5 575.5 c 128,-1,42
 683 555 683 555 713.5 520 c 128,-1,43
 744 485 744 485 760.5 455 c 128,-1,44
 777 425 777 425 789.5 384 c 128,-1,45
 802 343 802 343 802 299 c 0,46,47
 802 199 802 199 751 125 c 128,-1,48
 700 51 700 51 618 15.5 c 128,-1,49
 536 -20 536 -20 435 -20 c 0,0,1
EndSplineSet
EndChar

StartChar: t
Encoding: 116 116 84
Width: 704
GlyphClass: 2
Flags: W
AnchorPoint: "Anchor-1" 430 0 basechar 0
LayerCount: 2
UndoRedoHistory
Layer: 1
Undoes
EndUndoes
Redoes
EndRedoes
EndUndoRedoHistory
Fore
SplineSet
439 -15 m 0,0,1
 367 -13 367 -13 314 8.5 c 128,-1,2
 261 30 261 30 229.5 64 c 128,-1,3
 198 98 198 98 179 150 c 128,-1,4
 160 202 160 202 153 255.5 c 128,-1,5
 146 309 146 309 146 378 c 2,6,-1
 146 981 l 1,7,-1
 32 981 l 1,8,-1
 32 1184 l 1,9,-1
 146 1184 l 1,10,-1
 146 1538 l 1,11,-1
 458 1538 l 1,12,-1
 458 1184 l 1,13,-1
 633 1184 l 1,14,-1
 633 981 l 1,15,-1
 458 981 l 1,16,-1
 458 337 l 2,17,18
 458 237 458 237 565 234 c 0,19,20
 568 234 568 234 572 234 c 0,21,22
 604 234 604 234 652 242 c 1,23,-1
 652 0 l 1,24,25
 530 -15 530 -15 456 -15 c 0,26,27
 447 -15 447 -15 439 -15 c 0,0,1
EndSplineSet
EndChar

StartChar: u
Encoding: 117 117 85
Width: 1001
GlyphClass: 2
Flags: W
AnchorPoint: "Anchor-0" 708 0 basechar 0
LayerCount: 2
UndoRedoHistory
Layer: 1
Undoes
EndUndoes
Redoes
EndRedoes
EndUndoRedoHistory
Fore
SplineSet
303 -19 m 0,0,1
 200 -19 200 -19 148 56.5 c 128,-1,2
 96 132 96 132 96 247 c 2,3,-1
 96 1184 l 1,4,-1
 405 1184 l 1,5,-1
 405 295 l 2,6,7
 406 246 406 246 422 222 c 0,8,9
 438 198 438 198 476 198 c 0,10,11
 478 198 478 198 479 198 c 0,12,13
 525 199 525 199 585 240 c 1,14,-1
 585 1184 l 1,15,-1
 895 1184 l 1,16,-1
 895 0 l 1,17,-1
 585 0 l 1,18,-1
 585 110 l 1,19,20
 448 -19 448 -19 303 -19 c 0,0,1
EndSplineSet
EndChar

StartChar: v
Encoding: 118 118 86
Width: 846
GlyphClass: 2
Flags: W
LayerCount: 2
UndoRedoHistory
Layer: 1
Undoes
EndUndoes
Redoes
EndRedoes
EndUndoRedoHistory
Fore
SplineSet
257 0 m 1,0,-1
 24 1184 l 1,1,-1
 323 1184 l 1,2,-1
 429 381 l 1,3,-1
 531 1184 l 1,4,-1
 827 1184 l 1,5,-1
 592 0 l 1,6,-1
 257 0 l 1,0,-1
EndSplineSet
EndChar

StartChar: w
Encoding: 119 119 87
Width: 1221
GlyphClass: 2
Flags: W
LayerCount: 2
UndoRedoHistory
Layer: 1
Undoes
EndUndoes
Redoes
EndRedoes
EndUndoRedoHistory
Fore
SplineSet
224 0 m 1,0,-1
 47 1184 l 1,1,-1
 304 1184 l 1,2,-1
 397 469 l 1,3,-1
 505 1184 l 1,4,-1
 730 1184 l 1,5,-1
 828 459 l 1,6,-1
 932 1184 l 1,7,-1
 1175 1184 l 1,8,-1
 991 0 l 1,9,-1
 728 0 l 1,10,-1
 613 698 l 1,11,-1
 490 0 l 1,12,-1
 224 0 l 1,0,-1
EndSplineSet
EndChar

StartChar: x
Encoding: 120 120 88
Width: 878
GlyphClass: 2
Flags: W
LayerCount: 2
UndoRedoHistory
Layer: 1
Undoes
EndUndoes
Redoes
EndRedoes
EndUndoRedoHistory
Fore
SplineSet
19 0 m 1,0,-1
 273 642 l 1,1,-1
 29 1184 l 1,2,-1
 337 1184 l 1,3,-1
 475 881 l 1,4,-1
 594 1184 l 1,5,-1
 846 1184 l 1,6,-1
 602 597 l 1,7,-1
 871 0 l 1,8,-1
 562 0 l 1,9,-1
 409 340 l 1,10,-1
 284 0 l 1,11,-1
 19 0 l 1,0,-1
EndSplineSet
EndChar

StartChar: y
Encoding: 121 121 89
Width: 888
GlyphClass: 2
Flags: W
LayerCount: 2
UndoRedoHistory
Layer: 1
Undoes
EndUndoes
Redoes
EndRedoes
EndUndoRedoHistory
Fore
SplineSet
126 -331 m 1,0,-1
 126 -113 l 1,1,2
 242 -113 242 -113 284 -90 c 0,3,4
 318 -71 318 -71 319 -18 c 0,5,6
 319 -6 319 -6 317 7 c 0,7,8
 310 58 310 58 275 188 c 1,9,10
 257 264 257 264 142 686 c 128,-1,11
 27 1108 27 1108 9 1184 c 1,12,-1
 305 1184 l 1,13,-1
 452 459 l 1,14,-1
 572 1184 l 1,15,-1
 868 1184 l 1,16,-1
 588 -63 l 1,17,18
 530 -331 530 -331 177 -331 c 0,19,20
 172 -331 172 -331 167 -331 c 1,21,-1
 126 -331 l 1,0,-1
EndSplineSet
EndChar

StartChar: z
Encoding: 122 122 90
Width: 780
GlyphClass: 2
Flags: W
LayerCount: 2
UndoRedoHistory
Layer: 1
Undoes
EndUndoes
Redoes
EndRedoes
EndUndoRedoHistory
Fore
SplineSet
69 0 m 1,0,-1
 69 201 l 1,1,-1
 402 957 l 1,2,-1
 97 957 l 1,3,-1
 97 1184 l 1,4,-1
 725 1184 l 1,5,-1
 725 1000 l 1,6,-1
 394 228 l 1,7,-1
 727 228 l 1,8,-1
 727 0 l 1,9,-1
 69 0 l 1,0,-1
EndSplineSet
EndChar

StartChar: braceleft
Encoding: 123 123 91
Width: 734
GlyphClass: 2
Flags: W
LayerCount: 2
UndoRedoHistory
Layer: 1
Undoes
EndUndoes
Redoes
EndRedoes
EndUndoRedoHistory
Fore
SplineSet
674 -401 m 1,0,1
 568 -401 568 -401 496 -393 c 128,-1,2
 424 -385 424 -385 372.5 -362.5 c 128,-1,3
 321 -340 321 -340 292.5 -311.5 c 128,-1,4
 264 -283 264 -283 248 -228.5 c 128,-1,5
 232 -174 232 -174 227.5 -118 c 128,-1,6
 223 -62 223 -62 223 31 c 2,7,-1
 223 231 l 2,8,9
 223 307 223 307 222 349.5 c 128,-1,10
 221 392 221 392 216 431 c 128,-1,11
 211 470 211 470 203.5 486.5 c 128,-1,12
 196 503 196 503 180 516 c 128,-1,13
 164 529 164 529 144.5 532 c 128,-1,14
 125 535 125 535 93 535 c 1,15,-1
 93 754 l 1,16,17
 125 754 125 754 144.5 757 c 128,-1,18
 164 760 164 760 180 773 c 128,-1,19
 196 786 196 786 203.5 802.5 c 128,-1,20
 211 819 211 819 216 857.5 c 128,-1,21
 221 896 221 896 222 939 c 128,-1,22
 223 982 223 982 223 1057 c 2,23,-1
 223 1257 l 2,24,25
 223 1326 223 1326 225.5 1372.5 c 128,-1,26
 228 1419 228 1419 235.5 1466 c 128,-1,27
 243 1513 243 1513 256 1542 c 128,-1,28
 269 1571 269 1571 293 1598.5 c 128,-1,29
 317 1626 317 1626 349 1641 c 128,-1,30
 381 1656 381 1656 428.5 1668 c 128,-1,31
 476 1680 476 1680 535.5 1684.5 c 128,-1,32
 595 1689 595 1689 674 1689 c 1,33,-1
 674 1477 l 1,34,35
 636 1477 636 1477 613 1474.5 c 128,-1,36
 590 1472 590 1472 571 1462 c 128,-1,37
 552 1452 552 1452 543 1438.5 c 128,-1,38
 534 1425 534 1425 527.5 1396 c 128,-1,39
 521 1367 521 1367 519.5 1333.5 c 128,-1,40
 518 1300 518 1300 518 1244 c 2,41,-1
 518 1020 l 2,42,43
 518 846 518 846 480 756 c 128,-1,44
 442 666 442 666 349 644 c 1,45,46
 442 623 442 623 480 533 c 128,-1,47
 518 443 518 443 518 269 c 2,48,-1
 518 45 l 2,49,50
 518 -22 518 -22 521 -59.5 c 128,-1,51
 524 -97 524 -97 532 -126 c 128,-1,52
 540 -155 540 -155 559 -167 c 128,-1,53
 578 -179 578 -179 603.5 -184 c 128,-1,54
 629 -189 629 -189 674 -189 c 1,55,-1
 674 -401 l 1,0,1
EndSplineSet
EndChar

StartChar: bar
Encoding: 124 124 92
Width: 529
GlyphClass: 2
Flags: W
LayerCount: 2
UndoRedoHistory
Layer: 1
Undoes
EndUndoes
Redoes
EndRedoes
EndUndoRedoHistory
Fore
SplineSet
134 -351 m 1,0,-1
 134 1658 l 1,1,-1
 396 1658 l 1,2,-1
 395 -351 l 1,3,-1
 134 -351 l 1,0,-1
EndSplineSet
EndChar

StartChar: braceright
Encoding: 125 125 93
Width: 756
GlyphClass: 2
Flags: W
LayerCount: 2
UndoRedoHistory
Layer: 1
Undoes
EndUndoes
Redoes
EndRedoes
EndUndoRedoHistory
Fore
SplineSet
82 -401 m 1,0,-1
 82 -189 l 1,1,2
 120 -189 120 -189 143 -186.5 c 128,-1,3
 166 -184 166 -184 185 -174 c 128,-1,4
 204 -164 204 -164 213.5 -150.5 c 128,-1,5
 223 -137 223 -137 229 -107.5 c 128,-1,6
 235 -78 235 -78 236.5 -44.5 c 128,-1,7
 238 -11 238 -11 238 45 c 2,8,-1
 238 269 l 2,9,10
 238 443 238 443 276.5 533 c 128,-1,11
 315 623 315 623 407 644 c 1,12,13
 315 666 315 666 276.5 756 c 128,-1,14
 238 846 238 846 238 1020 c 2,15,-1
 238 1244 l 2,16,17
 238 1300 238 1300 236.5 1333 c 128,-1,18
 235 1366 235 1366 229 1395.5 c 128,-1,19
 223 1425 223 1425 213.5 1438.5 c 128,-1,20
 204 1452 204 1452 185 1462 c 128,-1,21
 166 1472 166 1472 143 1474.5 c 128,-1,22
 120 1477 120 1477 82 1477 c 1,23,-1
 82 1689 l 1,24,25
 161 1689 161 1689 220.5 1684.5 c 128,-1,26
 280 1680 280 1680 327.5 1668 c 128,-1,27
 375 1656 375 1656 407.5 1641 c 128,-1,28
 440 1626 440 1626 463.5 1598.5 c 128,-1,29
 487 1571 487 1571 500.5 1542 c 128,-1,30
 514 1513 514 1513 521.5 1466 c 128,-1,31
 529 1419 529 1419 531.5 1372.5 c 128,-1,32
 534 1326 534 1326 534 1257 c 2,33,-1
 534 1057 l 2,34,35
 534 981 534 981 535 939 c 128,-1,36
 536 897 536 897 541 858 c 128,-1,37
 546 819 546 819 553 802.5 c 128,-1,38
 560 786 560 786 576 772.5 c 128,-1,39
 592 759 592 759 611.5 756.5 c 128,-1,40
 631 754 631 754 663 754 c 1,41,-1
 663 535 l 1,42,43
 631 535 631 535 612 532.5 c 128,-1,44
 593 530 593 530 576.5 516.5 c 128,-1,45
 560 503 560 503 553 486.5 c 128,-1,46
 546 470 546 470 541 431 c 128,-1,47
 536 392 536 392 535 349.5 c 128,-1,48
 534 307 534 307 534 231 c 2,49,-1
 534 31 l 2,50,51
 534 -38 534 -38 531.5 -84 c 128,-1,52
 529 -130 529 -130 521.5 -177 c 128,-1,53
 514 -224 514 -224 500.5 -253 c 128,-1,54
 487 -282 487 -282 463.5 -310 c 128,-1,55
 440 -338 440 -338 407.5 -353 c 128,-1,56
 375 -368 375 -368 327.5 -380 c 128,-1,57
 280 -392 280 -392 220.5 -396.5 c 128,-1,58
 161 -401 161 -401 82 -401 c 1,0,-1
EndSplineSet
EndChar

StartChar: asciitilde
Encoding: 126 126 94
Width: 975
GlyphClass: 2
Flags: W
LayerCount: 2
UndoRedoHistory
Layer: 1
Undoes
EndUndoes
Redoes
EndRedoes
EndUndoRedoHistory
Fore
SplineSet
658 695 m 0,0,1
 610 695 610 695 543 725.5 c 128,-1,2
 476 756 476 756 415.5 786 c 128,-1,3
 355 816 355 816 322 816 c 0,4,5
 296 816 296 816 254.5 790 c 128,-1,6
 213 764 213 764 179 723 c 1,7,-1
 79 856 l 1,8,9
 124 924 124 924 194.5 981 c 128,-1,10
 265 1038 265 1038 324 1038 c 0,11,12
 372 1038 372 1038 438.5 1008.5 c 128,-1,13
 505 979 505 979 564.5 949.5 c 128,-1,14
 624 920 624 920 656 920 c 0,15,16
 706 920 706 920 798 1014 c 1,17,-1
 906 897 l 1,18,19
 867 821 867 821 795 758 c 128,-1,20
 723 695 723 695 658 695 c 0,0,1
EndSplineSet
EndChar

StartChar: exclamdown
Encoding: 161 161 96
Width: 471
GlyphClass: 2
Flags: W
LayerCount: 2
UndoRedoHistory
Layer: 1
Undoes
EndUndoes
Redoes
EndRedoes
EndUndoRedoHistory
Fore
SplineSet
97 1035 m 1,0,-1
 97 1327 l 1,1,-1
 392 1327 l 1,2,-1
 392 1035 l 1,3,-1
 97 1035 l 1,0,-1
80 -327 m 1,4,-1
 189 923 l 1,5,-1
 297 923 l 1,6,-1
 388 -327 l 1,7,-1
 80 -327 l 1,4,-1
EndSplineSet
EndChar

StartChar: cent
Encoding: 162 162 97
Width: 898
GlyphClass: 2
Flags: W
LayerCount: 2
UndoRedoHistory
Layer: 1
Undoes
EndUndoes
Redoes
EndRedoes
EndUndoRedoHistory
Fore
SplineSet
417 -236 m 1,0,-1
 417 -17 l 1,1,2
 248 -1 248 -1 163.5 106.5 c 128,-1,3
 79 214 79 214 79 398 c 2,4,-1
 79 787 l 2,5,6
 79 971 79 971 164 1078 c 128,-1,7
 249 1185 249 1185 417 1201 c 1,8,-1
 417 1417 l 1,9,-1
 499 1417 l 1,10,-1
 499 1203 l 1,11,12
 679 1197 679 1197 767 1108 c 128,-1,13
 855 1019 855 1019 855 843 c 2,14,-1
 855 731 l 1,15,-1
 561 731 l 1,16,-1
 561 845 l 2,17,18
 561 922 561 922 541 952 c 128,-1,19
 521 982 521 982 476 982 c 0,20,21
 428 982 428 982 409 946 c 128,-1,22
 390 910 390 910 390 817 c 2,23,-1
 390 364 l 2,24,25
 390 271 390 271 410 237 c 128,-1,26
 430 203 430 203 476 203 c 0,27,28
 523 203 523 203 542 234.5 c 128,-1,29
 561 266 561 266 561 336 c 2,30,-1
 561 473 l 1,31,-1
 855 473 l 1,32,-1
 855 344 l 2,33,34
 855 -8 855 -8 499 -19 c 1,35,-1
 499 -236 l 1,36,-1
 417 -236 l 1,0,-1
EndSplineSet
EndChar

StartChar: sterling
Encoding: 163 163 98
Width: 958
GlyphClass: 2
Flags: W
LayerCount: 2
UndoRedoHistory
Layer: 1
Undoes
EndUndoes
Redoes
EndRedoes
EndUndoRedoHistory
Fore
SplineSet
31 0 m 1,0,-1
 31 170 l 1,1,-1
 152 228 l 1,2,-1
 152 670 l 1,3,-1
 31 670 l 1,4,-1
 31 910 l 1,5,-1
 152 910 l 1,6,-1
 152 1092 l 2,7,8
 152 1168 152 1168 155 1225.5 c 128,-1,9
 158 1283 158 1283 167.5 1347.5 c 128,-1,10
 177 1412 177 1412 194 1458 c 128,-1,11
 211 1504 211 1504 240 1548 c 128,-1,12
 269 1592 269 1592 309.5 1619 c 128,-1,13
 350 1646 350 1646 408.5 1662.5 c 128,-1,14
 467 1679 467 1679 541 1679 c 0,15,16
 644 1679 644 1679 715.5 1648 c 128,-1,17
 787 1617 787 1617 825.5 1557 c 128,-1,18
 864 1497 864 1497 880.5 1424 c 128,-1,19
 897 1351 897 1351 897 1253 c 2,20,-1
 897 1198 l 1,21,-1
 634 1198 l 1,22,23
 634 1240 634 1240 633 1267 c 128,-1,24
 632 1294 632 1294 627 1326.5 c 128,-1,25
 622 1359 622 1359 612.5 1377 c 128,-1,26
 603 1395 603 1395 585.5 1408 c 128,-1,27
 568 1421 568 1421 543 1421 c 0,28,29
 522 1421 522 1421 507 1412.5 c 128,-1,30
 492 1404 492 1404 482.5 1385.5 c 128,-1,31
 473 1367 473 1367 467 1347 c 128,-1,32
 461 1327 461 1327 458 1293 c 128,-1,33
 455 1259 455 1259 454 1231.5 c 128,-1,34
 453 1204 453 1204 453 1160 c 2,35,-1
 453 908 l 1,36,-1
 693 908 l 1,37,-1
 693 670 l 1,38,-1
 453 670 l 1,39,-1
 453 256 l 1,40,-1
 890 256 l 1,41,-1
 890 0 l 1,42,-1
 31 0 l 1,0,-1
EndSplineSet
EndChar

StartChar: currency
Encoding: 164 164 99
Width: 1138
GlyphClass: 2
Flags: W
LayerCount: 2
UndoRedoHistory
Layer: 1
Undoes
EndUndoes
Redoes
EndRedoes
EndUndoRedoHistory
Fore
SplineSet
569 521 m 128,-1,1
 710 521 710 521 807 622 c 128,-1,2
 904 723 904 723 904 866 c 128,-1,3
 904 1009 904 1009 807.5 1110 c 128,-1,4
 711 1211 711 1211 569 1211 c 0,5,6
 428 1211 428 1211 331.5 1110 c 128,-1,7
 235 1009 235 1009 235 866 c 128,-1,8
 235 723 235 723 331.5 622 c 128,-1,0
 428 521 428 521 569 521 c 128,-1,1
114 381 m 1,9,-1
 84 411 l 1,10,-1
 247 573 l 1,11,12
 136 697 136 697 136 866 c 128,-1,13
 136 1035 136 1035 247 1159 c 1,14,-1
 84 1321 l 1,15,-1
 114 1351 l 1,16,-1
 276 1189 l 1,17,18
 398 1304 398 1304 566 1304 c 0,19,20
 567 1304 567 1304 568.5 1304 c 129,-1,21
 570 1304 570 1304 572 1304 c 0,22,23
 740 1304 740 1304 862 1189 c 1,24,-1
 1024 1351 l 1,25,-1
 1054 1321 l 1,26,-1
 892 1159 l 1,27,28
 1002 1034 1002 1034 1002 866 c 0,29,30
 1002 697 1002 697 891 573 c 1,31,-1
 1054 411 l 1,32,-1
 1024 381 l 1,33,-1
 862 543 l 1,34,35
 740 428 740 428 572 428 c 0,36,37
 571 428 571 428 569.5 428 c 129,-1,38
 568 428 568 428 566 428 c 0,39,40
 398 428 398 428 276 543 c 1,41,-1
 114 381 l 1,9,-1
EndSplineSet
EndChar

StartChar: yen
Encoding: 165 165 100
Width: 968
GlyphClass: 2
Flags: W
LayerCount: 2
UndoRedoHistory
Layer: 1
Undoes
EndUndoes
Redoes
EndRedoes
EndUndoRedoHistory
Fore
SplineSet
333 0 m 1,0,-1
 333 242 l 1,1,-1
 162 242 l 1,2,-1
 162 406 l 1,3,-1
 333 406 l 1,4,-1
 333 537 l 1,5,-1
 162 537 l 1,6,-1
 162 704 l 1,7,-1
 296 704 l 1,8,-1
 7 1658 l 1,9,-1
 324 1658 l 1,10,-1
 503 991 l 1,11,-1
 670 1658 l 1,12,-1
 979 1658 l 1,13,-1
 693 704 l 1,14,-1
 828 704 l 1,15,-1
 828 537 l 1,16,-1
 656 537 l 1,17,-1
 656 406 l 1,18,-1
 828 406 l 1,19,-1
 828 242 l 1,20,-1
 656 242 l 1,21,-1
 656 0 l 1,22,-1
 333 0 l 1,0,-1
EndSplineSet
EndChar

StartChar: brokenbar
Encoding: 166 166 101
Width: 444
GlyphClass: 2
Flags: W
LayerCount: 2
UndoRedoHistory
Layer: 1
Undoes
EndUndoes
Redoes
EndRedoes
EndUndoRedoHistory
Fore
SplineSet
111 824 m 1,0,-1
 111 1658 l 1,1,-1
 333 1658 l 1,2,-1
 333 824 l 1,3,-1
 111 824 l 1,0,-1
111 -351 m 1,4,-1
 111 483 l 1,5,-1
 333 483 l 1,6,-1
 333 -351 l 1,7,-1
 111 -351 l 1,4,-1
EndSplineSet
EndChar

StartChar: section
Encoding: 167 167 102
Width: 949
GlyphClass: 2
Flags: W
LayerCount: 2
UndoRedoHistory
Layer: 1
Undoes
EndUndoes
Redoes
EndRedoes
EndUndoRedoHistory
Fore
SplineSet
516 726 m 1,0,1
 599 770 599 770 599 832 c 0,2,3
 599 893 599 893 536 932 c 2,4,-1
 439 991 l 1,5,6
 400 976 400 976 375 946 c 128,-1,7
 350 916 350 916 350 879 c 0,8,9
 350 855 350 855 362 831.5 c 128,-1,10
 374 808 374 808 394 796 c 2,11,-1
 516 726 l 1,0,1
469 -14 m 0,12,13
 317 -14 317 -14 224.5 76.5 c 128,-1,14
 132 167 132 167 95 316 c 1,15,-1
 307 375 l 1,16,17
 317 347 317 347 331.5 320.5 c 128,-1,18
 346 294 346 294 366.5 268 c 128,-1,19
 387 242 387 242 415 226.5 c 128,-1,20
 443 211 443 211 474 211 c 0,21,22
 528 211 528 211 559.5 237 c 128,-1,23
 591 263 591 263 593 310 c 0,24,25
 593 313 593 313 593 316 c 0,26,27
 593 364 593 364 564 402 c 0,28,29
 533 442 533 442 458 487 c 2,30,-1
 262 607 l 2,31,32
 181 656 181 656 137 720 c 0,33,34
 97 778 97 778 97 861 c 0,35,36
 97 868 97 868 97 876 c 0,37,38
 101 967 101 967 150 1032 c 128,-1,39
 199 1097 199 1097 272 1123 c 1,40,41
 200 1164 200 1164 146 1234.5 c 128,-1,42
 92 1305 92 1305 89 1386 c 0,43,44
 89 1393 89 1393 89 1400 c 0,45,46
 89 1490 89 1490 136 1558 c 0,47,48
 187 1632 187 1632 274 1668 c 128,-1,49
 361 1704 361 1704 470 1704 c 0,50,51
 624 1704 624 1704 721 1612 c 128,-1,52
 818 1520 818 1520 853 1370 c 1,53,-1
 645 1314 l 1,54,55
 634 1348 634 1348 621.5 1374.5 c 128,-1,56
 609 1401 609 1401 589.5 1427.5 c 128,-1,57
 570 1454 570 1454 541 1468.5 c 128,-1,58
 512 1483 512 1483 477 1483 c 0,59,60
 427 1482 427 1482 398 1456.5 c 128,-1,61
 369 1431 369 1431 369 1383 c 0,62,63
 369 1358 369 1358 379.5 1336 c 128,-1,64
 390 1314 390 1314 410.5 1296 c 128,-1,65
 431 1278 431 1278 444 1269 c 128,-1,66
 457 1260 457 1260 480 1247 c 1,67,-1
 668 1130 l 2,68,69
 842 1022 842 1022 842 849 c 0,70,71
 842 764 842 764 801 705 c 128,-1,72
 760 646 760 646 684 598 c 1,73,74
 766 532 766 532 807.5 467.5 c 128,-1,75
 849 403 849 403 849 318 c 0,76,77
 849 166 849 166 747.5 76 c 128,-1,78
 646 -14 646 -14 469 -14 c 0,12,13
EndSplineSet
EndChar

StartChar: dieresis
Encoding: 168 168 103
Width: 859
GlyphClass: 2
Flags: W
LayerCount: 2
UndoRedoHistory
Layer: 1
Undoes
EndUndoes
Redoes
EndRedoes
EndUndoRedoHistory
Fore
SplineSet
509 1372 m 1,0,-1
 509 1658 l 1,1,-1
 770 1658 l 1,2,-1
 770 1372 l 1,3,-1
 509 1372 l 1,0,-1
89 1372 m 1,4,-1
 89 1658 l 1,5,-1
 350 1658 l 1,6,-1
 350 1372 l 1,7,-1
 89 1372 l 1,4,-1
EndSplineSet
EndChar

StartChar: copyright
Encoding: 169 169 104
Width: 1797
GlyphClass: 2
Flags: W
LayerCount: 2
UndoRedoHistory
Layer: 1
Undoes
EndUndoes
Redoes
EndRedoes
EndUndoRedoHistory
Fore
SplineSet
899 -25 m 128,-1,1
 730 -25 730 -25 591 25 c 128,-1,2
 452 75 452 75 359 158.5 c 128,-1,3
 266 242 266 242 202 354 c 128,-1,4
 138 466 138 466 109.5 586.5 c 128,-1,5
 81 707 81 707 81 835 c 128,-1,6
 81 963 81 963 109.5 1084 c 128,-1,7
 138 1205 138 1205 202 1317 c 128,-1,8
 266 1429 266 1429 359 1512 c 128,-1,9
 452 1595 452 1595 591 1645 c 128,-1,10
 730 1695 730 1695 899 1695 c 128,-1,11
 1068 1695 1068 1695 1206.5 1645 c 128,-1,12
 1345 1595 1345 1595 1438 1512 c 128,-1,13
 1531 1429 1531 1429 1595 1317 c 128,-1,14
 1659 1205 1659 1205 1687.5 1084 c 128,-1,15
 1716 963 1716 963 1716 835 c 128,-1,16
 1716 707 1716 707 1687.5 586 c 128,-1,17
 1659 465 1659 465 1595.5 353 c 128,-1,18
 1532 241 1532 241 1439 158 c 128,-1,19
 1346 75 1346 75 1207 25 c 128,-1,0
 1068 -25 1068 -25 899 -25 c 128,-1,1
903 60 m 0,20,21
 1048 60 1048 60 1169 103.5 c 128,-1,22
 1290 147 1290 147 1373 220.5 c 128,-1,23
 1456 294 1456 294 1513 394 c 128,-1,24
 1570 494 1570 494 1596.5 604.5 c 128,-1,25
 1623 715 1623 715 1623 834 c 0,26,27
 1623 954 1623 954 1596.5 1064.5 c 128,-1,28
 1570 1175 1570 1175 1513 1274 c 128,-1,29
 1456 1373 1456 1373 1373 1446 c 128,-1,30
 1290 1519 1290 1519 1169.5 1561.5 c 128,-1,31
 1049 1604 1049 1604 903 1604 c 128,-1,32
 757 1604 757 1604 636 1561.5 c 128,-1,33
 515 1519 515 1519 432 1446 c 128,-1,34
 349 1373 349 1373 292 1274 c 128,-1,35
 235 1175 235 1175 208.5 1064.5 c 128,-1,36
 182 954 182 954 182 834 c 0,37,38
 182 715 182 715 208.5 604.5 c 128,-1,39
 235 494 235 494 292 394 c 128,-1,40
 349 294 349 294 432 220.5 c 128,-1,41
 515 147 515 147 636 103.5 c 128,-1,42
 757 60 757 60 903 60 c 0,20,21
900 254 m 0,43,44
 684 254 684 254 577 362 c 128,-1,45
 470 470 470 470 470 669 c 2,46,-1
 470 1017 l 2,47,48
 470 1215 470 1215 577 1322.5 c 128,-1,49
 684 1430 684 1430 900 1430 c 0,50,51
 1315 1430 1315 1430 1315 1074 c 2,52,-1
 1315 974 l 1,53,-1
 998 974 l 1,54,-1
 998 1075 l 2,55,56
 998 1153 998 1153 975 1183.5 c 128,-1,57
 952 1214 952 1214 902 1214 c 0,58,59
 849 1214 849 1214 826.5 1177 c 128,-1,60
 804 1140 804 1140 804 1047 c 2,61,-1
 804 634 l 2,62,63
 804 541 804 541 827.5 506 c 128,-1,64
 851 471 851 471 902 471 c 0,65,66
 954 471 954 471 976 504 c 128,-1,67
 998 537 998 537 998 606 c 2,68,-1
 998 722 l 1,69,-1
 1315 722 l 1,70,-1
 1315 615 l 2,71,72
 1315 437 1315 437 1210 345.5 c 128,-1,73
 1105 254 1105 254 900 254 c 0,43,44
EndSplineSet
EndChar

StartChar: ordfeminine
Encoding: 170 170 105
Width: 974
GlyphClass: 2
Flags: W
LayerCount: 2
UndoRedoHistory
Layer: 1
Undoes
EndUndoes
Redoes
EndRedoes
EndUndoRedoHistory
Fore
SplineSet
474 836 m 0,0,1
 501 836 501 836 526.5 853 c 128,-1,2
 552 870 552 870 568 897 c 1,3,-1
 568 1148 l 1,4,5
 493 1112 493 1112 443.5 1053.5 c 128,-1,6
 394 995 394 995 394 936 c 0,7,8
 394 890 394 890 416 863 c 128,-1,9
 438 836 438 836 474 836 c 0,0,1
372 642 m 0,10,11
 260 643 260 643 194 713.5 c 128,-1,12
 128 784 128 784 128 882 c 0,13,14
 128 929 128 929 141 970.5 c 128,-1,15
 154 1012 154 1012 172.5 1042 c 128,-1,16
 191 1072 191 1072 224.5 1100 c 128,-1,17
 258 1128 258 1128 285 1145.5 c 128,-1,18
 312 1163 312 1163 357.5 1182.5 c 128,-1,19
 403 1202 403 1202 429 1211 c 128,-1,20
 455 1220 455 1220 503 1236 c 128,-1,21
 551 1252 551 1252 568 1258 c 1,22,-1
 568 1369 l 2,23,24
 568 1477 568 1477 503 1477 c 0,25,26
 461 1477 461 1477 445.5 1440.5 c 128,-1,27
 430 1404 430 1404 424 1319 c 1,28,-1
 160 1325 l 1,29,30
 161 1500 161 1500 256.5 1591.5 c 128,-1,31
 352 1683 352 1683 523 1683 c 0,32,33
 689 1683 689 1683 766.5 1591 c 128,-1,34
 844 1499 844 1499 844 1335 c 2,35,-1
 844 658 l 1,36,-1
 598 658 l 1,37,-1
 585 794 l 1,38,39
 558 727 558 727 503 684.5 c 128,-1,40
 448 642 448 642 372 642 c 0,10,11
EndSplineSet
EndChar

StartChar: guillemotleft
Encoding: 171 171 106
Width: 986
GlyphClass: 2
Flags: W
LayerCount: 2
UndoRedoHistory
Layer: 1
Undoes
EndUndoes
Redoes
EndRedoes
EndUndoRedoHistory
Fore
SplineSet
892 68 m 1,0,-1
 508 547 l 1,1,-1
 508 663 l 1,2,-1
 892 1143 l 1,3,-1
 892 826 l 1,4,-1
 700 605 l 1,5,-1
 892 384 l 1,6,-1
 892 68 l 1,0,-1
454 68 m 1,7,-1
 71 547 l 1,8,-1
 71 663 l 1,9,-1
 454 1143 l 1,10,-1
 454 826 l 1,11,-1
 262 605 l 1,12,-1
 454 384 l 1,13,-1
 454 68 l 1,7,-1
EndSplineSet
EndChar

StartChar: logicalnot
Encoding: 172 172 107
Width: 964
GlyphClass: 2
Flags: W
LayerCount: 2
UndoRedoHistory
Layer: 1
Undoes
EndUndoes
Redoes
EndRedoes
EndUndoRedoHistory
Fore
SplineSet
725 444 m 1,0,-1
 725 742 l 1,1,-1
 92 742 l 1,2,-1
 92 955 l 1,3,-1
 878 955 l 1,4,-1
 878 444 l 1,5,-1
 725 444 l 1,0,-1
EndSplineSet
EndChar

StartChar: uni00AD
Encoding: 173 173 108
Width: 748
GlyphClass: 2
Flags: W
LayerCount: 2
UndoRedoHistory
Layer: 1
Undoes
EndUndoes
Redoes
EndRedoes
EndUndoRedoHistory
Fore
SplineSet
129 670 m 1,0,-1
 129 875 l 1,1,-1
 631 875 l 1,2,-1
 631 670 l 1,3,-1
 129 670 l 1,0,-1
EndSplineSet
EndChar

StartChar: registered
Encoding: 174 174 109
Width: 1824
GlyphClass: 2
Flags: W
LayerCount: 2
UndoRedoHistory
Layer: 1
Undoes
EndUndoes
Redoes
EndRedoes
EndUndoRedoHistory
Fore
SplineSet
913 -28 m 128,-1,1
 745 -28 745 -28 606.5 22 c 128,-1,2
 468 72 468 72 375 155 c 128,-1,3
 282 238 282 238 218.5 349.5 c 128,-1,4
 155 461 155 461 126.5 581 c 128,-1,5
 98 701 98 701 98 828 c 0,6,7
 98 956 98 956 126.5 1076 c 128,-1,8
 155 1196 155 1196 218.5 1307.5 c 128,-1,9
 282 1419 282 1419 375 1502 c 128,-1,10
 468 1585 468 1585 606.5 1634.5 c 128,-1,11
 745 1684 745 1684 913 1684 c 128,-1,12
 1081 1684 1081 1684 1219 1634.5 c 128,-1,13
 1357 1585 1357 1585 1449.5 1502 c 128,-1,14
 1542 1419 1542 1419 1605.5 1307.5 c 128,-1,15
 1669 1196 1669 1196 1697.5 1076 c 128,-1,16
 1726 956 1726 956 1726 828 c 128,-1,17
 1726 700 1726 700 1698 580 c 128,-1,18
 1670 460 1670 460 1606.5 348.5 c 128,-1,19
 1543 237 1543 237 1450.5 154 c 128,-1,20
 1358 71 1358 71 1219.5 21.5 c 128,-1,0
 1081 -28 1081 -28 913 -28 c 128,-1,1
912 81 m 0,21,22
 1051 81 1051 81 1166.5 123 c 128,-1,23
 1282 165 1282 165 1361 236 c 128,-1,24
 1440 307 1440 307 1495 403 c 128,-1,25
 1550 499 1550 499 1575 606 c 128,-1,26
 1600 713 1600 713 1600 827 c 0,27,28
 1600 942 1600 942 1575 1048.5 c 128,-1,29
 1550 1155 1550 1155 1495 1250.5 c 128,-1,30
 1440 1346 1440 1346 1361 1417 c 128,-1,31
 1282 1488 1282 1488 1166.5 1529.5 c 128,-1,32
 1051 1571 1051 1571 912 1571 c 0,33,34
 772 1571 772 1571 655.5 1529.5 c 128,-1,35
 539 1488 539 1488 460 1417.5 c 128,-1,36
 381 1347 381 1347 326 1251 c 128,-1,37
 271 1155 271 1155 246 1048.5 c 128,-1,38
 221 942 221 942 221 827 c 0,39,40
 221 713 221 713 246 606.5 c 128,-1,41
 271 500 271 500 326 403.5 c 128,-1,42
 381 307 381 307 460 236 c 128,-1,43
 539 165 539 165 655.5 123 c 128,-1,44
 772 81 772 81 912 81 c 0,21,22
828 884 m 1,45,-1
 869 884 l 2,46,47
 962 884 962 884 999 923.5 c 128,-1,48
 1036 963 1036 963 1036 1049 c 0,49,50
 1036 1200 1036 1200 899 1200 c 2,51,-1
 828 1200 l 1,52,-1
 828 884 l 1,45,-1
573 313 m 1,53,-1
 573 1353 l 1,54,-1
 908 1353 l 2,55,56
 1094 1353 1094 1353 1186.5 1285.5 c 128,-1,57
 1279 1218 1279 1218 1279 1062 c 0,58,59
 1279 963 1279 963 1243.5 903 c 128,-1,60
 1208 843 1208 843 1126 804 c 1,61,-1
 1309 313 l 1,62,-1
 1043 313 l 1,63,-1
 896 754 l 1,64,-1
 828 754 l 1,65,-1
 828 313 l 1,66,-1
 573 313 l 1,53,-1
EndSplineSet
EndChar

StartChar: macron
Encoding: 175 175 110
Width: 422
GlyphClass: 2
Flags: W
LayerCount: 2
UndoRedoHistory
Layer: 1
Undoes
EndUndoes
Redoes
EndRedoes
EndUndoRedoHistory
Fore
SplineSet
-22 1505 m 1,0,-1
 -22 1658 l 1,1,-1
 466 1658 l 1,2,-1
 466 1505 l 1,3,-1
 -22 1505 l 1,0,-1
EndSplineSet
EndChar

StartChar: degree
Encoding: 176 176 111
Width: 1066
GlyphClass: 2
Flags: W
LayerCount: 2
UndoRedoHistory
Layer: 1
Undoes
EndUndoes
Redoes
EndRedoes
EndUndoRedoHistory
Fore
SplineSet
532 892 m 0,0,1
 350 892 350 892 242 999.5 c 128,-1,2
 134 1107 134 1107 134 1287 c 0,3,4
 134 1466 134 1466 242 1572.5 c 128,-1,5
 350 1679 350 1679 532 1679 c 128,-1,6
 714 1679 714 1679 823 1572.5 c 128,-1,7
 932 1466 932 1466 932 1287 c 0,8,9
 932 1107 932 1107 823.5 999.5 c 128,-1,10
 715 892 715 892 532 892 c 0,0,1
532 1068 m 128,-1,12
 624 1068 624 1068 676 1128.5 c 128,-1,13
 728 1189 728 1189 728 1286 c 128,-1,14
 728 1383 728 1383 676.5 1442.5 c 128,-1,15
 625 1502 625 1502 532 1502 c 0,16,17
 440 1502 440 1502 388.5 1443 c 128,-1,18
 337 1384 337 1384 337 1287 c 0,19,20
 337 1189 337 1189 388.5 1128.5 c 128,-1,11
 440 1068 440 1068 532 1068 c 128,-1,12
EndSplineSet
EndChar

StartChar: plusminus
Encoding: 177 177 112
Width: 930
GlyphClass: 2
Flags: W
LayerCount: 2
UndoRedoHistory
Layer: 1
Undoes
EndUndoes
Redoes
EndRedoes
EndUndoRedoHistory
Fore
SplineSet
129 0 m 1,0,-1
 129 197 l 1,1,-1
 802 197 l 1,2,-1
 802 0 l 1,3,-1
 129 0 l 1,0,-1
365 372 m 1,4,-1
 365 614 l 1,5,-1
 129 614 l 1,6,-1
 129 806 l 1,7,-1
 365 806 l 1,8,-1
 365 1048 l 1,9,-1
 566 1048 l 1,10,-1
 566 806 l 1,11,-1
 802 806 l 1,12,-1
 802 614 l 1,13,-1
 566 614 l 1,14,-1
 566 372 l 1,15,-1
 365 372 l 1,4,-1
EndSplineSet
EndChar

StartChar: uni00B2
Encoding: 178 178 113
Width: 890
GlyphClass: 2
Flags: W
LayerCount: 2
UndoRedoHistory
Layer: 1
Undoes
EndUndoes
Redoes
EndRedoes
EndUndoRedoHistory
Fore
SplineSet
151 620 m 1,0,-1
 151 794 l 1,1,-1
 438 1239 l 2,2,3
 448 1255 448 1255 472.5 1291 c 128,-1,4
 497 1327 497 1327 509.5 1347.5 c 128,-1,5
 522 1368 522 1368 538 1399.5 c 128,-1,6
 554 1431 554 1431 561 1461 c 128,-1,7
 568 1491 568 1491 568 1523 c 0,8,9
 568 1586 568 1586 543 1618 c 0,10,11
 521 1646 521 1646 483 1646 c 0,12,13
 477 1646 477 1646 471 1645 c 0,14,15
 437 1642 437 1642 415 1599.5 c 128,-1,16
 393 1557 393 1557 386 1509.5 c 128,-1,17
 379 1462 379 1462 379 1413 c 1,18,-1
 154 1413 l 1,19,-1
 154 1470 l 2,20,21
 154 1581 154 1581 185 1661 c 128,-1,22
 216 1741 216 1741 289.5 1789.5 c 128,-1,23
 363 1838 363 1838 474 1838 c 0,24,25
 627 1838 627 1838 710 1754.5 c 128,-1,26
 793 1671 793 1671 793 1521 c 0,27,28
 793 1489 793 1489 789 1459.5 c 128,-1,29
 785 1430 785 1430 774.5 1399.5 c 128,-1,30
 764 1369 764 1369 757 1349 c 128,-1,31
 750 1329 750 1329 730.5 1296 c 128,-1,32
 711 1263 711 1263 703.5 1250 c 128,-1,33
 696 1237 696 1237 671 1199.5 c 128,-1,34
 646 1162 646 1162 640 1152 c 2,35,-1
 416 804 l 1,36,-1
 761 804 l 1,37,-1
 761 620 l 1,38,-1
 151 620 l 1,0,-1
EndSplineSet
EndChar

StartChar: uni00B3
Encoding: 179 179 114
Width: 889
GlyphClass: 2
Flags: W
LayerCount: 2
UndoRedoHistory
Layer: 1
Undoes
EndUndoes
Redoes
EndRedoes
EndUndoRedoHistory
Fore
SplineSet
476 602 m 0,0,1
 293 602 293 602 217.5 698.5 c 128,-1,2
 142 795 142 795 142 982 c 2,3,-1
 142 1041 l 1,4,-1
 381 1041 l 1,5,-1
 381 977 l 2,6,7
 381 886 381 886 403.5 845.5 c 128,-1,8
 426 805 426 805 475 805 c 0,9,10
 525 805 525 805 547 842 c 128,-1,11
 569 879 569 879 569 956 c 0,12,13
 569 1048 569 1048 539 1097 c 128,-1,14
 509 1146 509 1146 439 1146 c 2,15,-1
 372 1146 l 1,16,-1
 372 1308 l 1,17,-1
 434 1308 l 2,18,19
 507 1308 507 1308 538 1358.5 c 128,-1,20
 569 1409 569 1409 569 1503 c 0,21,22
 569 1647 569 1647 472 1647 c 0,23,24
 381 1647 381 1647 381 1503 c 2,25,-1
 381 1412 l 1,26,-1
 142 1412 l 1,27,-1
 142 1504 l 2,28,29
 142 1661 142 1661 228.5 1749.5 c 128,-1,30
 315 1838 315 1838 469 1838 c 0,31,32
 629 1838 629 1838 715 1755 c 128,-1,33
 801 1672 801 1672 801 1509 c 0,34,35
 801 1410 801 1410 756.5 1335 c 128,-1,36
 712 1260 712 1260 654 1245 c 1,37,38
 801 1187 801 1187 801 972 c 0,39,40
 801 799 801 799 721 700.5 c 128,-1,41
 641 602 641 602 476 602 c 0,0,1
EndSplineSet
EndChar

StartChar: acute
Encoding: 180 180 115
Width: 623
GlyphClass: 2
Flags: W
LayerCount: 2
UndoRedoHistory
Layer: 1
Undoes
EndUndoes
Redoes
EndRedoes
EndUndoRedoHistory
Fore
SplineSet
113 1247 m 1,0,-1
 236 1658 l 1,1,-1
 552 1658 l 1,2,-1
 299 1247 l 1,3,-1
 113 1247 l 1,0,-1
EndSplineSet
EndChar

StartChar: mu
Encoding: 181 181 116
Width: 984
GlyphClass: 2
Flags: W
LayerCount: 2
UndoRedoHistory
Layer: 1
Undoes
EndUndoes
Redoes
EndRedoes
EndUndoRedoHistory
Fore
SplineSet
91 -377 m 1,0,-1
 90 1184 l 1,1,-1
 399 1184 l 1,2,-1
 399 302 l 2,3,4
 399 253 399 253 414 229 c 0,5,6
 428 206 428 206 468 206 c 0,7,8
 470 206 470 206 471 206 c 0,9,10
 513 206 513 206 577 248 c 1,11,-1
 577 1184 l 1,12,-1
 886 1184 l 1,13,-1
 886 0 l 1,14,-1
 577 0 l 1,15,-1
 577 99 l 1,16,17
 502 30 502 30 426 4 c 0,18,19
 411 -1 411 -1 400 -4 c 1,20,-1
 401 -377 l 1,21,-1
 91 -377 l 1,0,-1
EndSplineSet
EndChar

StartChar: paragraph
Encoding: 182 182 117
Width: 1053
GlyphClass: 2
Flags: W
LayerCount: 2
UndoRedoHistory
Layer: 1
Undoes
EndUndoes
Redoes
EndRedoes
EndUndoRedoHistory
Fore
SplineSet
391 -196 m 1,0,-1
 391 1015 l 1,1,2
 246 1017 246 1017 158.5 1101 c 128,-1,3
 71 1185 71 1185 71 1335 c 0,4,5
 71 1423 71 1423 101.5 1487.5 c 128,-1,6
 132 1552 132 1552 187 1588 c 128,-1,7
 242 1624 242 1624 310.5 1641 c 128,-1,8
 379 1658 379 1658 464 1658 c 2,9,-1
 917 1658 l 1,10,-1
 917 -196 l 1,11,-1
 738 -196 l 1,12,-1
 738 1490 l 1,13,-1
 579 1490 l 1,14,-1
 579 -196 l 1,15,-1
 391 -196 l 1,0,-1
EndSplineSet
EndChar

StartChar: periodcentered
Encoding: 183 183 118
Width: 431
GlyphClass: 2
Flags: W
LayerCount: 2
UndoRedoHistory
Layer: 1
Undoes
EndUndoes
Redoes
EndRedoes
EndUndoRedoHistory
Fore
SplineSet
69 625 m 1,0,-1
 69 916 l 1,1,-1
 364 916 l 1,2,-1
 364 625 l 1,3,-1
 69 625 l 1,0,-1
EndSplineSet
EndChar

StartChar: cedilla
Encoding: 184 184 119
Width: 558
GlyphClass: 4
Flags: W
AnchorPoint: "Anchor-1" 240 0 mark 0
LayerCount: 2
UndoRedoHistory
Layer: 1
Undoes
EndUndoes
Redoes
EndRedoes
EndUndoRedoHistory
Fore
SplineSet
96 -526 m 1,0,-1
 96 -388 l 1,1,2
 128 -397 128 -397 168 -401 c 0,3,4
 193 -403 193 -403 217 -403 c 0,5,6
 232 -402 232 -402 247 -402 c 0,7,8
 286 -400 286 -400 312.5 -384.5 c 128,-1,9
 339 -369 339 -369 339 -342 c 0,10,11
 339 -312 339 -312 322.5 -290 c 128,-1,12
 306 -268 306 -268 276 -254.5 c 128,-1,13
 246 -241 246 -241 217.5 -234 c 128,-1,14
 189 -227 189 -227 153 -222 c 1,15,-1
 153 0 l 1,16,-1
 276 0 l 1,17,-1
 276 -131 l 1,18,19
 387 -137 387 -137 465.5 -191 c 128,-1,20
 544 -245 544 -245 546 -330 c 0,21,22
 546 -333 546 -333 546 -337 c 0,23,24
 546 -407 546 -407 507 -457 c 0,25,26
 466 -509 466 -509 400 -530 c 0,27,28
 337 -550 337 -550 261 -550 c 0,29,30
 258 -550 258 -550 254 -550 c 0,31,32
 174 -549 174 -549 96 -526 c 1,0,-1
EndSplineSet
EndChar

StartChar: uni00B9
Encoding: 185 185 120
Width: 878
GlyphClass: 2
Flags: W
LayerCount: 2
UndoRedoHistory
Layer: 1
Undoes
EndUndoes
Redoes
EndRedoes
EndUndoRedoHistory
Fore
SplineSet
378 618 m 1,0,-1
 377 1557 l 1,1,-1
 171 1511 l 1,2,-1
 171 1683 l 1,3,4
 173 1684 173 1684 189.5 1689.5 c 128,-1,5
 206 1695 206 1695 214 1697.5 c 128,-1,6
 222 1700 222 1700 240.5 1706.5 c 128,-1,7
 259 1713 259 1713 270.5 1717.5 c 128,-1,8
 282 1722 282 1722 300.5 1730 c 128,-1,9
 319 1738 319 1738 331.5 1744.5 c 128,-1,10
 344 1751 344 1751 360 1759.5 c 128,-1,11
 376 1768 376 1768 387.5 1776.5 c 128,-1,12
 399 1785 399 1785 410 1794.5 c 128,-1,13
 421 1804 421 1804 429 1814 c 1,14,-1
 608 1814 l 1,15,-1
 608 618 l 1,16,-1
 378 618 l 1,0,-1
EndSplineSet
EndChar

StartChar: ordmasculine
Encoding: 186 186 121
Width: 974
GlyphClass: 2
Flags: W
LayerCount: 2
UndoRedoHistory
Layer: 1
Undoes
EndUndoes
Redoes
EndRedoes
EndUndoRedoHistory
Fore
SplineSet
484 837 m 0,0,1
 538 837 538 837 557 876.5 c 128,-1,2
 576 916 576 916 576 994 c 2,3,-1
 576 1330 l 2,4,5
 576 1408 576 1408 557 1447.5 c 128,-1,6
 538 1487 538 1487 484 1487 c 0,7,8
 432 1487 432 1487 412.5 1446.5 c 128,-1,9
 393 1406 393 1406 393 1330 c 2,10,-1
 393 994 l 2,11,12
 393 918 393 918 412.5 877.5 c 128,-1,13
 432 837 432 837 484 837 c 0,0,1
486 641 m 0,14,15
 319 641 319 641 229.5 729 c 128,-1,16
 140 817 140 817 140 984 c 2,17,-1
 140 1341 l 2,18,19
 140 1507 140 1507 229.5 1595 c 128,-1,20
 319 1683 319 1683 486 1683 c 0,21,22
 649 1683 649 1683 741.5 1593 c 128,-1,23
 834 1503 834 1503 834 1341 c 2,24,-1
 834 984 l 2,25,26
 834 821 834 821 741.5 731 c 128,-1,27
 649 641 649 641 486 641 c 0,14,15
EndSplineSet
EndChar

StartChar: guillemotright
Encoding: 187 187 122
Width: 1014
GlyphClass: 2
Flags: W
LayerCount: 2
UndoRedoHistory
Layer: 1
Undoes
EndUndoes
Redoes
EndRedoes
EndUndoRedoHistory
Fore
SplineSet
537 68 m 1,0,-1
 537 384 l 1,1,-1
 738 606 l 1,2,-1
 537 826 l 1,3,-1
 537 1143 l 1,4,-1
 930 663 l 1,5,-1
 930 547 l 1,6,-1
 537 68 l 1,0,-1
99 68 m 1,7,-1
 99 384 l 1,8,-1
 301 606 l 1,9,-1
 99 826 l 1,10,-1
 99 1143 l 1,11,-1
 493 663 l 1,12,-1
 493 547 l 1,13,-1
 99 68 l 1,7,-1
EndSplineSet
EndChar

StartChar: onequarter
Encoding: 188 188 123
Width: 1472
GlyphClass: 2
Flags: W
LayerCount: 2
UndoRedoHistory
Layer: 1
Undoes
EndUndoes
Redoes
EndRedoes
EndUndoRedoHistory
Fore
SplineSet
934 375 m 1,0,-1
 1085 375 l 1,1,-1
 1085 644 l 1,2,-1
 934 375 l 1,0,-1
265 0 m 1,3,-1
 972 1658 l 1,4,-1
 1147 1658 l 1,5,-1
 439 0 l 1,6,-1
 265 0 l 1,3,-1
229 828 m 1,7,-1
 229 1385 l 1,8,-1
 109 1343 l 1,9,-1
 109 1489 l 1,10,11
 248 1561 248 1561 326 1658 c 1,12,-1
 422 1658 l 1,13,-1
 422 828 l 1,14,-1
 229 828 l 1,7,-1
1085 1 m 1,15,-1
 1085 232 l 1,16,-1
 806 232 l 1,17,-1
 806 369 l 1,18,-1
 1102 866 l 1,19,-1
 1256 866 l 1,20,-1
 1256 375 l 1,21,-1
 1366 375 l 1,22,-1
 1366 232 l 1,23,-1
 1256 232 l 1,24,-1
 1256 1 l 1,25,-1
 1085 1 l 1,15,-1
EndSplineSet
EndChar

StartChar: onehalf
Encoding: 189 189 124
Width: 1472
GlyphClass: 2
Flags: W
LayerCount: 2
UndoRedoHistory
Layer: 1
Undoes
EndUndoes
Redoes
EndRedoes
EndUndoRedoHistory
Fore
SplineSet
233 0 m 1,0,-1
 940 1658 l 1,1,-1
 1116 1658 l 1,2,-1
 408 0 l 1,3,-1
 233 0 l 1,0,-1
190 828 m 1,4,-1
 190 1385 l 1,5,-1
 69 1343 l 1,6,-1
 69 1489 l 1,7,8
 210 1561 210 1561 286 1658 c 1,9,-1
 383 1658 l 1,10,-1
 383 828 l 1,11,-1
 190 828 l 1,4,-1
891 1 m 1,12,-1
 891 142 l 1,13,-1
 1078 406 l 2,14,15
 1082 412 1082 412 1099 435 c 128,-1,16
 1116 458 1116 458 1121.5 466.5 c 128,-1,17
 1127 475 1127 475 1140.5 495.5 c 128,-1,18
 1154 516 1154 516 1159.5 529 c 128,-1,19
 1165 542 1165 542 1172.5 560.5 c 128,-1,20
 1180 579 1180 579 1183 596 c 128,-1,21
 1186 613 1186 613 1186 630 c 0,22,23
 1186 722 1186 722 1122 722 c 0,24,25
 1082 722 1082 722 1066 680 c 0,26,27
 1055 651 1055 651 1055 613 c 0,28,29
 1055 596 1055 596 1057 577 c 1,30,-1
 880 577 l 1,31,32
 876 626 876 626 876 632 c 0,33,34
 878 738 878 738 941 800.5 c 128,-1,35
 1004 863 1004 863 1118 863 c 0,36,37
 1235 863 1235 863 1300.5 802.5 c 128,-1,38
 1366 742 1366 742 1366 632 c 0,39,40
 1366 590 1366 590 1355 549.5 c 128,-1,41
 1344 509 1344 509 1320 465.5 c 128,-1,42
 1296 422 1296 422 1275 391 c 128,-1,43
 1254 360 1254 360 1216 309 c 1,44,45
 1190 280 1190 280 1088 142 c 1,46,-1
 1354 142 l 1,47,-1
 1354 1 l 1,48,-1
 891 1 l 1,12,-1
EndSplineSet
EndChar

StartChar: threequarters
Encoding: 190 190 125
Width: 1472
GlyphClass: 2
Flags: W
LayerCount: 2
UndoRedoHistory
Layer: 1
Undoes
EndUndoes
Redoes
EndRedoes
EndUndoRedoHistory
Fore
SplineSet
966 375 m 1,0,-1
 1117 375 l 1,1,-1
 1117 644 l 1,2,-1
 966 375 l 1,0,-1
298 0 m 1,3,-1
 1005 1658 l 1,4,-1
 1180 1658 l 1,5,-1
 472 0 l 1,6,-1
 298 0 l 1,3,-1
1117 1 m 1,7,-1
 1117 232 l 1,8,-1
 838 232 l 1,9,-1
 838 369 l 1,10,-1
 1134 866 l 1,11,-1
 1288 866 l 1,12,-1
 1288 375 l 1,13,-1
 1398 375 l 1,14,-1
 1398 232 l 1,15,-1
 1288 232 l 1,16,-1
 1288 1 l 1,17,-1
 1117 1 l 1,7,-1
325 879 m 0,18,19
 217 879 217 879 157.5 941 c 128,-1,20
 98 1003 98 1003 98 1110 c 1,21,-1
 255 1110 l 1,22,23
 255 1012 255 1012 320 1012 c 0,24,25
 352 1012 352 1012 364 1037.5 c 128,-1,26
 376 1063 376 1063 376 1109 c 0,27,28
 376 1169 376 1169 349.5 1190 c 128,-1,29
 323 1211 323 1211 252 1211 c 1,30,-1
 252 1331 l 1,31,32
 322 1331 322 1331 349.5 1352.5 c 128,-1,33
 377 1374 377 1374 377 1432 c 0,34,35
 377 1482 377 1482 365 1508 c 128,-1,36
 353 1534 353 1534 319 1534 c 0,37,38
 281 1534 281 1534 268 1508.5 c 128,-1,39
 255 1483 255 1483 255 1436 c 1,40,-1
 98 1436 l 1,41,42
 98 1551 98 1551 158 1609 c 128,-1,43
 218 1667 218 1667 328 1667 c 0,44,45
 434 1667 434 1667 486.5 1609.5 c 128,-1,46
 539 1552 539 1552 539 1444 c 0,47,48
 539 1372 539 1372 499 1328 c 128,-1,49
 459 1284 459 1284 399 1279 c 1,50,51
 542 1259 542 1259 542 1111 c 0,52,53
 542 1000 542 1000 486.5 939.5 c 128,-1,54
 431 879 431 879 325 879 c 0,18,19
EndSplineSet
EndChar

StartChar: questiondown
Encoding: 191 191 126
Width: 1067
GlyphClass: 2
Flags: W
LayerCount: 2
UndoRedoHistory
Layer: 1
Undoes
EndUndoes
Redoes
EndRedoes
EndUndoRedoHistory
Fore
SplineSet
464 1014 m 1,0,-1
 464 1311 l 1,1,-1
 768 1311 l 1,2,-1
 768 1014 l 1,3,-1
 464 1014 l 1,0,-1
561 -373 m 0,4,5
 347 -373 347 -373 231.5 -262 c 128,-1,6
 116 -151 116 -151 116 49 c 0,7,8
 116 228 116 228 218 392 c 128,-1,9
 320 556 320 556 478 681 c 1,10,-1
 478 880 l 1,11,-1
 758 880 l 1,12,-1
 758 618 l 1,13,14
 422 331 422 331 422 59 c 0,15,16
 422 48 422 48 423 37 c 1,17,18
 425 -33 425 -33 462 -69.5 c 128,-1,19
 499 -106 499 -106 556 -106 c 0,20,21
 612 -106 612 -106 642 -69 c 0,22,23
 668 -37 668 -37 669 12 c 0,24,25
 669 20 669 20 668 29 c 1,26,27
 668 66 668 66 649 127 c 1,28,-1
 931 188 l 1,29,30
 957 86 957 86 957 40 c 1,31,32
 960 12 960 12 960 -14 c 0,33,34
 960 -160 960 -160 874 -258 c 0,35,36
 774 -372 774 -372 561 -373 c 0,4,5
EndSplineSet
EndChar

StartChar: AE
Encoding: 198 198 133
Width: 1409
GlyphClass: 2
Flags: W
LayerCount: 2
UndoRedoHistory
Layer: 1
Undoes
EndUndoes
Redoes
EndRedoes
EndUndoRedoHistory
Fore
SplineSet
505 581 m 1,0,-1
 704 581 l 1,1,-1
 704 1116 l 1,2,-1
 505 581 l 1,0,-1
-53 0 m 1,3,-1
 666 1641 l 1,4,-1
 1366 1641 l 1,5,-1
 1366 1409 l 1,6,-1
 1000 1409 l 1,7,-1
 1000 975 l 1,8,-1
 1259 975 l 1,9,-1
 1259 739 l 1,10,-1
 1000 739 l 1,11,-1
 1000 230 l 1,12,-1
 1366 230 l 1,13,-1
 1366 0 l 1,14,-1
 704 0 l 1,15,-1
 704 364 l 1,16,-1
 431 364 l 1,17,-1
 280 0 l 1,18,-1
 -53 0 l 1,3,-1
EndSplineSet
EndChar

StartChar: Eth
Encoding: 208 208 143
Width: 1122
GlyphClass: 2
Flags: W
LayerCount: 2
UndoRedoHistory
Layer: 1
Undoes
EndUndoes
Redoes
EndRedoes
EndUndoRedoHistory
Fore
SplineSet
111 0 m 1,0,-1
 111 765 l 1,1,-1
 20 765 l 1,2,-1
 20 938 l 1,3,-1
 111 938 l 1,4,-1
 111 1658 l 1,5,-1
 514 1658 l 2,6,7
 671 1658 671 1658 775.5 1629 c 128,-1,8
 880 1600 880 1600 942.5 1534 c 128,-1,9
 1005 1468 1005 1468 1031 1373.5 c 128,-1,10
 1057 1279 1057 1279 1057 1137 c 2,11,-1
 1057 539 l 2,12,13
 1057 395 1057 395 1031 297 c 128,-1,14
 1005 199 1005 199 943 130.5 c 128,-1,15
 881 62 881 62 778 31 c 128,-1,16
 675 0 675 0 522 0 c 2,17,-1
 111 0 l 1,0,-1
448 235 m 1,18,-1
 518 235 l 2,19,20
 553 235 553 235 580.5 239 c 128,-1,21
 608 243 608 243 628 253 c 128,-1,22
 648 263 648 263 662 273.5 c 128,-1,23
 676 284 676 284 685.5 304 c 128,-1,24
 695 324 695 324 700.5 341.5 c 128,-1,25
 706 359 706 359 708.5 390 c 128,-1,26
 711 421 711 421 711.5 445 c 128,-1,27
 712 469 712 469 712 510 c 2,28,-1
 712 1175 l 2,29,30
 712 1234 712 1234 709 1268.5 c 128,-1,31
 706 1303 706 1303 695.5 1336 c 128,-1,32
 685 1369 685 1369 663.5 1385 c 128,-1,33
 642 1401 642 1401 606 1410.5 c 128,-1,34
 570 1420 570 1420 516 1420 c 2,35,-1
 448 1420 l 1,36,-1
 448 938 l 1,37,-1
 539 938 l 1,38,-1
 539 765 l 1,39,-1
 448 765 l 1,40,-1
 448 235 l 1,18,-1
EndSplineSet
EndChar

StartChar: multiply
Encoding: 215 215 150
Width: 944
GlyphClass: 2
Flags: W
LayerCount: 2
UndoRedoHistory
Layer: 1
Undoes
EndUndoes
Redoes
EndRedoes
EndUndoRedoHistory
Fore
SplineSet
253 480 m 1,0,-1
 109 623 l 1,1,-1
 329 843 l 1,2,-1
 109 1062 l 1,3,-1
 253 1206 l 1,4,-1
 472 987 l 1,5,-1
 692 1206 l 1,6,-1
 835 1063 l 1,7,-1
 615 843 l 1,8,-1
 835 623 l 1,9,-1
 693 480 l 1,10,-1
 472 699 l 1,11,-1
 253 480 l 1,0,-1
EndSplineSet
EndChar

StartChar: Oslash
Encoding: 216 216 151
Width: 1155
GlyphClass: 2
Flags: W
LayerCount: 2
UndoRedoHistory
Layer: 1
Undoes
EndUndoes
Redoes
EndRedoes
EndUndoRedoHistory
Fore
SplineSet
443 592 m 1,0,-1
 711 1369 l 1,1,2
 701 1391 701 1391 685 1405.5 c 128,-1,3
 669 1420 669 1420 644.5 1428.5 c 128,-1,4
 620 1437 620 1437 587 1437 c 0,5,6
 549 1437 549 1437 522 1425 c 128,-1,7
 495 1413 495 1413 480 1394.5 c 128,-1,8
 465 1376 465 1376 456.5 1345.5 c 128,-1,9
 448 1315 448 1315 445.5 1287 c 128,-1,10
 443 1259 443 1259 443 1219 c 2,11,-1
 443 592 l 1,0,-1
587 221 m 0,12,13
 625 221 625 221 652.5 233.5 c 128,-1,14
 680 246 680 246 695.5 265 c 128,-1,15
 711 284 711 284 720 315 c 128,-1,16
 729 346 729 346 731.5 374.5 c 128,-1,17
 734 403 734 403 734 443 c 2,18,-1
 734 1168 l 1,19,-1
 450 343 l 1,20,21
 456 305 456 305 470.5 279.5 c 128,-1,22
 485 254 485 254 514 237.5 c 128,-1,23
 543 221 543 221 587 221 c 0,12,13
272 -173 m 1,24,-1
 190 -142 l 1,25,-1
 262 68 l 1,26,27
 98 194 98 194 98 525 c 2,28,-1
 98 1137 l 2,29,30
 98 1270 98 1270 123.5 1367.5 c 128,-1,31
 149 1465 149 1465 205.5 1536 c 128,-1,32
 262 1607 262 1607 357 1643 c 128,-1,33
 452 1679 452 1679 587 1679 c 0,34,35
 714 1679 714 1679 807 1646 c 1,36,-1
 862 1807 l 1,37,-1
 944 1778 l 1,38,-1
 886 1609 l 1,39,40
 954 1566 954 1566 997.5 1497 c 128,-1,41
 1041 1428 1041 1428 1060 1339.5 c 128,-1,42
 1079 1251 1079 1251 1079 1137 c 2,43,-1
 1079 525 l 2,44,45
 1079 257 1079 257 964.5 117.5 c 128,-1,46
 850 -22 850 -22 587 -22 c 0,47,48
 440 -22 440 -22 339 22 c 1,49,-1
 272 -173 l 1,24,-1
EndSplineSet
EndChar

StartChar: Thorn
Encoding: 222 222 157
Width: 1117
GlyphClass: 2
Flags: W
LayerCount: 2
UndoRedoHistory
Layer: 1
Undoes
EndUndoes
Redoes
EndRedoes
EndUndoRedoHistory
Fore
SplineSet
448 722 m 1,0,-1
 563 722 l 2,1,2
 679 722 679 722 727.5 774 c 128,-1,3
 776 826 776 826 776 958 c 0,4,5
 776 1081 776 1081 731.5 1134.5 c 128,-1,6
 687 1188 687 1188 579 1188 c 2,7,-1
 448 1188 l 1,8,-1
 448 722 l 1,0,-1
111 0 m 1,9,-1
 111 1658 l 1,10,-1
 448 1658 l 1,11,-1
 448 1438 l 1,12,-1
 624 1438 l 2,13,14
 860 1438 860 1438 974 1324.5 c 128,-1,15
 1088 1211 1088 1211 1088 970 c 0,16,17
 1088 829 1088 829 1058.5 734 c 128,-1,18
 1029 639 1029 639 966.5 582.5 c 128,-1,19
 904 526 904 526 815.5 501.5 c 128,-1,20
 727 477 727 477 599 476 c 1,21,-1
 448 476 l 1,22,-1
 448 0 l 1,23,-1
 111 0 l 1,9,-1
EndSplineSet
EndChar

StartChar: germandbls
Encoding: 223 223 158
Width: 1100
GlyphClass: 2
Flags: W
LayerCount: 2
UndoRedoHistory
Layer: 1
Undoes
EndUndoes
Redoes
EndRedoes
EndUndoRedoHistory
Fore
SplineSet
510 -27 m 1,0,-1
 510 213 l 1,1,2
 627 213 627 213 678 278 c 0,3,4
 723 335 723 335 723 460 c 0,5,6
 723 477 723 477 722 495 c 0,7,8
 718 598 718 598 663.5 662 c 128,-1,9
 609 726 609 726 522 726 c 1,10,-1
 520 968 l 1,11,12
 599 968 599 968 638 1038.5 c 128,-1,13
 677 1109 677 1109 677 1233 c 0,14,15
 677 1457 677 1457 536 1457 c 0,16,17
 487 1457 487 1457 458 1427 c 0,18,19
 429 1396 429 1396 419 1350 c 0,20,21
 410 1308 410 1308 410 1247 c 0,22,23
 410 1241 410 1241 410 1235 c 1,24,-1
 410 0 l 1,25,-1
 100 0 l 1,26,-1
 100 1233 l 2,27,28
 100 1305 100 1305 114 1369 c 128,-1,29
 128 1433 128 1433 159 1490.5 c 128,-1,30
 190 1548 190 1548 236 1589.5 c 128,-1,31
 282 1631 282 1631 351.5 1655.5 c 128,-1,32
 421 1680 421 1680 506 1680 c 0,33,34
 730 1680 730 1680 839 1566 c 128,-1,35
 948 1452 948 1452 948 1237 c 0,36,37
 948 1108 948 1108 892.5 1018.5 c 128,-1,38
 837 929 837 929 717 876 c 1,39,40
 864 835 864 835 947 725 c 128,-1,41
 1030 615 1030 615 1030 465 c 0,42,43
 1030 211 1030 211 898 92 c 128,-1,44
 766 -27 766 -27 510 -27 c 1,0,-1
EndSplineSet
EndChar

StartChar: ae
Encoding: 230 230 165
Width: 1365
GlyphClass: 2
Flags: W
LayerCount: 2
UndoRedoHistory
Layer: 1
Undoes
EndUndoes
Redoes
EndRedoes
EndUndoRedoHistory
Fore
SplineSet
841 734 m 1,0,1
 863 737 863 737 897 746.5 c 128,-1,2
 931 756 931 756 940 765 c 1,3,4
 983 781 983 781 1003.5 808 c 128,-1,5
 1024 835 1024 835 1024 888 c 0,6,7
 1024 946 1024 946 1002 979 c 128,-1,8
 980 1012 980 1012 938 1012 c 0,9,10
 892 1012 892 1012 866.5 971 c 128,-1,11
 841 930 841 930 841 863 c 2,12,-1
 841 734 l 1,0,1
437 195 m 0,13,14
 485 195 485 195 515.5 238 c 128,-1,15
 546 281 546 281 546 369 c 2,16,-1
 545 542 l 1,17,18
 508 532 508 532 476 515 c 0,19,20
 414 480 414 480 381.5 425 c 128,-1,21
 349 370 349 370 349 317 c 0,22,23
 349 269 349 269 372 232 c 128,-1,24
 395 195 395 195 437 195 c 0,13,14
356 -22 m 0,25,26
 234 -18 234 -18 151 62.5 c 128,-1,27
 68 143 68 143 68 273 c 0,28,29
 68 344 68 344 86 402.5 c 128,-1,30
 104 461 104 461 132.5 500.5 c 128,-1,31
 161 540 161 540 204 571 c 128,-1,32
 247 602 247 602 291 620 c 128,-1,33
 335 638 335 638 389 651 c 1,34,35
 446 666 446 666 545 686 c 1,36,-1
 545 837 l 2,37,38
 545 903 545 903 525 935.5 c 128,-1,39
 505 968 505 968 460 968 c 0,40,41
 414 968 414 968 393 930 c 128,-1,42
 372 892 372 892 372 806 c 1,43,-1
 71 806 l 1,44,45
 71 810 71 810 71 814 c 0,46,47
 72 1007 72 1007 164 1115 c 0,48,49
 258 1225 258 1225 442 1225 c 0,50,51
 534 1225 534 1225 600 1183 c 128,-1,52
 666 1141 666 1141 685 1073 c 1,53,54
 713 1139 713 1139 782 1181.5 c 128,-1,55
 851 1224 851 1224 941 1224 c 0,56,57
 1108 1224 1108 1224 1198 1128.5 c 128,-1,58
 1288 1033 1288 1033 1288 893 c 0,59,60
 1288 838 1288 838 1268.5 794.5 c 128,-1,61
 1249 751 1249 751 1219.5 722.5 c 128,-1,62
 1190 694 1190 694 1143.5 671 c 128,-1,63
 1097 648 1097 648 1055.5 635.5 c 128,-1,64
 1014 623 1014 623 958 611 c 0,65,66
 930 604 930 604 842 589 c 1,67,-1
 842 432 l 2,68,69
 842 426 842 426 842 415 c 0,70,71
 842 389 842 389 842 376 c 128,-1,72
 842 363 842 363 843 339.5 c 128,-1,73
 844 316 844 316 846 303 c 128,-1,74
 848 290 848 290 851.5 271.5 c 128,-1,75
 855 253 855 253 861 243 c 128,-1,76
 867 233 867 233 875 223 c 128,-1,77
 883 213 883 213 894.5 208.5 c 128,-1,78
 906 204 906 204 921 204 c 0,79,80
 945 204 945 204 960.5 215 c 128,-1,81
 976 226 976 226 982.5 250.5 c 128,-1,82
 989 275 989 275 990.5 296.5 c 128,-1,83
 992 318 992 318 992 356 c 2,84,-1
 992 414 l 1,85,-1
 1282 414 l 1,86,-1
 1282 332 l 2,87,88
 1282 162 1282 162 1194.5 70 c 128,-1,89
 1107 -22 1107 -22 939 -22 c 0,90,91
 844 -22 844 -22 765 32 c 128,-1,92
 686 86 686 86 668 176 c 1,93,94
 626 82 626 82 542 28 c 0,95,96
 464 -22 464 -22 370 -22 c 0,97,98
 363 -22 363 -22 356 -22 c 0,25,26
EndSplineSet
EndChar

StartChar: eth
Encoding: 240 240 175
Width: 1043
GlyphClass: 2
Flags: W
LayerCount: 2
UndoRedoHistory
Layer: 1
Undoes
EndUndoes
Redoes
EndRedoes
EndUndoRedoHistory
Fore
SplineSet
413 593 m 0,0,1
 413 559 413 559 412 497 c 0,2,3
 411 464 411 464 411 435 c 0,4,5
 412 420 412 420 412 406 c 0,6,7
 412 364 412 364 414.5 329.5 c 128,-1,8
 417 295 417 295 423.5 268.5 c 128,-1,9
 430 242 430 242 441.5 224.5 c 128,-1,10
 453 207 453 207 471.5 197.5 c 128,-1,11
 490 188 490 188 517 188 c 0,12,13
 582 188 582 188 605 234.5 c 128,-1,14
 628 281 628 281 628 372 c 2,15,-1
 628 929 l 1,16,17
 626 930 626 930 617.5 936 c 128,-1,18
 609 942 609 942 602 946 c 128,-1,19
 595 950 595 950 584.5 955 c 128,-1,20
 574 960 574 960 561.5 962.5 c 128,-1,21
 549 965 549 965 535 965 c 0,22,23
 461 965 461 965 437 886.5 c 128,-1,24
 413 808 413 808 413 593 c 0,0,1
937 453 m 2,25,26
 937 -26 937 -26 514 -26 c 0,27,28
 108 -26 108 -26 108 440 c 2,29,-1
 108 728 l 2,30,31
 108 929 108 929 201.5 1053 c 128,-1,32
 295 1177 295 1177 459 1177 c 0,33,34
 553 1177 553 1177 626 1129 c 1,35,36
 620 1299 620 1299 571 1366 c 1,37,-1
 374 1276 l 1,38,-1
 346 1370 l 1,39,-1
 515 1448 l 1,40,41
 453 1518 453 1518 244 1518 c 1,42,-1
 259 1712 l 1,43,44
 611 1712 611 1712 740 1563 c 1,45,-1
 940 1654 l 1,46,-1
 967 1558 l 1,47,-1
 801 1483 l 1,48,49
 854 1392 854 1392 895.5 1233.5 c 128,-1,50
 937 1075 937 1075 937 878 c 2,51,-1
 937 453 l 2,25,26
EndSplineSet
EndChar

StartChar: divide
Encoding: 247 247 182
Width: 875
GlyphClass: 2
Flags: W
LayerCount: 2
UndoRedoHistory
Layer: 1
Undoes
EndUndoes
Redoes
EndRedoes
EndUndoRedoHistory
Fore
SplineSet
344 1084 m 1,0,-1
 344 1334 l 1,1,-1
 545 1334 l 1,2,-1
 545 1084 l 1,3,-1
 344 1084 l 1,0,-1
61 764 m 1,4,-1
 61 941 l 1,5,-1
 814 941 l 1,6,-1
 814 764 l 1,7,-1
 61 764 l 1,4,-1
344 354 m 1,8,-1
 344 604 l 1,9,-1
 545 604 l 1,10,-1
 545 354 l 1,11,-1
 344 354 l 1,8,-1
EndSplineSet
EndChar

StartChar: oslash
Encoding: 248 248 183
Width: 953
GlyphClass: 2
Flags: W
LayerCount: 2
UndoRedoHistory
Layer: 1
Undoes
EndUndoes
Redoes
EndRedoes
EndUndoRedoHistory
Fore
SplineSet
389 491 m 1,0,-1
 560 934 l 1,1,2
 540 992 540 992 480 992 c 0,3,4
 426 992 426 992 407.5 948.5 c 128,-1,5
 389 905 389 905 389 824 c 2,6,-1
 389 491 l 1,0,-1
480 192 m 0,7,8
 535 192 535 192 554 234.5 c 128,-1,9
 573 277 573 277 573 359 c 2,10,-1
 573 735 l 1,11,-1
 394 279 l 1,12,13
 409 192 409 192 480 192 c 0,7,8
211 -190 m 1,14,-1
 137 -160 l 1,15,-1
 220 54 l 1,16,17
 83 156 83 156 83 381 c 2,18,-1
 83 803 l 2,19,20
 83 996 83 996 185 1099.5 c 128,-1,21
 287 1203 287 1203 479 1203 c 0,22,23
 578 1203 578 1203 654 1175 c 1,24,-1
 733 1380 l 1,25,-1
 813 1349 l 1,26,-1
 730 1137 l 1,27,28
 879 1036 879 1036 879 803 c 2,29,-1
 879 381 l 2,30,31
 879 188 879 188 775.5 84 c 128,-1,32
 672 -20 672 -20 479 -20 c 0,33,34
 371 -20 371 -20 291 14 c 1,35,-1
 211 -190 l 1,14,-1
EndSplineSet
EndChar

StartChar: thorn
Encoding: 254 254 189
Width: 992
GlyphClass: 2
Flags: W
LayerCount: 2
UndoRedoHistory
Layer: 1
Undoes
EndUndoes
Redoes
EndRedoes
EndUndoRedoHistory
Fore
SplineSet
513 190 m 0,0,1
 514 190 514 190 515 190 c 0,2,3
 564 190 564 190 584 236 c 0,4,5
 604 284 604 284 603 365 c 2,6,-1
 603 850 l 2,7,8
 603 1004 603 1004 515 1004 c 0,9,10
 512 1004 512 1004 509 1004 c 1,11,12
 465 1003 465 1003 408 962 c 1,13,-1
 408 223 l 1,14,15
 462 190 462 190 513 190 c 0,0,1
99 -390 m 1,16,-1
 99 1658 l 1,17,-1
 408 1658 l 1,18,-1
 408 1095 l 1,19,20
 524 1203 524 1203 649 1203 c 0,21,22
 652 1203 652 1203 656 1203 c 0,23,24
 727 1202 727 1202 779 1167.5 c 128,-1,25
 831 1133 831 1133 859 1077 c 128,-1,26
 887 1021 887 1021 900 960 c 128,-1,27
 913 899 913 899 913 831 c 2,28,-1
 913 378 l 2,29,30
 913 200 913 200 845.5 90 c 128,-1,31
 778 -20 778 -20 644 -20 c 0,32,33
 528 -20 528 -20 408 88 c 1,34,-1
 408 -390 l 1,35,-1
 99 -390 l 1,16,-1
EndSplineSet
EndChar

StartChar: Dcroat
Encoding: 272 272 199
Width: 1176
GlyphClass: 2
Flags: W
LayerCount: 2
UndoRedoHistory
Layer: 1
Undoes
EndUndoes
Redoes
EndRedoes
EndUndoRedoHistory
Fore
SplineSet
131 0 m 1,0,-1
 131 771 l 1,1,-1
 29 771 l 1,2,-1
 29 933 l 1,3,-1
 131 933 l 1,4,-1
 131 1658 l 1,5,-1
 534 1658 l 2,6,7
 691 1658 691 1658 795.5 1629 c 128,-1,8
 900 1600 900 1600 962.5 1534 c 128,-1,9
 1025 1468 1025 1468 1051 1373.5 c 128,-1,10
 1077 1279 1077 1279 1077 1137 c 2,11,-1
 1077 539 l 2,12,13
 1077 395 1077 395 1051 297 c 128,-1,14
 1025 199 1025 199 963 130.5 c 128,-1,15
 901 62 901 62 798 31 c 128,-1,16
 695 0 695 0 542 0 c 2,17,-1
 131 0 l 1,0,-1
462 235 m 1,18,-1
 543 235 l 2,19,20
 599 235 599 235 635.5 247 c 128,-1,21
 672 259 672 259 692.5 277.5 c 128,-1,22
 713 296 713 296 723.5 335.5 c 128,-1,23
 734 375 734 375 736 409.5 c 128,-1,24
 738 444 738 444 738 510 c 2,25,-1
 738 1175 l 2,26,27
 738 1234 738 1234 735 1269 c 128,-1,28
 732 1304 732 1304 721 1336.5 c 128,-1,29
 710 1369 710 1369 688.5 1385 c 128,-1,30
 667 1401 667 1401 631 1410.5 c 128,-1,31
 595 1420 595 1420 541 1420 c 2,32,-1
 462 1420 l 1,33,-1
 462 933 l 1,34,-1
 564 933 l 1,35,-1
 564 771 l 1,36,-1
 462 771 l 1,37,-1
 462 235 l 1,18,-1
EndSplineSet
EndChar

StartChar: Eng
Encoding: 330 330 204
Width: 1142
GlyphClass: 2
Flags: W
LayerCount: 2
UndoRedoHistory
Layer: 1
Undoes
EndUndoes
Redoes
EndRedoes
EndUndoRedoHistory
Fore
SplineSet
511 -419 m 1,0,-1
 511 -213 l 1,1,2
 514 -213 514 -213 517 -213 c 0,3,4
 653 -213 653 -213 701 -171 c 0,5,6
 750 -128 750 -128 750 -14 c 2,7,-1
 750 142 l 1,8,-1
 410 916 l 1,9,-1
 410 0 l 1,10,-1
 128 0 l 1,11,-1
 128 1658 l 1,12,-1
 364 1658 l 1,13,-1
 740 797 l 1,14,-1
 740 1658 l 1,15,-1
 1014 1658 l 1,16,-1
 1014 0 l 2,17,18
 1014 -109 1014 -109 997.5 -182.5 c 128,-1,19
 981 -256 981 -256 940.5 -311.5 c 128,-1,20
 900 -367 900 -367 827.5 -393 c 128,-1,21
 755 -419 755 -419 645 -419 c 2,22,-1
 511 -419 l 1,0,-1
EndSplineSet
EndChar

StartChar: Euro
Encoding: 8364 8364 206
Width: 1114
GlyphClass: 2
Flags: W
LayerCount: 2
UndoRedoHistory
Layer: 1
Undoes
EndUndoes
Redoes
EndRedoes
EndUndoRedoHistory
Fore
SplineSet
598 -22 m 0,0,1
 462 -22 462 -22 366 17.5 c 128,-1,2
 270 57 270 57 215 133 c 128,-1,3
 160 209 160 209 136 307 c 128,-1,4
 112 405 112 405 112 535 c 2,5,-1
 112 637 l 1,6,-1
 5 637 l 1,7,-1
 5 758 l 1,8,-1
 112 758 l 1,9,-1
 112 896 l 1,10,-1
 5 896 l 1,11,-1
 5 1018 l 1,12,-1
 112 1018 l 1,13,-1
 112 1120 l 2,14,15
 112 1255 112 1255 136 1354 c 128,-1,16
 160 1453 160 1453 215 1528 c 128,-1,17
 270 1603 270 1603 365.5 1641 c 128,-1,18
 461 1679 461 1679 598 1679 c 0,19,20
 728 1679 728 1679 819.5 1645.5 c 128,-1,21
 911 1612 911 1612 963.5 1547 c 128,-1,22
 1016 1482 1016 1482 1039.5 1397.5 c 128,-1,23
 1063 1313 1063 1313 1063 1200 c 2,24,-1
 1063 1102 l 1,25,-1
 734 1102 l 1,26,-1
 734 1212 l 2,27,28
 734 1240 734 1240 734 1251 c 128,-1,29
 734 1262 734 1262 733 1287 c 128,-1,30
 732 1312 732 1312 729.5 1322.5 c 128,-1,31
 727 1333 727 1333 722.5 1353 c 128,-1,32
 718 1373 718 1373 711.5 1382 c 128,-1,33
 705 1391 705 1391 695 1404 c 128,-1,34
 685 1417 685 1417 671.5 1422.5 c 128,-1,35
 658 1428 658 1428 639.5 1432.5 c 128,-1,36
 621 1437 621 1437 599 1437 c 0,37,38
 560 1437 560 1437 532.5 1423.5 c 128,-1,39
 505 1410 505 1410 490 1390 c 128,-1,40
 475 1370 475 1370 467 1335.5 c 128,-1,41
 459 1301 459 1301 457 1271.5 c 128,-1,42
 455 1242 455 1242 455 1197 c 2,43,-1
 455 1018 l 1,44,-1
 659 1018 l 1,45,-1
 659 896 l 1,46,-1
 455 896 l 1,47,-1
 455 758 l 1,48,-1
 659 758 l 1,49,-1
 659 637 l 1,50,-1
 455 637 l 1,51,-1
 455 456 l 2,52,53
 455 335 455 335 485.5 278 c 128,-1,54
 516 221 516 221 599 221 c 0,55,56
 631 221 631 221 655 229 c 128,-1,57
 679 237 679 237 693.5 255.5 c 128,-1,58
 708 274 708 274 716.5 291.5 c 128,-1,59
 725 309 725 309 728.5 341 c 128,-1,60
 732 373 732 373 733 395 c 128,-1,61
 734 417 734 417 734 456 c 2,62,-1
 734 539 l 1,63,-1
 1063 539 l 1,64,-1
 1063 478 l 2,65,66
 1063 363 1063 363 1040.5 276.5 c 128,-1,67
 1018 190 1018 190 967 120.5 c 128,-1,68
 916 51 916 51 823 14.5 c 128,-1,69
 730 -22 730 -22 598 -22 c 0,0,1
EndSplineSet
EndChar

StartChar: Hbar
Encoding: 294 294 211
Width: 1121
GlyphClass: 2
Flags: W
LayerCount: 2
UndoRedoHistory
Layer: 1
Undoes
EndUndoes
Redoes
EndRedoes
EndUndoRedoHistory
Fore
SplineSet
428 978 m 1,0,-1
 709 978 l 1,1,-1
 709 1258 l 1,2,-1
 428 1258 l 1,3,-1
 428 978 l 1,0,-1
90 0 m 1,4,-1
 90 1258 l 1,5,-1
 -13 1258 l 1,6,-1
 -13 1378 l 1,7,-1
 90 1378 l 1,8,-1
 90 1658 l 1,9,-1
 428 1658 l 1,10,-1
 428 1378 l 1,11,-1
 709 1378 l 1,12,-1
 709 1658 l 1,13,-1
 1047 1658 l 1,14,-1
 1047 1378 l 1,15,-1
 1133 1378 l 1,16,-1
 1133 1258 l 1,17,-1
 1047 1258 l 1,18,-1
 1047 0 l 1,19,-1
 709 0 l 1,20,-1
 709 737 l 1,21,-1
 428 737 l 1,22,-1
 428 0 l 1,23,-1
 90 0 l 1,4,-1
EndSplineSet
EndChar

StartChar: Lslash
Encoding: 321 321 224
Width: 896
GlyphClass: 2
Flags: W
LayerCount: 2
UndoRedoHistory
Layer: 1
Undoes
EndUndoes
Redoes
EndRedoes
EndUndoRedoHistory
Fore
SplineSet
135 0 m 1,0,-1
 135 740 l 1,1,-1
 7 675 l 1,2,-1
 7 876 l 1,3,-1
 135 940 l 1,4,-1
 135 1658 l 1,5,-1
 472 1658 l 1,6,-1
 472 1105 l 1,7,-1
 676 1207 l 1,8,-1
 676 1007 l 1,9,-1
 472 905 l 1,10,-1
 472 230 l 1,11,-1
 859 230 l 1,12,-1
 859 0 l 1,13,-1
 135 0 l 1,0,-1
EndSplineSet
EndChar

StartChar: OE
Encoding: 338 338 228
Width: 1459
GlyphClass: 2
Flags: W
LayerCount: 2
UndoRedoHistory
Layer: 1
Undoes
EndUndoes
Redoes
EndRedoes
EndUndoRedoHistory
Fore
SplineSet
605 236 m 2,0,-1
 706 236 l 1,1,-1
 706 1415 l 1,2,-1
 603 1415 l 2,3,4
 569 1415 569 1415 542.5 1406 c 128,-1,5
 516 1397 516 1397 498.5 1384 c 128,-1,6
 481 1371 481 1371 469 1345.5 c 128,-1,7
 457 1320 457 1320 450.5 1299 c 128,-1,8
 444 1278 444 1278 441 1240.5 c 128,-1,9
 438 1203 438 1203 437.5 1178.5 c 128,-1,10
 437 1154 437 1154 437 1109 c 2,11,-1
 437 511 l 2,12,13
 437 472 437 472 438 445.5 c 128,-1,14
 439 419 439 419 443 388 c 128,-1,15
 447 357 447 357 454 336.5 c 128,-1,16
 461 316 461 316 473 295 c 128,-1,17
 485 274 485 274 503 262 c 128,-1,18
 521 250 521 250 546.5 243 c 128,-1,19
 572 236 572 236 605 236 c 2,0,-1
603 0 m 2,20,21
 464 0 464 0 365 37 c 128,-1,22
 266 74 266 74 208 147.5 c 128,-1,23
 150 221 150 221 124 320 c 128,-1,24
 98 419 98 419 98 554 c 2,25,-1
 98 1075 l 2,26,27
 98 1209 98 1209 124 1311.5 c 128,-1,28
 150 1414 150 1414 206.5 1492.5 c 128,-1,29
 263 1571 263 1571 361 1612.5 c 128,-1,30
 459 1654 459 1654 595 1654 c 2,31,-1
 1403 1654 l 1,32,-1
 1403 1421 l 1,33,-1
 1043 1421 l 1,34,-1
 1043 974 l 1,35,-1
 1317 974 l 1,36,-1
 1317 738 l 1,37,-1
 1043 738 l 1,38,-1
 1043 230 l 1,39,-1
 1406 230 l 1,40,-1
 1406 0 l 1,41,-1
 603 0 l 2,20,21
EndSplineSet
EndChar

StartChar: Pi
Encoding: 928 928 232
Width: 1221
GlyphClass: 2
Flags: W
LayerCount: 2
UndoRedoHistory
Layer: 1
Undoes
EndUndoes
Redoes
EndRedoes
EndUndoRedoHistory
Fore
SplineSet
111 0 m 1,0,-1
 111 1658 l 1,1,-1
 1110 1658 l 1,2,-1
 1110 0 l 1,3,-1
 807 0 l 1,4,-1
 807 1416 l 1,5,-1
 414 1416 l 1,6,-1
 414 0 l 1,7,-1
 111 0 l 1,0,-1
EndSplineSet
EndChar

StartChar: Tbar
Encoding: 358 358 241
Width: 892
GlyphClass: 2
Flags: W
LayerCount: 2
UndoRedoHistory
Layer: 1
Undoes
EndUndoes
Redoes
EndRedoes
EndUndoRedoHistory
Fore
SplineSet
92 765 m 1,0,-1
 92 933 l 1,1,-1
 280 933 l 1,2,-1
 280 1409 l 1,3,-1
 15 1409 l 1,4,-1
 15 1658 l 1,5,-1
 878 1658 l 1,6,-1
 878 1409 l 1,7,-1
 617 1409 l 1,8,-1
 617 933 l 1,9,-1
 808 933 l 1,10,-1
 808 765 l 1,11,-1
 617 765 l 1,12,-1
 617 0 l 1,13,-1
 280 0 l 1,14,-1
 280 765 l 1,15,-1
 92 765 l 1,0,-1
EndSplineSet
EndChar

StartChar: acutecomb
Encoding: 769 769 261
Width: 351
GlyphClass: 2
Flags: W
LayerCount: 2
UndoRedoHistory
Layer: 1
Undoes
EndUndoes
Redoes
EndRedoes
EndUndoRedoHistory
Fore
SplineSet
31 1247 m 1,0,-1
 155 1658 l 1,1,-1
 470 1658 l 1,2,-1
 217 1247 l 1,3,-1
 31 1247 l 1,0,-1
EndSplineSet
EndChar

StartChar: afii10018
Encoding: 1041 1041 263
Width: 1104
GlyphClass: 2
Flags: W
LayerCount: 2
UndoRedoHistory
Layer: 1
Undoes
EndUndoes
Redoes
EndRedoes
EndUndoRedoHistory
Fore
SplineSet
466 226 m 1,0,-1
 509 226 l 2,1,2
 628 226 628 226 676 284 c 0,3,4
 723 340 723 340 722 477 c 0,5,6
 722 483 722 483 722 488 c 0,7,8
 720 608 720 608 673 667 c 128,-1,9
 626 726 626 726 504 726 c 2,10,-1
 466 726 l 1,11,-1
 466 226 l 1,0,-1
128 0 m 1,12,-1
 128 1658 l 1,13,-1
 925 1658 l 1,14,-1
 925 1405 l 1,15,-1
 466 1405 l 1,16,-1
 466 961 l 1,17,-1
 527 961 l 2,18,19
 782 961 782 961 908.5 849 c 128,-1,20
 1035 737 1035 737 1035 483 c 0,21,22
 1035 368 1035 368 1009.5 282.5 c 128,-1,23
 984 197 984 197 939.5 143.5 c 128,-1,24
 895 90 895 90 827 57.5 c 128,-1,25
 759 25 759 25 682.5 12.5 c 128,-1,26
 606 0 606 0 507 0 c 2,27,-1
 128 0 l 1,12,-1
EndSplineSet
EndChar

StartChar: afii10019
Encoding: 1042 1042 264
Width: 1175
GlyphClass: 2
Flags: W
LayerCount: 2
UndoRedoHistory
Layer: 1
Undoes
EndUndoes
Redoes
EndRedoes
EndUndoRedoHistory
Fore
SplineSet
466 989 m 1,0,-1
 546 989 l 2,1,2
 671 989 671 989 717 1044 c 128,-1,3
 763 1099 763 1099 763 1223 c 0,4,5
 763 1338 763 1338 704 1383 c 128,-1,6
 645 1428 645 1428 517 1428 c 2,7,-1
 466 1428 l 1,8,-1
 466 989 l 1,0,-1
466 237 m 1,9,-1
 558 237 l 2,10,11
 684 237 684 237 733.5 297 c 128,-1,12
 783 357 783 357 783 491 c 0,13,14
 783 636 783 636 730 698 c 128,-1,15
 677 760 677 760 548 760 c 2,16,-1
 466 760 l 1,17,-1
 466 237 l 1,9,-1
128 0 m 1,18,-1
 128 1658 l 1,19,-1
 549 1658 l 2,20,21
 641 1658 641 1658 713.5 1647 c 128,-1,22
 786 1636 786 1636 853 1607.5 c 128,-1,23
 920 1579 920 1579 964 1531.5 c 128,-1,24
 1008 1484 1008 1484 1034 1408 c 0,25,26
 1058 1337 1058 1337 1057 1244 c 0,27,28
 1057 1237 1057 1237 1057 1229 c 0,29,30
 1054 930 1054 930 814 891 c 1,31,32
 1105 846 1105 846 1108 487 c 0,33,34
 1108 483 1108 483 1108 479 c 0,35,36
 1108 242 1108 242 985 122 c 0,37,38
 860 0 860 0 623 0 c 2,39,-1
 128 0 l 1,18,-1
EndSplineSet
EndChar

StartChar: afii10020
Encoding: 1043 1043 265
Width: 907
GlyphClass: 2
Flags: W
LayerCount: 2
UndoRedoHistory
Layer: 1
Undoes
EndUndoes
Redoes
EndRedoes
EndUndoRedoHistory
Fore
SplineSet
128 0 m 1,0,-1
 128 1658 l 1,1,-1
 861 1658 l 1,2,-1
 861 1409 l 1,3,-1
 466 1409 l 1,4,-1
 466 0 l 1,5,-1
 128 0 l 1,0,-1
EndSplineSet
EndChar

StartChar: afii10021
Encoding: 1044 1044 266
Width: 1391
GlyphClass: 2
Flags: W
LayerCount: 2
UndoRedoHistory
Layer: 1
Undoes
EndUndoes
Redoes
EndRedoes
EndUndoRedoHistory
Fore
SplineSet
405 241 m 1,0,-1
 851 241 l 1,1,-1
 851 1417 l 1,2,-1
 674 1417 l 1,3,-1
 657 1064 l 2,4,5
 648 885 648 885 628 749.5 c 128,-1,6
 608 614 608 614 587.5 536.5 c 128,-1,7
 567 459 567 459 530.5 395 c 128,-1,8
 494 331 494 331 471.5 306.5 c 128,-1,9
 449 282 449 282 405 241 c 1,0,-1
32 -345 m 1,10,-1
 32 241 l 1,11,-1
 89 241 l 1,12,13
 146 266 146 266 189.5 319 c 128,-1,14
 233 372 233 372 271 469.5 c 128,-1,15
 309 567 309 567 335 726.5 c 128,-1,16
 361 886 361 886 375 1108 c 1,17,-1
 413 1658 l 1,18,-1
 1170 1658 l 1,19,-1
 1170 241 l 1,20,-1
 1353 241 l 1,21,-1
 1353 -345 l 1,22,-1
 1122 -345 l 1,23,-1
 1102 0 l 1,24,-1
 292 0 l 1,25,-1
 272 -345 l 1,26,-1
 32 -345 l 1,10,-1
EndSplineSet
EndChar

StartChar: afii10024
Encoding: 1046 1046 269
Width: 1570
GlyphClass: 2
Flags: W
LayerCount: 2
UndoRedoHistory
Layer: 1
Undoes
EndUndoes
Redoes
EndRedoes
EndUndoRedoHistory
Fore
SplineSet
8 0 m 1,0,-1
 365 836 l 1,1,-1
 25 1658 l 1,2,-1
 342 1658 l 1,3,-1
 633 875 l 1,4,-1
 650 875 l 1,5,-1
 650 1658 l 1,6,-1
 920 1658 l 1,7,-1
 920 875 l 1,8,-1
 937 875 l 1,9,-1
 1227 1658 l 1,10,-1
 1544 1658 l 1,11,-1
 1205 836 l 1,12,-1
 1562 0 l 1,13,-1
 1254 0 l 1,14,-1
 937 811 l 1,15,-1
 920 811 l 1,16,-1
 920 0 l 1,17,-1
 650 0 l 1,18,-1
 650 811 l 1,19,-1
 633 811 l 1,20,-1
 316 0 l 1,21,-1
 8 0 l 1,0,-1
EndSplineSet
EndChar

StartChar: afii10025
Encoding: 1047 1047 270
Width: 1054
GlyphClass: 2
Flags: W
LayerCount: 2
UndoRedoHistory
Layer: 1
Undoes
EndUndoes
Redoes
EndRedoes
EndUndoRedoHistory
Fore
SplineSet
531 -27 m 0,0,1
 84 -27 84 -27 84 470 c 2,2,-1
 84 529 l 1,3,-1
 400 529 l 1,4,5
 400 524 400 524 400.5 496.5 c 128,-1,6
 401 469 401 469 401 465 c 0,7,8
 403 344 403 344 431.5 291 c 128,-1,9
 460 238 460 238 535 238 c 0,10,11
 568 238 568 238 591 249 c 128,-1,12
 614 260 614 260 628 278 c 128,-1,13
 642 296 642 296 649.5 327.5 c 128,-1,14
 657 359 657 359 659.5 393 c 128,-1,15
 662 427 662 427 662 476 c 0,16,17
 662 608 662 608 617 672.5 c 128,-1,18
 572 737 572 737 450 743 c 0,19,20
 446 743 446 743 410.5 743.5 c 128,-1,21
 375 744 375 744 370 744 c 1,22,-1
 370 961 l 1,23,24
 437 961 437 961 444 962 c 0,25,26
 569 966 569 966 615.5 1027.5 c 128,-1,27
 662 1089 662 1089 662 1219 c 0,28,29
 662 1322 662 1322 628.5 1374.5 c 128,-1,30
 595 1427 595 1427 520 1427 c 0,31,32
 447 1427 447 1427 414 1372.5 c 128,-1,33
 381 1318 381 1318 377 1218 c 0,34,35
 377 1214 377 1214 376.5 1177.5 c 128,-1,36
 376 1141 376 1141 376 1136 c 1,37,-1
 60 1136 l 1,38,-1
 60 1226 l 2,39,40
 60 1442 60 1442 183 1562 c 128,-1,41
 306 1682 306 1682 518 1682 c 0,42,43
 733 1682 733 1682 854 1566 c 128,-1,44
 975 1450 975 1450 975 1235 c 0,45,46
 975 1094 975 1094 915.5 995.5 c 128,-1,47
 856 897 856 897 763 871 c 1,48,49
 975 794 975 794 975 483 c 0,50,51
 975 366 975 366 950.5 275 c 128,-1,52
 926 184 926 184 874.5 115 c 128,-1,53
 823 46 823 46 736 9.5 c 128,-1,54
 649 -27 649 -27 531 -27 c 0,0,1
EndSplineSet
EndChar

StartChar: afii10026
Encoding: 1048 1048 271
Width: 1186
GlyphClass: 2
Flags: W
LayerCount: 2
UndoRedoHistory
Layer: 1
Undoes
EndUndoes
Redoes
EndRedoes
EndUndoRedoHistory
Fore
SplineSet
128 0 m 1,0,-1
 128 1658 l 1,1,-1
 401 1658 l 1,2,-1
 401 671 l 1,3,-1
 835 1658 l 1,4,-1
 1058 1658 l 1,5,-1
 1058 0 l 1,6,-1
 782 0 l 1,7,-1
 782 1006 l 1,8,-1
 341 0 l 1,9,-1
 128 0 l 1,0,-1
EndSplineSet
EndChar

StartChar: afii10028
Encoding: 1050 1050 273
Width: 1142
GlyphClass: 2
Flags: W
LayerCount: 2
UndoRedoHistory
Layer: 1
Undoes
EndUndoes
Redoes
EndRedoes
EndUndoRedoHistory
Fore
SplineSet
128 0 m 1,0,-1
 128 1658 l 1,1,-1
 466 1658 l 1,2,-1
 466 981 l 1,3,-1
 512 981 l 1,4,-1
 766 1658 l 1,5,-1
 1101 1658 l 1,6,-1
 796 878 l 1,7,-1
 1119 0 l 1,8,-1
 774 0 l 1,9,-1
 512 746 l 1,10,-1
 466 746 l 1,11,-1
 466 0 l 1,12,-1
 128 0 l 1,0,-1
EndSplineSet
EndChar

StartChar: afii10029
Encoding: 1051 1051 274
Width: 1304
GlyphClass: 2
Flags: W
LayerCount: 2
UndoRedoHistory
Layer: 1
Undoes
EndUndoes
Redoes
EndRedoes
EndUndoRedoHistory
Fore
SplineSet
9 0 m 1,0,-1
 9 240 l 1,1,2
 23 240 23 240 35 240 c 0,3,4
 59 240 59 240 77 241 c 0,5,6
 103 243 103 243 129.5 254.5 c 128,-1,7
 156 266 156 266 171 281 c 128,-1,8
 186 296 186 296 201.5 331.5 c 128,-1,9
 217 367 217 367 225.5 407 c 128,-1,10
 234 447 234 447 243.5 518.5 c 128,-1,11
 253 590 253 590 259.5 666 c 128,-1,12
 266 742 266 742 274 861 c 2,13,-1
 328 1658 l 1,14,-1
 1176 1658 l 1,15,-1
 1176 0 l 1,16,-1
 838 0 l 1,17,-1
 838 1403 l 1,18,-1
 630 1403 l 1,19,-1
 594 810 l 2,20,21
 584 654 584 654 576.5 568 c 128,-1,22
 569 482 569 482 552 377.5 c 128,-1,23
 535 273 535 273 510 221.5 c 128,-1,24
 485 170 485 170 444 114.5 c 128,-1,25
 403 59 403 59 343.5 37.5 c 128,-1,26
 284 16 284 16 202 4 c 0,27,28
 151 -3 151 -3 89 -3 c 0,29,30
 51 -3 51 -3 9 0 c 1,0,-1
EndSplineSet
EndChar

StartChar: afii10030
Encoding: 1052 1052 275
Width: 1421
GlyphClass: 2
Flags: W
LayerCount: 2
UndoRedoHistory
Layer: 1
Undoes
EndUndoes
Redoes
EndRedoes
EndUndoRedoHistory
Fore
SplineSet
119 0 m 1,0,-1
 146 1658 l 1,1,-1
 492 1658 l 1,2,-1
 710 634 l 1,3,-1
 939 1658 l 1,4,-1
 1275 1658 l 1,5,-1
 1302 0 l 1,6,-1
 1058 0 l 1,7,-1
 1037 1074 l 1,8,-1
 801 0 l 1,9,-1
 628 0 l 1,10,-1
 385 1080 l 1,11,-1
 366 0 l 1,12,-1
 119 0 l 1,0,-1
EndSplineSet
EndChar

StartChar: afii10033
Encoding: 1055 1055 278
Width: 1224
GlyphClass: 2
Flags: W
LayerCount: 2
UndoRedoHistory
Layer: 1
Undoes
EndUndoes
Redoes
EndRedoes
EndUndoRedoHistory
Fore
SplineSet
123 0 m 1,0,-1
 123 1658 l 1,1,-1
 1101 1658 l 1,2,-1
 1101 0 l 1,3,-1
 768 0 l 1,4,-1
 768 1417 l 1,5,-1
 456 1417 l 1,6,-1
 456 0 l 1,7,-1
 123 0 l 1,0,-1
EndSplineSet
EndChar

StartChar: afii10034
Encoding: 1056 1056 279
Width: 1113
GlyphClass: 2
Flags: W
LayerCount: 2
UndoRedoHistory
Layer: 1
Undoes
EndUndoes
Redoes
EndRedoes
EndUndoRedoHistory
Fore
SplineSet
460 958 m 1,0,-1
 568 958 l 2,1,2
 680 958 680 958 718 1008.5 c 128,-1,3
 756 1059 756 1059 756 1186 c 0,4,5
 756 1251 756 1251 750.5 1288.5 c 128,-1,6
 745 1326 745 1326 726.5 1359.5 c 128,-1,7
 708 1393 708 1393 669.5 1407 c 128,-1,8
 631 1421 631 1421 568 1421 c 2,9,-1
 460 1421 l 1,10,-1
 460 958 l 1,0,-1
123 0 m 1,11,-1
 123 1658 l 1,12,-1
 641 1658 l 2,13,14
 1073 1658 1073 1658 1073 1182 c 0,15,16
 1073 1053 1073 1053 1039 961.5 c 128,-1,17
 1005 870 1005 870 941 818.5 c 128,-1,18
 877 767 877 767 796 744.5 c 128,-1,19
 715 722 715 722 610 722 c 2,20,-1
 460 722 l 1,21,-1
 460 0 l 1,22,-1
 123 0 l 1,11,-1
EndSplineSet
EndChar

StartChar: afii10037
Encoding: 1059 1059 282
Width: 1076
GlyphClass: 2
Flags: W
LayerCount: 2
UndoRedoHistory
Layer: 1
Undoes
EndUndoes
Redoes
EndRedoes
EndUndoRedoHistory
Fore
SplineSet
108 -311 m 1,0,-1
 108 -80 l 1,1,2
 138 -82 138 -82 166 -82 c 0,3,4
 307 -82 307 -82 365 -34 c 0,5,6
 410 3 410 3 410 80 c 0,7,8
 410 120 410 120 398 170 c 2,9,-1
 42 1658 l 1,10,-1
 355 1658 l 1,11,-1
 495 975 l 1,12,-1
 563 509 l 1,13,-1
 617 974 l 1,14,-1
 736 1658 l 1,15,-1
 1055 1658 l 1,16,-1
 725 131 l 2,17,18
 704 33 704 33 684 -30.5 c 128,-1,19
 664 -94 664 -94 631.5 -148.5 c 128,-1,20
 599 -203 599 -203 558.5 -232.5 c 128,-1,21
 518 -262 518 -262 453 -282.5 c 0,22,23
 388 -302 388 -302 306 -308 c 0,24,25
 253 -312 253 -312 186 -312 c 0,26,27
 149 -312 149 -312 108 -311 c 1,0,-1
EndSplineSet
EndChar

StartChar: afii10038
Encoding: 1060 1060 283
Width: 1509
GlyphClass: 2
Flags: W
LayerCount: 2
UndoRedoHistory
Layer: 1
Undoes
EndUndoes
Redoes
EndRedoes
EndUndoRedoHistory
Fore
SplineSet
930 398 m 0,0,1
 938 398 938 398 946 398 c 0,2,3
 1040 398 1040 398 1076 443 c 0,4,5
 1116 492 1116 492 1115 601 c 2,6,-1
 1115 1079 l 2,7,8
 1115 1189 1115 1189 1075 1241 c 0,9,10
 1036 1292 1036 1292 931 1292 c 0,11,12
 929 1292 929 1292 927 1292 c 128,-1,13
 925 1292 925 1292 911.5 1291.5 c 128,-1,14
 898 1291 898 1291 895 1291 c 1,15,-1
 895 399 l 1,16,17
 899 399 899 399 913 398.5 c 128,-1,18
 927 398 927 398 930 398 c 0,0,1
581 397 m 0,19,20
 598 397 598 397 610 399 c 1,21,-1
 610 1291 l 1,22,23
 607 1291 607 1291 594.5 1291.5 c 128,-1,24
 582 1292 582 1292 579 1292 c 0,25,26
 577 1292 577 1292 575 1292 c 0,27,28
 472 1292 472 1292 434 1242 c 0,29,30
 394 1190 394 1190 394 1080 c 2,31,-1
 394 602 l 2,32,33
 394 492 394 492 434 442 c 0,34,35
 471 396 471 396 565 397 c 0,36,37
 573 397 573 397 581 397 c 0,19,20
610 -61 m 1,38,-1
 610 192 l 1,39,-1
 566 190 l 1,40,41
 536 188 536 188 508 188 c 0,42,43
 333 188 333 188 223 284 c 0,44,45
 95 396 95 396 95 605 c 2,46,-1
 95 1077 l 2,47,48
 96 1282 96 1282 222 1394 c 0,49,50
 334 1492 334 1492 509 1493 c 0,51,52
 533 1493 533 1493 558 1491 c 1,53,-1
 610 1489 l 1,54,-1
 610 1770 l 1,55,-1
 895 1770 l 1,56,-1
 895 1490 l 1,57,-1
 943 1491 l 1,58,59
 969 1493 969 1493 993 1493 c 0,60,61
 1174 1492 1174 1492 1286 1394 c 0,62,63
 1414 1282 1414 1282 1414 1076 c 2,64,-1
 1414 605 l 2,65,66
 1414 398 1414 398 1288 285 c 0,67,68
 1179 188 1179 188 1007 188 c 0,69,70
 980 188 980 188 951 190 c 1,71,-1
 895 192 l 1,72,-1
 895 -61 l 1,73,-1
 610 -61 l 1,38,-1
EndSplineSet
EndChar

StartChar: afii10040
Encoding: 1062 1062 285
Width: 1377
GlyphClass: 2
Flags: W
LayerCount: 2
UndoRedoHistory
Layer: 1
Undoes
EndUndoes
Redoes
EndRedoes
EndUndoRedoHistory
Fore
SplineSet
1087 -345 m 1,0,-1
 1046 0 l 1,1,-1
 128 0 l 1,2,-1
 128 1658 l 1,3,-1
 466 1658 l 1,4,-1
 466 230 l 1,5,-1
 789 230 l 1,6,-1
 789 1658 l 1,7,-1
 1126 1658 l 1,8,-1
 1126 230 l 1,9,-1
 1336 230 l 1,10,-1
 1336 -345 l 1,11,-1
 1087 -345 l 1,0,-1
EndSplineSet
EndChar

StartChar: afii10041
Encoding: 1063 1063 286
Width: 1208
GlyphClass: 2
Flags: W
LayerCount: 2
UndoRedoHistory
Layer: 1
Undoes
EndUndoes
Redoes
EndRedoes
EndUndoRedoHistory
Fore
SplineSet
742 0 m 1,0,-1
 742 705 l 1,1,2
 627 686 627 686 536 686 c 0,3,4
 338 686 338 686 215 790.5 c 128,-1,5
 92 895 92 895 92 1084 c 2,6,-1
 92 1658 l 1,7,-1
 418 1658 l 1,8,-1
 418 1085 l 2,9,10
 418 1037 418 1037 424.5 1006.5 c 128,-1,11
 431 976 431 976 451 948.5 c 128,-1,12
 471 921 471 921 512.5 908 c 128,-1,13
 554 895 554 895 618 895 c 0,14,15
 674 895 674 895 742 908 c 1,16,-1
 742 1658 l 1,17,-1
 1079 1658 l 1,18,-1
 1079 0 l 1,19,-1
 742 0 l 1,0,-1
EndSplineSet
EndChar

StartChar: afii10042
Encoding: 1064 1064 287
Width: 1655
GlyphClass: 2
Flags: W
LayerCount: 2
UndoRedoHistory
Layer: 1
Undoes
EndUndoes
Redoes
EndRedoes
EndUndoRedoHistory
Fore
SplineSet
128 0 m 1,0,-1
 128 1658 l 1,1,-1
 451 1658 l 1,2,-1
 451 242 l 1,3,-1
 671 242 l 1,4,-1
 671 1658 l 1,5,-1
 993 1658 l 1,6,-1
 993 242 l 1,7,-1
 1205 242 l 1,8,-1
 1205 1658 l 1,9,-1
 1527 1658 l 1,10,-1
 1527 0 l 1,11,-1
 128 0 l 1,0,-1
EndSplineSet
EndChar

StartChar: afii10043
Encoding: 1065 1065 288
Width: 1817
GlyphClass: 2
Flags: W
LayerCount: 2
UndoRedoHistory
Layer: 1
Undoes
EndUndoes
Redoes
EndRedoes
EndUndoRedoHistory
Fore
SplineSet
1489 -345 m 1,0,-1
 1452 0 l 1,1,-1
 128 0 l 1,2,-1
 128 1658 l 1,3,-1
 450 1658 l 1,4,-1
 450 230 l 1,5,-1
 671 230 l 1,6,-1
 671 1658 l 1,7,-1
 993 1658 l 1,8,-1
 993 230 l 1,9,-1
 1206 230 l 1,10,-1
 1206 1658 l 1,11,-1
 1528 1658 l 1,12,-1
 1528 230 l 1,13,-1
 1738 230 l 1,14,-1
 1738 -345 l 1,15,-1
 1489 -345 l 1,0,-1
EndSplineSet
EndChar

StartChar: afii10044
Encoding: 1066 1066 289
Width: 1262
GlyphClass: 2
Flags: W
LayerCount: 2
UndoRedoHistory
Layer: 1
Undoes
EndUndoes
Redoes
EndRedoes
EndUndoRedoHistory
Fore
SplineSet
610 226 m 1,0,-1
 670 226 l 2,1,2
 788 226 788 226 836 284 c 0,3,4
 883 340 883 340 883 477 c 0,5,6
 883 483 883 483 883 488 c 0,7,8
 881 608 881 608 834 667 c 128,-1,9
 787 726 787 726 665 726 c 2,10,-1
 610 726 l 1,11,-1
 610 226 l 1,0,-1
273 0 m 1,12,-1
 273 1423 l 1,13,-1
 -15 1423 l 1,14,-1
 -15 1658 l 1,15,-1
 610 1658 l 1,16,-1
 610 961 l 1,17,-1
 688 961 l 2,18,19
 943 961 943 961 1069.5 849 c 128,-1,20
 1196 737 1196 737 1196 483 c 0,21,22
 1196 368 1196 368 1170.5 282.5 c 128,-1,23
 1145 197 1145 197 1100.5 143.5 c 128,-1,24
 1056 90 1056 90 988 57.5 c 128,-1,25
 920 25 920 25 843.5 12.5 c 128,-1,26
 767 0 767 0 668 0 c 2,27,-1
 273 0 l 1,12,-1
EndSplineSet
EndChar

StartChar: afii10045
Encoding: 1067 1067 290
Width: 1652
GlyphClass: 2
Flags: W
LayerCount: 2
UndoRedoHistory
Layer: 1
Undoes
EndUndoes
Redoes
EndRedoes
EndUndoRedoHistory
Fore
SplineSet
1186 0 m 1,0,-1
 1186 1658 l 1,1,-1
 1523 1658 l 1,2,-1
 1523 0 l 1,3,-1
 1186 0 l 1,0,-1
466 226 m 1,4,-1
 516 226 l 2,5,6
 634 226 634 226 682 284 c 0,7,8
 729 340 729 340 729 477 c 0,9,10
 729 483 729 483 729 488 c 0,11,12
 727 608 727 608 680 667 c 128,-1,13
 633 726 633 726 511 726 c 2,14,-1
 466 726 l 1,15,-1
 466 226 l 1,4,-1
128 0 m 1,16,-1
 128 1658 l 1,17,-1
 466 1658 l 1,18,-1
 466 961 l 1,19,-1
 534 961 l 2,20,21
 789 961 789 961 915.5 849 c 128,-1,22
 1042 737 1042 737 1042 483 c 0,23,24
 1042 368 1042 368 1016.5 282.5 c 128,-1,25
 991 197 991 197 946.5 143.5 c 128,-1,26
 902 90 902 90 834 57.5 c 128,-1,27
 766 25 766 25 689.5 12.5 c 128,-1,28
 613 0 613 0 514 0 c 2,29,-1
 128 0 l 1,16,-1
EndSplineSet
EndChar

StartChar: afii10046
Encoding: 1068 1068 291
Width: 1108
GlyphClass: 2
Flags: W
LayerCount: 2
UndoRedoHistory
Layer: 1
Undoes
EndUndoes
Redoes
EndRedoes
EndUndoRedoHistory
Fore
SplineSet
466 226 m 1,0,-1
 514 226 l 2,1,2
 632 226 632 226 680 284 c 0,3,4
 727 340 727 340 727 477 c 0,5,6
 727 483 727 483 727 488 c 0,7,8
 725 608 725 608 678 667 c 128,-1,9
 631 726 631 726 509 726 c 2,10,-1
 466 726 l 1,11,-1
 466 226 l 1,0,-1
128 0 m 1,12,-1
 128 1658 l 1,13,-1
 466 1658 l 1,14,-1
 466 961 l 1,15,-1
 533 961 l 2,16,17
 788 961 788 961 914 849 c 128,-1,18
 1040 737 1040 737 1040 483 c 0,19,20
 1040 368 1040 368 1014.5 283 c 128,-1,21
 989 198 989 198 945 144 c 128,-1,22
 901 90 901 90 832.5 57.5 c 128,-1,23
 764 25 764 25 687.5 12.5 c 128,-1,24
 611 0 611 0 512 0 c 2,25,-1
 128 0 l 1,12,-1
EndSplineSet
EndChar

StartChar: afii10047
Encoding: 1069 1069 292
Width: 1149
GlyphClass: 2
Flags: W
LayerCount: 2
UndoRedoHistory
Layer: 1
Undoes
EndUndoes
Redoes
EndRedoes
EndUndoRedoHistory
Fore
SplineSet
565 -11 m 0,0,1
 435 -11 435 -11 343.5 22.5 c 128,-1,2
 252 56 252 56 199.5 121.5 c 128,-1,3
 147 187 147 187 123.5 271.5 c 128,-1,4
 100 356 100 356 100 468 c 2,5,-1
 100 555 l 1,6,-1
 428 555 l 1,7,-1
 428 457 l 2,8,9
 428 418 428 418 428.5 399 c 128,-1,10
 429 380 429 380 432.5 348 c 128,-1,11
 436 316 436 316 444.5 300 c 128,-1,12
 453 284 453 284 467.5 265.5 c 128,-1,13
 482 247 482 247 506.5 239.5 c 128,-1,14
 531 232 531 232 564 232 c 0,15,16
 603 232 603 232 630.5 245.5 c 128,-1,17
 658 259 658 259 673 278.5 c 128,-1,18
 688 298 688 298 696 332.5 c 128,-1,19
 704 367 704 367 706 396.5 c 128,-1,20
 708 426 708 426 708 472 c 2,21,-1
 708 750 l 1,22,-1
 435 750 l 1,23,-1
 435 930 l 1,24,-1
 708 930 l 1,25,-1
 708 1212 l 2,26,27
 708 1333 708 1333 677.5 1390 c 128,-1,28
 647 1447 647 1447 564 1447 c 0,29,30
 532 1447 532 1447 508 1439 c 128,-1,31
 484 1431 484 1431 469.5 1413 c 128,-1,32
 455 1395 455 1395 446 1377 c 128,-1,33
 437 1359 437 1359 433.5 1327.5 c 128,-1,34
 430 1296 430 1296 429 1273.5 c 128,-1,35
 428 1251 428 1251 428 1212 c 2,36,-1
 428 1111 l 1,37,-1
 100 1111 l 1,38,-1
 100 1190 l 2,39,40
 100 1305 100 1305 122.5 1391.5 c 128,-1,41
 145 1478 145 1478 196 1547.5 c 128,-1,42
 247 1617 247 1617 340 1653.5 c 128,-1,43
 433 1690 433 1690 565 1690 c 0,44,45
 701 1690 701 1690 797 1650.5 c 128,-1,46
 893 1611 893 1611 948 1535.5 c 128,-1,47
 1003 1460 1003 1460 1027 1362 c 128,-1,48
 1051 1264 1051 1264 1051 1134 c 2,49,-1
 1051 549 l 2,50,51
 1051 414 1051 414 1027 314.5 c 128,-1,52
 1003 215 1003 215 948 140 c 128,-1,53
 893 65 893 65 797.5 27 c 128,-1,54
 702 -11 702 -11 565 -11 c 0,0,1
EndSplineSet
EndChar

StartChar: afii10048
Encoding: 1070 1070 293
Width: 1638
GlyphClass: 2
Flags: W
LayerCount: 2
UndoRedoHistory
Layer: 1
Undoes
EndUndoes
Redoes
EndRedoes
EndUndoRedoHistory
Fore
SplineSet
1089 221 m 128,-1,1
 1125 221 1125 221 1150.5 233.5 c 128,-1,2
 1176 246 1176 246 1190.5 265 c 128,-1,3
 1205 284 1205 284 1213 315 c 128,-1,4
 1221 346 1221 346 1223.5 374.5 c 128,-1,5
 1226 403 1226 403 1226 443 c 2,6,-1
 1226 1219 l 2,7,8
 1226 1259 1226 1259 1223.5 1287.5 c 128,-1,9
 1221 1316 1221 1316 1213 1346 c 128,-1,10
 1205 1376 1205 1376 1190.5 1394.5 c 128,-1,11
 1176 1413 1176 1413 1150.5 1425 c 128,-1,12
 1125 1437 1125 1437 1089 1437 c 128,-1,13
 1053 1437 1053 1437 1027.5 1425 c 128,-1,14
 1002 1413 1002 1413 987.5 1394.5 c 128,-1,15
 973 1376 973 1376 965 1346 c 128,-1,16
 957 1316 957 1316 954.5 1287.5 c 128,-1,17
 952 1259 952 1259 952 1219 c 2,18,-1
 952 443 l 2,19,20
 952 403 952 403 954.5 374.5 c 128,-1,21
 957 346 957 346 965 315 c 128,-1,22
 973 284 973 284 987.5 265 c 128,-1,23
 1002 246 1002 246 1027.5 233.5 c 128,-1,0
 1053 221 1053 221 1089 221 c 128,-1,1
1089 -22 m 128,-1,25
 963 -22 963 -22 874.5 17 c 128,-1,26
 786 56 786 56 735 132.5 c 128,-1,27
 684 209 684 209 662 308.5 c 128,-1,28
 640 408 640 408 640 542 c 2,29,-1
 640 717 l 1,30,-1
 458 717 l 1,31,-1
 458 0 l 1,32,-1
 128 0 l 1,33,-1
 128 1658 l 1,34,-1
 458 1658 l 1,35,-1
 458 967 l 1,36,-1
 640 967 l 1,37,-1
 640 1121 l 2,38,39
 640 1255 640 1255 662 1353.5 c 128,-1,40
 684 1452 684 1452 735 1527.5 c 128,-1,41
 786 1603 786 1603 874.5 1641 c 128,-1,42
 963 1679 963 1679 1089 1679 c 128,-1,43
 1215 1679 1215 1679 1304 1640.5 c 128,-1,44
 1393 1602 1393 1602 1443.5 1526.5 c 128,-1,45
 1494 1451 1494 1451 1516.5 1352.5 c 128,-1,46
 1539 1254 1539 1254 1539 1121 c 2,47,-1
 1539 542 l 2,48,49
 1539 409 1539 409 1516.5 309.5 c 128,-1,50
 1494 210 1494 210 1443.5 133.5 c 128,-1,51
 1393 57 1393 57 1304 17.5 c 128,-1,24
 1215 -22 1215 -22 1089 -22 c 128,-1,25
EndSplineSet
EndChar

StartChar: afii10049
Encoding: 1071 1071 294
Width: 1209
GlyphClass: 2
Flags: W
LayerCount: 2
UndoRedoHistory
Layer: 1
Undoes
EndUndoes
Redoes
EndRedoes
EndUndoRedoHistory
Fore
SplineSet
693 901 m 2,0,-1
 744 901 l 1,1,-1
 744 1425 l 1,2,-1
 688 1425 l 2,3,4
 439 1425 439 1425 439 1171 c 0,5,6
 439 1040 439 1040 497.5 970.5 c 128,-1,7
 556 901 556 901 693 901 c 2,0,-1
20 0 m 1,8,-1
 345 739 l 1,9,10
 244 796 244 796 184.5 908 c 128,-1,11
 125 1020 125 1020 125 1173 c 0,12,13
 125 1432 125 1432 261.5 1545 c 128,-1,14
 398 1658 398 1658 680 1658 c 2,15,-1
 1081 1658 l 1,16,-1
 1081 0 l 1,17,-1
 744 0 l 1,18,-1
 744 662 l 1,19,-1
 669 662 l 1,20,-1
 641 662 l 1,21,-1
 387 0 l 1,22,-1
 20 0 l 1,8,-1
EndSplineSet
EndChar

StartChar: afii10051
Encoding: 1026 1026 295
Width: 1251
GlyphClass: 2
Flags: W
LayerCount: 2
UndoRedoHistory
Layer: 1
Undoes
EndUndoes
Redoes
EndRedoes
EndUndoRedoHistory
Fore
SplineSet
674 0 m 1,0,-1
 674 203 l 1,1,2
 773 203 773 203 816 257 c 128,-1,3
 859 311 859 311 859 419 c 2,4,-1
 859 656 l 2,5,6
 859 709 859 709 824 752 c 128,-1,7
 789 795 789 795 723 795 c 0,8,9
 654 795 654 795 563 739 c 1,10,-1
 563 0 l 1,11,-1
 231 0 l 1,12,-1
 231 1420 l 1,13,-1
 0 1420 l 1,14,-1
 0 1658 l 1,15,-1
 841 1658 l 1,16,-1
 841 1420 l 1,17,-1
 563 1420 l 1,18,-1
 563 910 l 1,19,20
 672 994 672 994 819 994 c 0,21,22
 910 994 910 994 988.5 959.5 c 128,-1,23
 1067 925 1067 925 1118 853 c 128,-1,24
 1169 781 1169 781 1169 685 c 2,25,-1
 1169 418 l 2,26,27
 1169 191 1169 191 1070.5 95.5 c 128,-1,28
 972 0 972 0 742 0 c 2,29,-1
 674 0 l 1,0,-1
EndSplineSet
EndChar

StartChar: afii10053
Encoding: 1028 1028 297
Width: 1109
GlyphClass: 2
Flags: W
LayerCount: 2
UndoRedoHistory
Layer: 1
Undoes
EndUndoes
Redoes
EndRedoes
EndUndoRedoHistory
Fore
SplineSet
584 -22 m 0,0,1
 448 -22 448 -22 352 17.5 c 128,-1,2
 256 57 256 57 201 133 c 128,-1,3
 146 209 146 209 122 307 c 128,-1,4
 98 405 98 405 98 535 c 2,5,-1
 98 1120 l 2,6,7
 98 1255 98 1255 122 1354 c 128,-1,8
 146 1453 146 1453 201 1528 c 128,-1,9
 256 1603 256 1603 351.5 1641 c 128,-1,10
 447 1679 447 1679 584 1679 c 0,11,12
 714 1679 714 1679 805.5 1645.5 c 128,-1,13
 897 1612 897 1612 949.5 1547 c 128,-1,14
 1002 1482 1002 1482 1025.5 1397.5 c 128,-1,15
 1049 1313 1049 1313 1049 1200 c 2,16,-1
 1049 1112 l 1,17,-1
 720 1112 l 1,18,-1
 720 1212 l 2,19,20
 720 1240 720 1240 720 1251 c 128,-1,21
 720 1262 720 1262 719 1287 c 128,-1,22
 718 1312 718 1312 715.5 1322.5 c 128,-1,23
 713 1333 713 1333 708.5 1353 c 128,-1,24
 704 1373 704 1373 697.5 1382 c 128,-1,25
 691 1391 691 1391 681 1404 c 128,-1,26
 671 1417 671 1417 657.5 1422.5 c 128,-1,27
 644 1428 644 1428 625.5 1432.5 c 128,-1,28
 607 1437 607 1437 585 1437 c 0,29,30
 546 1437 546 1437 518.5 1423.5 c 128,-1,31
 491 1410 491 1410 476 1390 c 128,-1,32
 461 1370 461 1370 453 1335.5 c 128,-1,33
 445 1301 445 1301 443 1271.5 c 128,-1,34
 441 1242 441 1242 441 1197 c 2,35,-1
 441 938 l 1,36,-1
 744 938 l 1,37,-1
 744 745 l 1,38,-1
 441 745 l 1,39,-1
 441 456 l 2,40,41
 441 335 441 335 471.5 278 c 128,-1,42
 502 221 502 221 585 221 c 0,43,44
 617 221 617 221 641 229 c 128,-1,45
 665 237 665 237 679.5 255.5 c 128,-1,46
 694 274 694 274 702.5 291.5 c 128,-1,47
 711 309 711 309 714.5 341 c 128,-1,48
 718 373 718 373 719 395 c 128,-1,49
 720 417 720 417 720 456 c 2,50,-1
 720 556 l 1,51,-1
 1049 556 l 1,52,-1
 1049 478 l 2,53,54
 1049 363 1049 363 1026.5 276.5 c 128,-1,55
 1004 190 1004 190 953 120.5 c 128,-1,56
 902 51 902 51 809 14.5 c 128,-1,57
 716 -22 716 -22 584 -22 c 0,0,1
EndSplineSet
EndChar

StartChar: afii10055
Encoding: 1030 1030 299
Width: 557
GlyphClass: 2
Flags: W
LayerCount: 2
UndoRedoHistory
Layer: 1
Undoes
EndUndoes
Redoes
EndRedoes
EndUndoRedoHistory
Fore
SplineSet
117 0 m 1,0,-1
 117 1658 l 1,1,-1
 452 1658 l 1,2,-1
 452 0 l 1,3,-1
 117 0 l 1,0,-1
EndSplineSet
EndChar

StartChar: afii10057
Encoding: 1032 1032 301
Width: 657
GlyphClass: 2
Flags: W
LayerCount: 2
UndoRedoHistory
Layer: 1
Undoes
EndUndoes
Redoes
EndRedoes
EndUndoRedoHistory
Fore
SplineSet
10 -38 m 1,0,-1
 10 198 l 1,1,2
 13 198 13 198 17 198 c 0,3,4
 135 198 135 198 176 234 c 0,5,6
 219 270 219 270 219 385 c 2,7,-1
 219 1658 l 1,8,-1
 557 1658 l 1,9,-1
 556 373 l 1,10,11
 554 265 554 265 536 192 c 128,-1,12
 518 119 518 119 475 65.5 c 128,-1,13
 432 12 432 12 358 -13 c 128,-1,14
 284 -38 284 -38 173 -38 c 2,15,-1
 10 -38 l 1,0,-1
EndSplineSet
EndChar

StartChar: afii10058
Encoding: 1033 1033 302
Width: 1793
GlyphClass: 2
Flags: W
LayerCount: 2
UndoRedoHistory
Layer: 1
Undoes
EndUndoes
Redoes
EndRedoes
EndUndoRedoHistory
Fore
SplineSet
1188 226 m 1,0,-1
 1216 226 l 2,1,2
 1334 226 1334 226 1383 284 c 0,3,4
 1429 339 1429 339 1429 471 c 0,5,6
 1429 479 1429 479 1429 488 c 0,7,8
 1427 608 1427 608 1380 667 c 128,-1,9
 1333 726 1333 726 1212 726 c 2,10,-1
 1188 726 l 1,11,-1
 1188 226 l 1,0,-1
22 0 m 1,12,-1
 22 240 l 1,13,14
 33 240 33 240 43 240 c 0,15,16
 117 240 117 240 158 264 c 0,17,18
 205 292 205 292 232 377.5 c 128,-1,19
 259 463 259 463 271 632 c 2,20,-1
 339 1658 l 1,21,-1
 1188 1658 l 1,22,-1
 1188 961 l 1,23,-1
 1235 961 l 2,24,25
 1490 961 1490 961 1616.5 849 c 128,-1,26
 1743 737 1743 737 1743 483 c 0,27,28
 1743 368 1743 368 1717.5 282.5 c 128,-1,29
 1692 197 1692 197 1647.5 143.5 c 128,-1,30
 1603 90 1603 90 1535 57.5 c 128,-1,31
 1467 25 1467 25 1390.5 12.5 c 128,-1,32
 1314 0 1314 0 1215 0 c 2,33,-1
 850 0 l 1,34,-1
 850 1403 l 1,35,-1
 642 1403 l 1,36,-1
 594 627 l 2,37,38
 573 275 573 275 470 135 c 0,39,40
 370 -1 370 -1 144 -1 c 0,41,42
 138 -1 138 -1 131 -1 c 1,43,-1
 22 0 l 1,12,-1
EndSplineSet
EndChar

StartChar: afii10059
Encoding: 1034 1034 303
Width: 1684
GlyphClass: 2
Flags: W
LayerCount: 2
UndoRedoHistory
Layer: 1
Undoes
EndUndoes
Redoes
EndRedoes
EndUndoRedoHistory
Fore
SplineSet
1071 226 m 1,0,-1
 1097 226 l 2,1,2
 1216 226 1216 226 1264 284 c 0,3,4
 1311 340 1311 340 1310 477 c 0,5,6
 1310 483 1310 483 1310 488 c 0,7,8
 1308 608 1308 608 1261 667 c 128,-1,9
 1214 726 1214 726 1092 726 c 2,10,-1
 1071 726 l 1,11,-1
 1071 226 l 1,0,-1
1095 0 m 2,12,-1
 734 1 l 1,13,-1
 734 724 l 1,14,-1
 466 724 l 1,15,-1
 466 1 l 1,16,-1
 128 1 l 1,17,-1
 128 1660 l 1,18,-1
 466 1660 l 1,19,-1
 466 978 l 1,20,-1
 734 978 l 1,21,-1
 734 1660 l 1,22,-1
 1071 1660 l 1,23,-1
 1071 961 l 1,24,-1
 1115 961 l 2,25,26
 1370 961 1370 961 1496.5 849 c 128,-1,27
 1623 737 1623 737 1623 483 c 0,28,29
 1623 368 1623 368 1597.5 282.5 c 128,-1,30
 1572 197 1572 197 1527.5 143.5 c 128,-1,31
 1483 90 1483 90 1415 57.5 c 128,-1,32
 1347 25 1347 25 1270.5 12.5 c 128,-1,33
 1194 0 1194 0 1095 0 c 2,12,-1
EndSplineSet
EndChar

StartChar: afii10060
Encoding: 1035 1035 304
Width: 1168
GlyphClass: 2
Flags: W
LayerCount: 2
UndoRedoHistory
Layer: 1
Undoes
EndUndoes
Redoes
EndRedoes
EndUndoRedoHistory
Fore
SplineSet
235 0 m 1,0,-1
 235 1409 l 1,1,-1
 11 1409 l 1,2,-1
 11 1658 l 1,3,-1
 808 1658 l 1,4,-1
 808 1409 l 1,5,-1
 569 1409 l 1,6,-1
 569 921 l 1,7,8
 581 927 581 927 603 936.5 c 128,-1,9
 625 946 625 946 688.5 961.5 c 128,-1,10
 752 977 752 977 811 977 c 0,11,12
 927 977 927 977 994.5 917.5 c 128,-1,13
 1062 858 1062 858 1062 760 c 2,14,-1
 1062 0 l 1,15,-1
 753 0 l 1,16,-1
 753 715 l 2,17,18
 753 756 753 756 738 775.5 c 128,-1,19
 723 795 723 795 681 794 c 0,20,21
 638 793 638 793 569 757 c 1,22,-1
 569 0 l 1,23,-1
 235 0 l 1,0,-1
EndSplineSet
EndChar

StartChar: afii10066
Encoding: 1073 1073 308
Width: 963
GlyphClass: 2
Flags: W
LayerCount: 2
UndoRedoHistory
Layer: 1
Undoes
EndUndoes
Redoes
EndRedoes
EndUndoRedoHistory
Fore
SplineSet
492 186 m 0,0,1
 548 186 548 186 565.5 233.5 c 128,-1,2
 583 281 583 281 583 430 c 2,3,-1
 583 774 l 2,4,5
 583 872 583 872 566 910.5 c 128,-1,6
 549 949 549 949 502 949 c 0,7,8
 466 949 466 949 441.5 923.5 c 128,-1,9
 417 898 417 898 397 835 c 1,10,-1
 397 443 l 2,11,12
 397 284 397 284 414 235 c 128,-1,13
 431 186 431 186 492 186 c 0,0,1
475 -19 m 0,14,15
 365 -18 365 -18 290 12 c 128,-1,16
 215 42 215 42 173 103 c 128,-1,17
 131 164 131 164 113 244.5 c 128,-1,18
 95 325 95 325 95 438 c 2,19,-1
 95 1064 l 2,20,21
 95 1187 95 1187 108 1278 c 128,-1,22
 121 1369 121 1369 142.5 1428 c 128,-1,23
 164 1487 164 1487 202 1528 c 128,-1,24
 240 1569 240 1569 279.5 1591 c 128,-1,25
 319 1613 319 1613 379 1631 c 128,-1,26
 439 1649 439 1649 494.5 1660.5 c 128,-1,27
 550 1672 550 1672 629.5 1695 c 128,-1,28
 709 1718 709 1718 778 1746 c 1,29,-1
 806 1508 l 1,30,31
 736 1475 736 1475 665.5 1456.5 c 128,-1,32
 595 1438 595 1438 555 1433 c 128,-1,33
 515 1428 515 1428 477.5 1417 c 128,-1,34
 440 1406 440 1406 422.5 1383 c 128,-1,35
 405 1360 405 1360 394.5 1311 c 128,-1,36
 384 1262 384 1262 384 1175 c 2,37,-1
 383 1083 l 1,38,39
 484 1136 484 1136 585 1136 c 0,40,41
 734 1136 734 1136 806.5 1035.5 c 128,-1,42
 879 935 879 935 879 701 c 2,43,-1
 879 426 l 2,44,45
 879 293 879 293 850.5 202.5 c 128,-1,46
 822 112 822 112 765.5 64.5 c 0,47,48
 709 16 709 16 640 -2 c 0,49,50
 575 -20 575 -20 485 -19 c 0,51,52
 480 -19 480 -19 475 -19 c 0,14,15
EndSplineSet
EndChar

StartChar: afii10067
Encoding: 1074 1074 309
Width: 989
GlyphClass: 2
Flags: W
LayerCount: 2
UndoRedoHistory
Layer: 1
Undoes
EndUndoes
Redoes
EndRedoes
EndUndoRedoHistory
Fore
SplineSet
413 717 m 1,0,-1
 497 717 l 2,1,2
 557 717 557 717 583.5 752.5 c 128,-1,3
 610 788 610 788 610 863 c 128,-1,4
 610 938 610 938 579.5 973.5 c 128,-1,5
 549 1009 549 1009 475 1009 c 2,6,-1
 413 1009 l 1,7,-1
 413 717 l 1,0,-1
413 185 m 1,8,-1
 468 185 l 2,9,10
 499 185 499 185 518.5 187 c 128,-1,11
 538 189 538 189 561.5 198 c 128,-1,12
 585 207 585 207 597.5 224.5 c 128,-1,13
 610 242 610 242 619 274 c 128,-1,14
 628 306 628 306 628 353 c 0,15,16
 628 398 628 398 623.5 430 c 128,-1,17
 619 462 619 462 607.5 482 c 128,-1,18
 596 502 596 502 585 513.5 c 128,-1,19
 574 525 574 525 552.5 530.5 c 128,-1,20
 531 536 531 536 515.5 537 c 128,-1,21
 500 538 500 538 472 538 c 2,22,-1
 413 538 l 1,23,-1
 413 185 l 1,8,-1
106 0 m 1,24,-1
 106 1184 l 1,25,-1
 505 1184 l 2,26,27
 601 1184 601 1184 671.5 1169.5 c 128,-1,28
 742 1155 742 1155 785.5 1130 c 128,-1,29
 829 1105 829 1105 855 1066.5 c 128,-1,30
 881 1028 881 1028 890.5 987 c 128,-1,31
 900 946 900 946 900 887 c 0,32,33
 900 782 900 782 858 726 c 0,34,35
 814 668 814 668 725 644 c 1,36,37
 773 633 773 633 809.5 612 c 128,-1,38
 846 591 846 591 868.5 564.5 c 128,-1,39
 891 538 891 538 905 502 c 128,-1,40
 919 466 919 466 924.5 428.5 c 128,-1,41
 930 391 930 391 930 344 c 0,42,43
 930 167 930 167 832 83.5 c 128,-1,44
 734 0 734 0 496 0 c 2,45,-1
 106 0 l 1,24,-1
EndSplineSet
EndChar

StartChar: afii10068
Encoding: 1075 1075 310
Width: 688
GlyphClass: 2
Flags: W
LayerCount: 2
UndoRedoHistory
Layer: 1
Undoes
EndUndoes
Redoes
EndRedoes
EndUndoRedoHistory
Fore
SplineSet
106 0 m 1,0,-1
 106 1184 l 1,1,-1
 668 1184 l 1,2,-1
 668 974 l 1,3,-1
 415 974 l 1,4,-1
 415 0 l 1,5,-1
 106 0 l 1,0,-1
EndSplineSet
EndChar

StartChar: afii10069
Encoding: 1076 1076 311
Width: 1187
GlyphClass: 2
Flags: W
LayerCount: 2
UndoRedoHistory
Layer: 1
Undoes
EndUndoes
Redoes
EndRedoes
EndUndoRedoHistory
Fore
SplineSet
375 197 m 1,0,-1
 700 197 l 1,1,-1
 700 990 l 1,2,-1
 592 990 l 1,3,-1
 576 804 l 1,4,5
 571 622 571 622 541 495 c 128,-1,6
 511 368 511 368 472 305.5 c 128,-1,7
 433 243 433 243 375 197 c 1,0,-1
48 -318 m 1,8,-1
 48 192 l 1,9,10
 138 243 138 243 198 324.5 c 128,-1,11
 258 406 258 406 294 542.5 c 128,-1,12
 330 679 330 679 337 874 c 1,13,-1
 361 1184 l 1,14,-1
 986 1184 l 1,15,-1
 986 197 l 1,16,-1
 1152 197 l 1,17,-1
 1152 -318 l 1,18,-1
 930 -318 l 1,19,-1
 908 0 l 1,20,-1
 292 0 l 1,21,-1
 272 -318 l 1,22,-1
 48 -318 l 1,8,-1
EndSplineSet
EndChar

StartChar: afii10072
Encoding: 1078 1078 314
Width: 1316
GlyphClass: 2
Flags: W
LayerCount: 2
UndoRedoHistory
Layer: 1
Undoes
EndUndoes
Redoes
EndRedoes
EndUndoRedoHistory
Fore
SplineSet
12 0 m 1,0,-1
 261 598 l 1,1,-1
 27 1184 l 1,2,-1
 303 1184 l 1,3,-1
 504 619 l 1,4,-1
 525 619 l 1,5,-1
 525 1184 l 1,6,-1
 782 1184 l 1,7,-1
 782 619 l 1,8,-1
 803 619 l 1,9,-1
 1013 1184 l 1,10,-1
 1289 1184 l 1,11,-1
 1046 598 l 1,12,-1
 1304 0 l 1,13,-1
 1040 0 l 1,14,-1
 803 574 l 1,15,-1
 782 574 l 1,16,-1
 782 0 l 1,17,-1
 525 0 l 1,18,-1
 525 574 l 1,19,-1
 503 574 l 1,20,-1
 276 0 l 1,21,-1
 12 0 l 1,0,-1
EndSplineSet
EndChar

StartChar: afii10073
Encoding: 1079 1079 315
Width: 882
GlyphClass: 2
Flags: W
LayerCount: 2
UndoRedoHistory
Layer: 1
Undoes
EndUndoes
Redoes
EndRedoes
EndUndoRedoHistory
Fore
SplineSet
439 -21 m 0,0,1
 330 -21 330 -21 256.5 9 c 128,-1,2
 183 39 183 39 144.5 97 c 128,-1,3
 106 155 106 155 90.5 224 c 128,-1,4
 75 293 75 293 75 388 c 1,5,-1
 326 388 l 1,6,7
 326 286 326 286 355.5 239 c 128,-1,8
 385 192 385 192 447 192 c 0,9,10
 513 192 513 192 535.5 236.5 c 128,-1,11
 558 281 558 281 558 365 c 0,12,13
 558 459 558 459 509.5 492.5 c 128,-1,14
 461 526 461 526 331 526 c 1,15,-1
 331 698 l 1,16,17
 457 698 457 698 499.5 731.5 c 128,-1,18
 542 765 542 765 542 853 c 0,19,20
 542 987 542 987 433 987 c 0,21,22
 370 987 370 987 343 950.5 c 128,-1,23
 316 914 316 914 316 819 c 1,24,-1
 68 819 l 1,25,26
 68 1004 68 1004 155.5 1103.5 c 128,-1,27
 243 1203 243 1203 447 1203 c 0,28,29
 543 1203 543 1203 616 1177.5 c 128,-1,30
 689 1152 689 1152 732.5 1106 c 128,-1,31
 776 1060 776 1060 797.5 1002.5 c 128,-1,32
 819 945 819 945 819 876 c 0,33,34
 819 757 819 757 767.5 695 c 128,-1,35
 716 633 716 633 638 615 c 1,36,37
 672 603 672 603 695 592 c 128,-1,38
 718 581 718 581 744 559 c 128,-1,39
 770 537 770 537 786 508 c 128,-1,40
 802 479 802 479 812.5 432.5 c 128,-1,41
 823 386 823 386 823 325 c 0,42,43
 823 163 823 163 728.5 71 c 128,-1,44
 634 -21 634 -21 439 -21 c 0,0,1
EndSplineSet
EndChar

StartChar: afii10074
Encoding: 1080 1080 316
Width: 1019
GlyphClass: 2
Flags: W
LayerCount: 2
UndoRedoHistory
Layer: 1
Undoes
EndUndoes
Redoes
EndRedoes
EndUndoRedoHistory
Fore
SplineSet
106 0 m 1,0,-1
 106 1184 l 1,1,-1
 354 1184 l 1,2,-1
 354 518 l 1,3,-1
 673 1184 l 1,4,-1
 913 1184 l 1,5,-1
 913 0 l 1,6,-1
 663 0 l 1,7,-1
 663 664 l 1,8,-1
 350 0 l 1,9,-1
 106 0 l 1,0,-1
EndSplineSet
EndChar

StartChar: afii10076
Encoding: 1082 1082 318
Width: 1001
GlyphClass: 2
Flags: W
LayerCount: 2
UndoRedoHistory
Layer: 1
Undoes
EndUndoes
Redoes
EndRedoes
EndUndoRedoHistory
Fore
SplineSet
106 0 m 1,0,-1
 106 1184 l 1,1,-1
 415 1184 l 1,2,-1
 415 712 l 1,3,-1
 466 712 l 1,4,-1
 652 1184 l 1,5,-1
 983 1184 l 1,6,-1
 748 621 l 1,7,-1
 988 0 l 1,8,-1
 660 0 l 1,9,-1
 466 531 l 1,10,-1
 415 531 l 1,11,-1
 415 0 l 1,12,-1
 106 0 l 1,0,-1
EndSplineSet
EndChar

StartChar: afii10077
Encoding: 1083 1083 319
Width: 1120
GlyphClass: 2
Flags: W
LayerCount: 2
UndoRedoHistory
Layer: 1
Undoes
EndUndoes
Redoes
EndRedoes
EndUndoRedoHistory
Fore
SplineSet
30 -5 m 1,0,-1
 30 210 l 1,1,2
 46 209 46 209 61 209 c 0,3,4
 96 209 96 209 122 217 c 0,5,6
 158 229 158 229 180.5 251 c 128,-1,7
 203 273 203 273 216.5 328.5 c 128,-1,8
 230 384 230 384 235.5 438.5 c 128,-1,9
 241 493 241 493 248 597 c 2,10,-1
 291 1184 l 1,11,-1
 1015 1184 l 1,12,-1
 1015 0 l 1,13,-1
 705 0 l 1,14,-1
 705 968 l 1,15,-1
 555 968 l 1,16,-1
 527 573 l 1,17,18
 511 331 511 331 471.5 207 c 128,-1,19
 432 83 432 83 358 35.5 c 128,-1,20
 284 -12 284 -12 147 -12 c 0,21,22
 102 -12 102 -12 30 -5 c 1,0,-1
EndSplineSet
EndChar

StartChar: afii10078
Encoding: 1084 1084 320
Width: 1169
GlyphClass: 2
Flags: W
LayerCount: 2
UndoRedoHistory
Layer: 1
Undoes
EndUndoes
Redoes
EndRedoes
EndUndoRedoHistory
Fore
SplineSet
103 0 m 1,0,-1
 109 1184 l 1,1,-1
 338 1184 l 1,2,-1
 585 583 l 1,3,-1
 831 1184 l 1,4,-1
 1060 1184 l 1,5,-1
 1066 0 l 1,6,-1
 821 0 l 1,7,-1
 821 632 l 1,8,-1
 630 165 l 1,9,-1
 539 165 l 1,10,-1
 348 633 l 1,11,-1
 348 0 l 1,12,-1
 103 0 l 1,0,-1
EndSplineSet
EndChar

StartChar: afii10079
Encoding: 1085 1085 321
Width: 1043
GlyphClass: 2
Flags: W
LayerCount: 2
UndoRedoHistory
Layer: 1
Undoes
EndUndoes
Redoes
EndRedoes
EndUndoRedoHistory
Fore
SplineSet
106 0 m 1,0,-1
 106 1184 l 1,1,-1
 415 1184 l 1,2,-1
 415 717 l 1,3,-1
 628 717 l 1,4,-1
 628 1184 l 1,5,-1
 937 1184 l 1,6,-1
 937 0 l 1,7,-1
 628 0 l 1,8,-1
 628 502 l 1,9,-1
 415 502 l 1,10,-1
 415 0 l 1,11,-1
 106 0 l 1,0,-1
EndSplineSet
EndChar

StartChar: afii10081
Encoding: 1087 1087 323
Width: 1015
GlyphClass: 2
Flags: W
LayerCount: 2
UndoRedoHistory
Layer: 1
Undoes
EndUndoes
Redoes
EndRedoes
EndUndoRedoHistory
Fore
SplineSet
106 0 m 1,0,-1
 106 1184 l 1,1,-1
 909 1184 l 1,2,-1
 909 0 l 1,3,-1
 600 0 l 1,4,-1
 600 968 l 1,5,-1
 415 968 l 1,6,-1
 415 0 l 1,7,-1
 106 0 l 1,0,-1
EndSplineSet
EndChar

StartChar: afii10084
Encoding: 1090 1090 326
Width: 798
GlyphClass: 2
Flags: W
LayerCount: 2
UndoRedoHistory
Layer: 1
Undoes
EndUndoes
Redoes
EndRedoes
EndUndoRedoHistory
Fore
SplineSet
243 0 m 1,0,-1
 243 970 l 1,1,-1
 31 970 l 1,2,-1
 31 1184 l 1,3,-1
 767 1184 l 1,4,-1
 767 970 l 1,5,-1
 553 970 l 1,6,-1
 553 0 l 1,7,-1
 243 0 l 1,0,-1
EndSplineSet
EndChar

StartChar: afii10085
Encoding: 1091 1091 327
Width: 924
GlyphClass: 2
Flags: W
LayerCount: 2
UndoRedoHistory
Layer: 1
Undoes
EndUndoes
Redoes
EndRedoes
EndUndoRedoHistory
Fore
SplineSet
120 -358 m 1,0,-1
 101 -131 l 1,1,2
 170 -131 170 -131 209.5 -126 c 128,-1,3
 249 -121 249 -121 276.5 -109.5 c 128,-1,4
 304 -98 304 -98 311.5 -73 c 128,-1,5
 319 -48 319 -48 317 -15 c 128,-1,6
 315 18 315 18 302 74 c 2,7,-1
 25 1184 l 1,8,-1
 295 1184 l 1,9,-1
 394 703 l 1,10,-1
 467 338 l 1,11,-1
 532 703 l 1,12,-1
 620 1184 l 1,13,-1
 899 1184 l 1,14,-1
 608 -14 l 2,15,16
 590 -90 590 -90 571.5 -140 c 128,-1,17
 553 -190 553 -190 525.5 -231 c 128,-1,18
 498 -272 498 -272 466 -294.5 c 128,-1,19
 434 -317 434 -317 382.5 -332.5 c 128,-1,20
 331 -348 331 -348 270 -353 c 128,-1,21
 209 -358 209 -358 120 -358 c 1,0,-1
EndSplineSet
EndChar

StartChar: afii10086
Encoding: 1092 1092 328
Width: 1386
GlyphClass: 2
Flags: W
LayerCount: 2
UndoRedoHistory
Layer: 1
Undoes
EndUndoes
Redoes
EndRedoes
EndUndoRedoHistory
Fore
SplineSet
845 220 m 2,0,1
 921 220 921 220 967 276.5 c 128,-1,2
 1013 333 1013 333 1013 444 c 2,3,-1
 1013 791 l 2,4,5
 1013 895 1013 895 967 946 c 128,-1,6
 921 997 921 997 847 997 c 2,7,-1
 827 997 l 1,8,-1
 827 220 l 1,9,-1
 845 220 l 2,0,1
535 220 m 2,10,-1
 555 220 l 1,11,-1
 555 997 l 1,12,-1
 533 997 l 2,13,14
 459 997 459 997 415.5 946 c 128,-1,15
 372 895 372 895 372 791 c 2,16,-1
 372 444 l 2,17,18
 372 220 372 220 535 220 c 2,10,-1
555 -363 m 1,19,-1
 555 29 l 1,20,-1
 526 29 l 2,21,22
 469 29 469 29 413 40.5 c 128,-1,23
 357 52 357 52 296.5 82.5 c 128,-1,24
 236 113 236 113 190.5 159.5 c 128,-1,25
 145 206 145 206 115.5 283.5 c 128,-1,26
 86 361 86 361 86 460 c 2,27,-1
 86 762 l 2,28,29
 86 846 86 846 111.5 916 c 128,-1,30
 137 986 137 986 179.5 1033 c 128,-1,31
 222 1080 222 1080 279 1113 c 128,-1,32
 336 1146 336 1146 398 1161 c 128,-1,33
 460 1176 460 1176 526 1176 c 2,34,-1
 555 1176 l 1,35,-1
 555 1657 l 1,36,-1
 827 1657 l 1,37,-1
 827 1176 l 1,38,-1
 863 1176 l 2,39,40
 929 1176 929 1176 991.5 1161 c 128,-1,41
 1054 1146 1054 1146 1110.5 1113 c 128,-1,42
 1167 1080 1167 1080 1208.5 1032.5 c 128,-1,43
 1250 985 1250 985 1275 915.5 c 128,-1,44
 1300 846 1300 846 1300 762 c 2,45,-1
 1300 460 l 2,46,47
 1300 361 1300 361 1270.5 283.5 c 128,-1,48
 1241 206 1241 206 1195.5 159.5 c 128,-1,49
 1150 113 1150 113 1090 82.5 c 128,-1,50
 1030 52 1030 52 974 40.5 c 128,-1,51
 918 29 918 29 862 29 c 2,52,-1
 827 29 l 1,53,-1
 827 -363 l 1,54,-1
 555 -363 l 1,19,-1
EndSplineSet
EndChar

StartChar: afii10088
Encoding: 1094 1094 330
Width: 1127
GlyphClass: 2
Flags: W
LayerCount: 2
UndoRedoHistory
Layer: 1
Undoes
EndUndoes
Redoes
EndRedoes
EndUndoRedoHistory
Fore
SplineSet
870 -318 m 1,0,-1
 848 0 l 1,1,-1
 105 0 l 1,2,-1
 105 1184 l 1,3,-1
 415 1184 l 1,4,-1
 415 197 l 1,5,-1
 616 197 l 1,6,-1
 616 1184 l 1,7,-1
 926 1184 l 1,8,-1
 926 197 l 1,9,-1
 1092 197 l 1,10,-1
 1092 -318 l 1,11,-1
 870 -318 l 1,0,-1
EndSplineSet
EndChar

StartChar: afii10089
Encoding: 1095 1095 331
Width: 988
GlyphClass: 2
Flags: W
LayerCount: 2
UndoRedoHistory
Layer: 1
Undoes
EndUndoes
Redoes
EndRedoes
EndUndoRedoHistory
Fore
SplineSet
573 0 m 1,0,-1
 573 473 l 1,1,2
 499 466 499 466 452 466 c 0,3,4
 252 466 252 466 165 538 c 128,-1,5
 78 610 78 610 78 764 c 2,6,-1
 78 1184 l 1,7,-1
 388 1184 l 1,8,-1
 388 777 l 2,9,10
 388 711 388 711 414 681.5 c 128,-1,11
 440 652 440 652 518 651 c 0,12,13
 542 651 542 651 573 654 c 1,14,-1
 573 1184 l 1,15,-1
 882 1184 l 1,16,-1
 882 0 l 1,17,-1
 573 0 l 1,0,-1
EndSplineSet
EndChar

StartChar: afii10090
Encoding: 1096 1096 332
Width: 1419
GlyphClass: 2
Flags: W
LayerCount: 2
UndoRedoHistory
Layer: 1
Undoes
EndUndoes
Redoes
EndRedoes
EndUndoRedoHistory
Fore
SplineSet
106 0 m 1,0,-1
 106 1184 l 1,1,-1
 397 1184 l 1,2,-1
 397 211 l 1,3,-1
 561 211 l 1,4,-1
 561 1184 l 1,5,-1
 853 1184 l 1,6,-1
 853 211 l 1,7,-1
 1022 211 l 1,8,-1
 1022 1184 l 1,9,-1
 1313 1184 l 1,10,-1
 1313 0 l 1,11,-1
 106 0 l 1,0,-1
EndSplineSet
EndChar

StartChar: afii10091
Encoding: 1097 1097 333
Width: 1545
GlyphClass: 2
Flags: W
LayerCount: 2
UndoRedoHistory
Layer: 1
Undoes
EndUndoes
Redoes
EndRedoes
EndUndoRedoHistory
Fore
SplineSet
1258 -318 m 1,0,-1
 1236 0 l 1,1,-1
 106 0 l 1,2,-1
 106 1184 l 1,3,-1
 399 1184 l 1,4,-1
 399 197 l 1,5,-1
 560 197 l 1,6,-1
 560 1184 l 1,7,-1
 853 1184 l 1,8,-1
 853 197 l 1,9,-1
 1021 197 l 1,10,-1
 1021 1184 l 1,11,-1
 1314 1184 l 1,12,-1
 1314 197 l 1,13,-1
 1480 197 l 1,14,-1
 1480 -318 l 1,15,-1
 1258 -318 l 1,0,-1
EndSplineSet
EndChar

StartChar: afii10092
Encoding: 1098 1098 334
Width: 1103
GlyphClass: 2
Flags: W
LayerCount: 2
UndoRedoHistory
Layer: 1
Undoes
EndUndoes
Redoes
EndRedoes
EndUndoRedoHistory
Fore
SplineSet
545 177 m 1,0,-1
 550 177 l 1,1,2
 674 179 674 179 722 213 c 128,-1,3
 770 247 770 247 770 346 c 0,4,5
 770 447 770 447 723.5 483 c 128,-1,6
 677 519 677 519 555 521 c 1,7,-1
 545 521 l 1,8,-1
 545 177 l 1,0,-1
236 0 m 1,9,-1
 236 971 l 1,10,-1
 6 971 l 1,11,-1
 6 1184 l 1,12,-1
 545 1184 l 1,13,-1
 545 703 l 1,14,-1
 559 703 l 2,15,16
 662 703 662 703 736.5 693 c 128,-1,17
 811 683 811 683 872.5 659.5 c 128,-1,18
 934 636 934 636 971.5 595.5 c 128,-1,19
 1009 555 1009 555 1029.5 493.5 c 128,-1,20
 1050 432 1050 432 1050 347 c 0,21,22
 1050 156 1050 156 936 78 c 128,-1,23
 822 0 822 0 553 0 c 2,24,-1
 236 0 l 1,9,-1
EndSplineSet
EndChar

StartChar: afii10093
Encoding: 1099 1099 335
Width: 1463
GlyphClass: 2
Flags: W
LayerCount: 2
UndoRedoHistory
Layer: 1
Undoes
EndUndoes
Redoes
EndRedoes
EndUndoRedoHistory
Fore
SplineSet
1048 0 m 1,0,-1
 1048 1184 l 1,1,-1
 1357 1184 l 1,2,-1
 1357 0 l 1,3,-1
 1048 0 l 1,0,-1
415 177 m 1,4,-1
 420 177 l 1,5,6
 544 179 544 179 592 213 c 128,-1,7
 640 247 640 247 640 346 c 0,8,9
 640 447 640 447 593.5 483 c 128,-1,10
 547 519 547 519 425 521 c 1,11,-1
 415 521 l 1,12,-1
 415 177 l 1,4,-1
106 0 m 1,13,-1
 106 1184 l 1,14,-1
 415 1184 l 1,15,-1
 415 703 l 1,16,-1
 429 703 l 2,17,18
 532 703 532 703 606.5 693 c 128,-1,19
 681 683 681 683 742.5 659.5 c 128,-1,20
 804 636 804 636 841.5 595.5 c 128,-1,21
 879 555 879 555 899.5 493.5 c 128,-1,22
 920 432 920 432 920 347 c 0,23,24
 920 156 920 156 806 78 c 128,-1,25
 692 0 692 0 423 0 c 2,26,-1
 106 0 l 1,13,-1
EndSplineSet
EndChar

StartChar: afii10094
Encoding: 1100 1100 336
Width: 969
GlyphClass: 2
Flags: W
LayerCount: 2
UndoRedoHistory
Layer: 1
Undoes
EndUndoes
Redoes
EndRedoes
EndUndoRedoHistory
Fore
SplineSet
415 177 m 1,0,-1
 420 177 l 1,1,2
 544 179 544 179 592 213 c 128,-1,3
 640 247 640 247 640 346 c 0,4,5
 640 447 640 447 593.5 483 c 128,-1,6
 547 519 547 519 425 521 c 1,7,-1
 415 521 l 1,8,-1
 415 177 l 1,0,-1
106 0 m 1,9,-1
 106 1184 l 1,10,-1
 415 1184 l 1,11,-1
 415 703 l 1,12,-1
 429 703 l 2,13,14
 532 703 532 703 606.5 693 c 128,-1,15
 681 683 681 683 742.5 659.5 c 128,-1,16
 804 636 804 636 841.5 595.5 c 128,-1,17
 879 555 879 555 899.5 493.5 c 128,-1,18
 920 432 920 432 920 347 c 0,19,20
 920 156 920 156 806 78 c 128,-1,21
 692 0 692 0 423 0 c 2,22,-1
 106 0 l 1,9,-1
EndSplineSet
EndChar

StartChar: afii10095
Encoding: 1101 1101 337
Width: 943
GlyphClass: 2
Flags: W
LayerCount: 2
UndoRedoHistory
Layer: 1
Undoes
EndUndoes
Redoes
EndRedoes
EndUndoRedoHistory
Fore
SplineSet
466 -20 m 0,0,1
 85 -20 85 -20 85 341 c 2,2,-1
 85 394 l 1,3,-1
 379 394 l 1,4,-1
 379 339 l 2,5,6
 379 262 379 262 399 231.5 c 128,-1,7
 419 201 419 201 464 201 c 0,8,9
 512 201 512 201 531 237 c 128,-1,10
 550 273 550 273 550 367 c 2,11,-1
 550 516 l 1,12,-1
 279 516 l 1,13,-1
 279 655 l 1,14,-1
 550 655 l 1,15,-1
 550 820 l 2,16,17
 550 913 550 913 530 947 c 128,-1,18
 510 981 510 981 464 981 c 0,19,20
 417 981 417 981 398 949 c 128,-1,21
 379 917 379 917 379 848 c 2,22,-1
 379 768 l 1,23,-1
 85 768 l 1,24,-1
 85 839 l 2,25,26
 85 1019 85 1019 181.5 1111 c 128,-1,27
 278 1203 278 1203 466 1203 c 0,28,29
 664 1203 664 1203 762.5 1094.5 c 128,-1,30
 861 986 861 986 861 786 c 2,31,-1
 861 396 l 2,32,33
 861 197 861 197 762.5 88.5 c 128,-1,34
 664 -20 664 -20 466 -20 c 0,0,1
EndSplineSet
EndChar

StartChar: afii10096
Encoding: 1102 1102 338
Width: 1372
GlyphClass: 2
Flags: W
LayerCount: 2
UndoRedoHistory
Layer: 1
Undoes
EndUndoes
Redoes
EndRedoes
EndUndoRedoHistory
Fore
SplineSet
918 203 m 0,0,1
 953 203 953 203 972.5 226 c 128,-1,2
 992 249 992 249 997.5 282.5 c 128,-1,3
 1003 316 1003 316 1003 370 c 2,4,-1
 1003 813 l 2,5,6
 1003 896 1003 896 985.5 938.5 c 128,-1,7
 968 981 968 981 918 981 c 0,8,9
 869 981 869 981 852 937.5 c 128,-1,10
 835 894 835 894 835 813 c 2,11,-1
 835 370 l 2,12,13
 835 289 835 289 852 246 c 128,-1,14
 869 203 869 203 918 203 c 0,0,1
918 -20 m 128,-1,16
 739 -20 739 -20 644.5 83.5 c 128,-1,17
 550 187 550 187 550 381 c 2,18,-1
 550 487 l 1,19,-1
 402 487 l 1,20,-1
 402 0 l 1,21,-1
 106 0 l 1,22,-1
 106 1184 l 1,23,-1
 402 1184 l 1,24,-1
 402 702 l 1,25,-1
 550 702 l 1,26,-1
 550 803 l 2,27,28
 550 996 550 996 644.5 1099.5 c 128,-1,29
 739 1203 739 1203 918 1203 c 128,-1,30
 1097 1203 1097 1203 1192.5 1100 c 128,-1,31
 1288 997 1288 997 1288 803 c 2,32,-1
 1288 381 l 2,33,34
 1288 187 1288 187 1192.5 83.5 c 128,-1,15
 1097 -20 1097 -20 918 -20 c 128,-1,16
EndSplineSet
EndChar

StartChar: afii10097
Encoding: 1103 1103 339
Width: 1016
GlyphClass: 2
Flags: W
LayerCount: 2
UndoRedoHistory
Layer: 1
Undoes
EndUndoes
Redoes
EndRedoes
EndUndoRedoHistory
Fore
SplineSet
589 614 m 1,0,-1
 601 614 l 1,1,-1
 601 1008 l 1,2,-1
 591 1008 l 2,3,4
 470 1008 470 1008 412 962 c 128,-1,5
 354 916 354 916 354 817 c 0,6,7
 354 715 354 715 411.5 665 c 128,-1,8
 469 615 469 615 589 614 c 1,0,-1
29 0 m 1,9,-1
 223 492 l 1,10,11
 149 528 149 528 111.5 612.5 c 128,-1,12
 74 697 74 697 74 816 c 0,13,14
 74 996 74 996 181 1090 c 128,-1,15
 288 1184 288 1184 525 1184 c 2,16,-1
 911 1184 l 1,17,-1
 911 0 l 1,18,-1
 601 0 l 1,19,-1
 601 434 l 1,20,21
 534 434 534 434 506 436 c 1,22,-1
 359 0 l 1,23,-1
 29 0 l 1,9,-1
EndSplineSet
EndChar

StartChar: afii10098
Encoding: 1169 1169 340
Width: 693
GlyphClass: 2
Flags: W
LayerCount: 2
UndoRedoHistory
Layer: 1
Undoes
EndUndoes
Redoes
EndRedoes
EndUndoRedoHistory
Fore
SplineSet
106 0 m 1,0,-1
 106 1184 l 1,1,-1
 515 1184 l 1,2,-1
 515 1422 l 1,3,-1
 676 1422 l 1,4,-1
 676 974 l 1,5,-1
 415 974 l 1,6,-1
 415 0 l 1,7,-1
 106 0 l 1,0,-1
EndSplineSet
EndChar

StartChar: afii10099
Encoding: 1106 1106 341
Width: 1023
GlyphClass: 2
Flags: W
LayerCount: 2
UndoRedoHistory
Layer: 1
Undoes
EndUndoes
Redoes
EndRedoes
EndUndoRedoHistory
Fore
SplineSet
392 -326 m 1,0,-1
 392 -160 l 1,1,-1
 425 -160 l 2,2,3
 479 -160 479 -160 514.5 -147.5 c 128,-1,4
 550 -135 550 -135 572.5 -112 c 128,-1,5
 595 -89 595 -89 606.5 -44 c 128,-1,6
 618 1 618 1 622 52.5 c 128,-1,7
 626 104 626 104 626 187 c 2,8,-1
 626 668 l 2,9,10
 626 728 626 728 609 758 c 128,-1,11
 592 788 592 788 546 788 c 0,12,13
 509 788 509 788 428 754 c 1,14,-1
 428 0 l 1,15,-1
 119 0 l 1,16,-1
 119 1226 l 1,17,-1
 -18 1226 l 1,18,-1
 -18 1386 l 1,19,-1
 119 1386 l 1,20,-1
 119 1658 l 1,21,-1
 428 1658 l 1,22,-1
 428 1386 l 1,23,-1
 698 1386 l 1,24,-1
 698 1226 l 1,25,-1
 428 1226 l 1,26,-1
 428 928 l 1,27,28
 431 929 431 929 473 945.5 c 128,-1,29
 515 962 515 962 538 970 c 128,-1,30
 561 978 561 978 602.5 986.5 c 128,-1,31
 644 995 644 995 680 995 c 0,32,33
 935 995 935 995 935 676 c 2,34,-1
 935 210 l 2,35,36
 935 96 935 96 925.5 15.5 c 128,-1,37
 916 -65 916 -65 892.5 -126 c 128,-1,38
 869 -187 869 -187 834.5 -224.5 c 128,-1,39
 800 -262 800 -262 743 -285.5 c 128,-1,40
 686 -309 686 -309 616.5 -317.5 c 128,-1,41
 547 -326 547 -326 448 -326 c 2,42,-1
 392 -326 l 1,0,-1
EndSplineSet
EndChar

StartChar: afii10101
Encoding: 1108 1108 343
Width: 911
GlyphClass: 2
Flags: W
LayerCount: 2
UndoRedoHistory
Layer: 1
Undoes
EndUndoes
Redoes
EndRedoes
EndUndoRedoHistory
Fore
SplineSet
478 -20 m 0,0,1
 281 -20 281 -20 182.5 89 c 128,-1,2
 84 198 84 198 84 398 c 2,3,-1
 84 787 l 2,4,5
 84 987 84 987 182 1095 c 128,-1,6
 280 1203 280 1203 478 1203 c 0,7,8
 860 1203 860 1203 860 843 c 2,9,-1
 860 773 l 1,10,-1
 565 773 l 1,11,-1
 565 845 l 2,12,13
 565 922 565 922 545 952 c 128,-1,14
 525 982 525 982 480 982 c 0,15,16
 432 982 432 982 413 946 c 128,-1,17
 394 910 394 910 394 817 c 2,18,-1
 394 677 l 1,19,-1
 671 677 l 1,20,-1
 671 527 l 1,21,-1
 394 527 l 1,22,-1
 394 364 l 2,23,24
 394 271 394 271 414 237 c 128,-1,25
 434 203 434 203 480 203 c 0,26,27
 527 203 527 203 546 234.5 c 128,-1,28
 565 266 565 266 565 336 c 2,29,-1
 565 430 l 1,30,-1
 860 430 l 1,31,-1
 860 344 l 2,32,33
 860 165 860 165 763 72.5 c 128,-1,34
 666 -20 666 -20 478 -20 c 0,0,1
EndSplineSet
EndChar

StartChar: afii10103
Encoding: 1110 1110 345
Width: 506
GlyphClass: 2
Flags: W
LayerCount: 2
UndoRedoHistory
Layer: 1
Undoes
EndUndoes
Redoes
EndRedoes
EndUndoRedoHistory
Fore
SplineSet
101 1367 m 1,0,-1
 101 1602 l 1,1,-1
 412 1602 l 1,2,-1
 412 1367 l 1,3,-1
 101 1367 l 1,0,-1
101 0 m 1,4,-1
 101 1184 l 1,5,-1
 411 1184 l 1,6,-1
 411 0 l 1,7,-1
 101 0 l 1,4,-1
EndSplineSet
EndChar

StartChar: afii10105
Encoding: 1112 1112 347
Width: 512
GlyphClass: 2
Flags: W
LayerCount: 2
UndoRedoHistory
Layer: 1
Undoes
EndUndoes
Redoes
EndRedoes
EndUndoRedoHistory
Fore
SplineSet
128 1378 m 1,0,-1
 128 1613 l 1,1,-1
 440 1613 l 1,2,-1
 440 1378 l 1,3,-1
 128 1378 l 1,0,-1
-27 -325 m 1,4,-1
 -27 -103 l 1,5,6
 13 -110 13 -110 32 -110 c 0,7,8
 129 -110 129 -110 129 -2 c 2,9,-1
 129 1184 l 1,10,-1
 439 1184 l 1,11,-1
 439 -38 l 2,12,13
 439 -180 439 -180 359.5 -264 c 128,-1,14
 280 -348 280 -348 136 -348 c 0,15,16
 52 -348 52 -348 -27 -325 c 1,4,-1
EndSplineSet
EndChar

StartChar: afii10106
Encoding: 1113 1113 348
Width: 1581
GlyphClass: 2
Flags: W
LayerCount: 2
UndoRedoHistory
Layer: 1
Undoes
EndUndoes
Redoes
EndRedoes
EndUndoRedoHistory
Fore
SplineSet
1040 177 m 1,0,-1
 1046 177 l 1,1,2
 1158 179 1158 179 1202.5 215 c 128,-1,3
 1247 251 1247 251 1247 346 c 0,4,5
 1247 445 1247 445 1202.5 482.5 c 128,-1,6
 1158 520 1158 520 1045 521 c 1,7,-1
 1040 521 l 1,8,-1
 1040 177 l 1,0,-1
55 -5 m 1,9,-1
 55 210 l 1,10,11
 90 208 90 208 115 210 c 128,-1,12
 140 212 140 212 161.5 222 c 128,-1,13
 183 232 183 232 197.5 245.5 c 128,-1,14
 212 259 212 259 224.5 287.5 c 128,-1,15
 237 316 237 316 244.5 346.5 c 128,-1,16
 252 377 252 377 259 430 c 128,-1,17
 266 483 266 483 270.5 537 c 128,-1,18
 275 591 275 591 280 673 c 2,19,-1
 315 1184 l 1,20,-1
 1040 1184 l 1,21,-1
 1040 703 l 1,22,-1
 1055 703 l 2,23,24
 1178 703 1178 703 1262 686.5 c 128,-1,25
 1346 670 1346 670 1407.5 630 c 128,-1,26
 1469 590 1469 590 1498 520.5 c 128,-1,27
 1527 451 1527 451 1527 347 c 0,28,29
 1527 159 1527 159 1417 80.5 c 128,-1,30
 1307 2 1307 2 1048 0 c 1,31,-1
 730 0 l 1,32,-1
 730 968 l 1,33,-1
 580 968 l 1,34,-1
 555 610 l 1,35,36
 547 472 547 472 533.5 375.5 c 128,-1,37
 520 279 520 279 497 206.5 c 128,-1,38
 474 134 474 134 444 91.5 c 128,-1,39
 414 49 414 49 367 24 c 128,-1,40
 320 -1 320 -1 265 -8 c 0,41,42
 230 -12 230 -12 185 -12 c 0,43,44
 159 -12 159 -12 130 -11 c 0,45,46
 83 -9 83 -9 55 -5 c 1,9,-1
EndSplineSet
EndChar

StartChar: afii10107
Encoding: 1114 1114 349
Width: 1439
GlyphClass: 2
Flags: W
LayerCount: 2
UndoRedoHistory
Layer: 1
Undoes
EndUndoes
Redoes
EndRedoes
EndUndoRedoHistory
Fore
SplineSet
910 179 m 1,0,-1
 920 179 l 1,1,2
 1026 183 1026 183 1068 218.5 c 128,-1,3
 1110 254 1110 254 1110 347 c 0,4,5
 1110 443 1110 443 1068.5 480 c 128,-1,6
 1027 517 1027 517 920 521 c 0,7,8
 917 522 917 522 910 522 c 1,9,-1
 910 179 l 1,0,-1
106 0 m 1,10,-1
 106 1184 l 1,11,-1
 415 1184 l 1,12,-1
 415 709 l 1,13,-1
 601 709 l 1,14,-1
 601 1185 l 1,15,-1
 910 1185 l 1,16,-1
 910 704 l 1,17,-1
 931 704 l 1,18,19
 1051 702 1051 702 1132.5 685 c 128,-1,20
 1214 668 1214 668 1274.5 628 c 128,-1,21
 1335 588 1335 588 1362.5 519.5 c 128,-1,22
 1390 451 1390 451 1390 348 c 0,23,24
 1390 161 1390 161 1279.5 82 c 128,-1,25
 1169 3 1169 3 910 1 c 1,26,-1
 601 1 l 1,27,-1
 601 465 l 1,28,-1
 415 465 l 1,29,-1
 415 0 l 1,30,-1
 106 0 l 1,10,-1
EndSplineSet
EndChar

StartChar: afii10108
Encoding: 1115 1115 350
Width: 1034
GlyphClass: 2
Flags: W
LayerCount: 2
UndoRedoHistory
Layer: 1
Undoes
EndUndoes
Redoes
EndRedoes
EndUndoRedoHistory
Fore
SplineSet
119 0 m 1,0,-1
 119 1226 l 1,1,-1
 -18 1226 l 1,2,-1
 -18 1386 l 1,3,-1
 119 1386 l 1,4,-1
 119 1658 l 1,5,-1
 428 1658 l 1,6,-1
 428 1386 l 1,7,-1
 698 1386 l 1,8,-1
 698 1226 l 1,9,-1
 428 1226 l 1,10,-1
 428 928 l 1,11,12
 431 929 431 929 473 945.5 c 128,-1,13
 515 962 515 962 538 970 c 128,-1,14
 561 978 561 978 602.5 986.5 c 128,-1,15
 644 995 644 995 680 995 c 0,16,17
 935 995 935 995 935 676 c 2,18,-1
 935 0 l 1,19,-1
 626 0 l 1,20,-1
 626 668 l 2,21,22
 626 728 626 728 609 758 c 128,-1,23
 592 788 592 788 546 788 c 0,24,25
 509 788 509 788 428 754 c 1,26,-1
 428 0 l 1,27,-1
 119 0 l 1,0,-1
EndSplineSet
EndChar

StartChar: afii10145
Encoding: 1039 1039 353
Width: 1202
GlyphClass: 2
Flags: W
LayerCount: 2
UndoRedoHistory
Layer: 1
Undoes
EndUndoes
Redoes
EndRedoes
EndUndoRedoHistory
Fore
SplineSet
483 -345 m 1,0,-1
 468 0 l 1,1,-1
 123 0 l 1,2,-1
 123 1658 l 1,3,-1
 460 1658 l 1,4,-1
 460 253 l 1,5,-1
 742 253 l 1,6,-1
 742 1658 l 1,7,-1
 1080 1658 l 1,8,-1
 1080 0 l 1,9,-1
 742 0 l 1,10,-1
 727 -345 l 1,11,-1
 483 -345 l 1,0,-1
EndSplineSet
EndChar

StartChar: afii10193
Encoding: 1119 1119 354
Width: 1026
GlyphClass: 2
Flags: W
LayerCount: 2
UndoRedoHistory
Layer: 1
Undoes
EndUndoes
Redoes
EndRedoes
EndUndoRedoHistory
Fore
SplineSet
414 -318 m 1,0,-1
 392 0 l 1,1,-1
 106 0 l 1,2,-1
 106 1184 l 1,3,-1
 415 1184 l 1,4,-1
 415 196 l 1,5,-1
 611 196 l 1,6,-1
 611 1184 l 1,7,-1
 920 1184 l 1,8,-1
 920 0 l 1,9,-1
 647 0 l 1,10,-1
 630 -318 l 1,11,-1
 414 -318 l 1,0,-1
EndSplineSet
EndChar

StartChar: afii61289
Encoding: 8467 8467 355
Width: 1194
GlyphClass: 2
Flags: W
LayerCount: 2
UndoRedoHistory
Layer: 1
Undoes
EndUndoes
Redoes
EndRedoes
EndUndoRedoHistory
Fore
SplineSet
705 1084 m 1,0,1
 958 1424 958 1424 958 1555 c 0,2,3
 958 1593 958 1593 937 1614 c 0,4,5
 914 1636 914 1636 872 1636 c 0,6,7
 841 1636 841 1636 800 1624 c 1,8,-1
 791 1621 l 1,9,-1
 705 1084 l 1,0,1
426 495 m 1,10,-1
 263 297 l 1,11,-1
 168 402 l 1,12,-1
 469 783 l 1,13,-1
 594 1621 l 2,14,15
 617 1778 617 1778 738 1865 c 0,16,17
 823 1926 823 1926 917 1926 c 0,18,19
 934 1926 934 1926 952 1924 c 0,20,21
 1065 1912 1065 1912 1120 1818 c 0,22,23
 1157 1755 1157 1755 1157 1670 c 0,24,25
 1157 1566 1157 1566 1101 1428 c 0,26,27
 1014 1213 1014 1213 797 947 c 2,28,-1
 656 775 l 1,29,-1
 587 346 l 2,30,31
 580 304 580 304 580 270 c 0,32,33
 580 226 580 226 591 196 c 0,34,35
 610 142 610 142 652 136 c 0,36,37
 659 135 659 135 666 134 c 0,38,39
 702 134 702 134 750 161 c 0,40,41
 808 193 808 193 867 261 c 1,42,-1
 955 148 l 1,43,44
 898 83 898 83 829.5 41 c 0,45,46
 760 0 760 0 694 -16 c 0,47,48
 660 -24 660 -24 628 -25 c 0,49,50
 597 -26 597 -26 568 -18 c 0,51,52
 508 -4 508 -4 465.5 38.5 c 0,53,54
 424 82 424 82 406 162 c 0,55,56
 397 204 397 204 396 253 c 0,57,58
 396 298 396 298 404 350 c 2,59,-1
 426 495 l 1,10,-1
EndSplineSet
EndChar

StartChar: approxequal
Encoding: 8776 8776 359
Width: 975
GlyphClass: 2
Flags: W
LayerCount: 2
UndoRedoHistory
Layer: 1
Undoes
EndUndoes
Redoes
EndRedoes
EndUndoRedoHistory
Fore
SplineSet
658 862 m 0,0,1
 620 862 620 862 569 881 c 128,-1,2
 518 900 518 900 477.5 922.5 c 128,-1,3
 437 945 437 945 393 964 c 128,-1,4
 349 983 349 983 322 983 c 0,5,6
 296 983 296 983 254.5 957 c 128,-1,7
 213 931 213 931 179 890 c 1,8,-1
 79 1023 l 1,9,10
 124 1091 124 1091 194.5 1148 c 128,-1,11
 265 1205 265 1205 324 1205 c 0,12,13
 372 1205 372 1205 438.5 1175.5 c 128,-1,14
 505 1146 505 1146 564.5 1116.5 c 128,-1,15
 624 1087 624 1087 656 1087 c 0,16,17
 707 1087 707 1087 798 1180 c 1,18,-1
 906 1063 l 1,19,20
 867 988 867 988 795 925 c 128,-1,21
 723 862 723 862 658 862 c 0,0,1
658 434 m 0,22,23
 610 434 610 434 543 464 c 128,-1,24
 476 494 476 494 415.5 524 c 128,-1,25
 355 554 355 554 322 554 c 0,26,27
 296 554 296 554 254 528 c 128,-1,28
 212 502 212 502 179 461 c 1,29,-1
 79 595 l 1,30,31
 125 663 125 663 195 720 c 128,-1,32
 265 777 265 777 324 777 c 0,33,34
 362 777 362 777 412.5 758.5 c 128,-1,35
 463 740 463 740 503 717.5 c 128,-1,36
 543 695 543 695 586.5 676.5 c 128,-1,37
 630 658 630 658 656 658 c 0,38,39
 706 658 706 658 798 752 c 1,40,-1
 906 635 l 1,41,42
 867 560 867 560 795 497 c 128,-1,43
 723 434 723 434 658 434 c 0,22,23
EndSplineSet
EndChar

StartChar: breve
Encoding: 728 728 360
Width: 677
GlyphClass: 2
Flags: W
LayerCount: 2
UndoRedoHistory
Layer: 1
Undoes
EndUndoes
Redoes
EndRedoes
EndUndoRedoHistory
Fore
SplineSet
328 1386 m 0,0,1
 194 1386 194 1386 128 1458 c 128,-1,2
 62 1530 62 1530 62 1658 c 1,3,-1
 206 1658 l 1,4,5
 206 1585 206 1585 233.5 1553 c 128,-1,6
 261 1521 261 1521 328 1521 c 0,7,8
 396 1521 396 1521 423.5 1553 c 128,-1,9
 451 1585 451 1585 451 1658 c 1,10,-1
 595 1658 l 1,11,12
 595 1530 595 1530 529 1458 c 128,-1,13
 463 1386 463 1386 328 1386 c 0,0,1
EndSplineSet
EndChar

StartChar: bullet
Encoding: 8226 8226 361
Width: 928
GlyphClass: 2
Flags: W
LayerCount: 2
UndoRedoHistory
Layer: 1
Undoes
EndUndoes
Redoes
EndRedoes
EndUndoRedoHistory
Fore
SplineSet
462 425 m 0,0,1
 321 425 321 425 224 517 c 128,-1,2
 127 609 127 609 127 771 c 0,3,4
 127 935 127 935 224 1028 c 128,-1,5
 321 1121 321 1121 462 1121 c 128,-1,6
 603 1121 603 1121 701 1027.5 c 128,-1,7
 799 934 799 934 799 771 c 0,8,9
 799 609 799 609 701.5 517 c 128,-1,10
 604 425 604 425 462 425 c 0,0,1
EndSplineSet
EndChar

StartChar: caron
Encoding: 711 711 363
Width: 795
GlyphClass: 2
Flags: W
LayerCount: 2
UndoRedoHistory
Layer: 1
Undoes
EndUndoes
Redoes
EndRedoes
EndUndoRedoHistory
Fore
SplineSet
245 1284 m 1,0,-1
 68 1658 l 1,1,-1
 289 1658 l 1,2,-1
 396 1432 l 1,3,-1
 504 1658 l 1,4,-1
 726 1658 l 1,5,-1
 545 1284 l 1,6,-1
 245 1284 l 1,0,-1
EndSplineSet
EndChar

StartChar: circumflex
Encoding: 710 710 367
Width: 799
GlyphClass: 2
Flags: W
LayerCount: 2
UndoRedoHistory
Layer: 1
Undoes
EndUndoes
Redoes
EndRedoes
EndUndoRedoHistory
Fore
SplineSet
83 1262 m 1,0,-1
 272 1658 l 1,1,-1
 537 1658 l 1,2,-1
 730 1262 l 1,3,-1
 502 1262 l 1,4,-1
 406 1517 l 1,5,-1
 310 1262 l 1,6,-1
 83 1262 l 1,0,-1
EndSplineSet
EndChar

StartChar: dagger
Encoding: 8224 8224 368
Width: 827
GlyphClass: 2
Flags: W
LayerCount: 2
UndoRedoHistory
Layer: 1
Undoes
EndUndoes
Redoes
EndRedoes
EndUndoRedoHistory
Fore
SplineSet
286 0 m 1,0,-1
 286 1033 l 1,1,-1
 73 1033 l 1,2,-1
 73 1230 l 1,3,-1
 286 1230 l 1,4,-1
 286 1655 l 1,5,-1
 546 1655 l 1,6,-1
 546 1230 l 1,7,-1
 755 1230 l 1,8,-1
 755 1033 l 1,9,-1
 546 1033 l 1,10,-1
 546 0 l 1,11,-1
 286 0 l 1,0,-1
EndSplineSet
EndChar

StartChar: daggerdbl
Encoding: 8225 8225 369
Width: 827
GlyphClass: 2
Flags: W
LayerCount: 2
UndoRedoHistory
Layer: 1
Undoes
EndUndoes
Redoes
EndRedoes
EndUndoRedoHistory
Fore
SplineSet
287 0 m 1,0,-1
 287 498 l 1,1,-1
 64 498 l 1,2,-1
 64 674 l 1,3,-1
 287 674 l 1,4,-1
 287 1000 l 1,5,-1
 64 1000 l 1,6,-1
 64 1185 l 1,7,-1
 287 1185 l 1,8,-1
 287 1655 l 1,9,-1
 544 1655 l 1,10,-1
 544 1185 l 1,11,-1
 764 1185 l 1,12,-1
 764 1000 l 1,13,-1
 544 1000 l 1,14,-1
 544 674 l 1,15,-1
 764 674 l 1,16,-1
 764 498 l 1,17,-1
 544 498 l 1,18,-1
 544 0 l 1,19,-1
 287 0 l 1,0,-1
EndSplineSet
EndChar

StartChar: dcroat
Encoding: 273 273 371
Width: 1003
GlyphClass: 2
Flags: W
LayerCount: 2
UndoRedoHistory
Layer: 1
Undoes
EndUndoes
Redoes
EndRedoes
EndUndoRedoHistory
Fore
SplineSet
487 188 m 0,0,1
 526 188 526 188 581 218 c 1,2,-1
 581 969 l 1,3,4
 531 999 531 999 488 999 c 0,5,6
 438 999 438 999 415.5 956.5 c 128,-1,7
 393 914 393 914 393 847 c 2,8,-1
 393 355 l 2,9,10
 393 188 393 188 487 188 c 0,0,1
364 -20 m 1,11,12
 83 -20 83 -20 83 376 c 2,13,-1
 83 795 l 2,14,15
 83 979 83 979 151.5 1091 c 128,-1,16
 220 1203 220 1203 362 1203 c 0,17,18
 477 1203 477 1203 581 1111 c 1,19,-1
 581 1391 l 1,20,-1
 316 1391 l 1,21,-1
 316 1525 l 1,22,-1
 581 1525 l 1,23,-1
 581 1658 l 1,24,-1
 890 1658 l 1,25,-1
 890 1525 l 1,26,-1
 996 1525 l 1,27,-1
 996 1391 l 1,28,-1
 890 1391 l 1,29,-1
 890 0 l 1,30,-1
 581 0 l 1,31,-1
 581 86 l 1,32,33
 476 -19 476 -19 364 -20 c 1,11,12
EndSplineSet
EndChar

StartChar: dotlessi
Encoding: 305 305 373
Width: 548
GlyphClass: 2
Flags: W
LayerCount: 2
UndoRedoHistory
Layer: 1
Undoes
EndUndoes
Redoes
EndRedoes
EndUndoRedoHistory
Fore
SplineSet
122 0 m 1,0,-1
 122 1184 l 1,1,-1
 431 1184 l 1,2,-1
 431 0 l 1,3,-1
 122 0 l 1,0,-1
EndSplineSet
EndChar

StartChar: ellipsis
Encoding: 8230 8230 377
Width: 1303
GlyphClass: 2
Flags: W
LayerCount: 2
UndoRedoHistory
Layer: 1
Undoes
EndUndoes
Redoes
EndRedoes
EndUndoRedoHistory
Fore
SplineSet
944 1 m 1,0,-1
 944 298 l 1,1,-1
 1240 298 l 1,2,-1
 1240 1 l 1,3,-1
 944 1 l 1,0,-1
500 0 m 1,4,-1
 500 298 l 1,5,-1
 797 298 l 1,6,-1
 797 0 l 1,7,-1
 500 0 l 1,4,-1
62 0 m 1,8,-1
 62 298 l 1,9,-1
 359 298 l 1,10,-1
 359 0 l 1,11,-1
 62 0 l 1,8,-1
EndSplineSet
EndChar

StartChar: emdash
Encoding: 8212 8212 379
Width: 2047
GlyphClass: 2
Flags: W
LayerCount: 2
UndoRedoHistory
Layer: 1
Undoes
EndUndoes
Redoes
EndRedoes
EndUndoRedoHistory
Fore
SplineSet
1 644 m 1,0,-1
 1 856 l 1,1,-1
 2046 856 l 1,2,-1
 2046 644 l 1,3,-1
 1 644 l 1,0,-1
EndSplineSet
EndChar

StartChar: endash
Encoding: 8211 8211 380
Width: 1024
GlyphClass: 2
Flags: W
LayerCount: 2
UndoRedoHistory
Layer: 1
Undoes
EndUndoes
Redoes
EndRedoes
EndUndoRedoHistory
Fore
SplineSet
1 575 m 1,0,-1
 1 792 l 1,1,-1
 1023 792 l 1,2,-1
 1023 575 l 1,3,-1
 1 575 l 1,0,-1
EndSplineSet
EndChar

StartChar: eng
Encoding: 331 331 381
Width: 926
GlyphClass: 2
Flags: W
LayerCount: 2
UndoRedoHistory
Layer: 1
Undoes
EndUndoes
Redoes
EndRedoes
EndUndoRedoHistory
Fore
SplineSet
350 -397 m 1,0,-1
 350 -194 l 1,1,2
 447 -194 447 -194 496.5 -176 c 128,-1,3
 546 -158 546 -158 563.5 -120.5 c 128,-1,4
 581 -83 581 -83 581 -10 c 2,5,-1
 581 882 l 2,6,7
 581 931 581 931 566 955 c 0,8,9
 552 978 552 978 512 978 c 0,10,11
 510 978 510 978 509 978 c 1,12,13
 462 978 462 978 396 931 c 1,14,-1
 396 0 l 1,15,-1
 86 0 l 1,16,-1
 86 1184 l 1,17,-1
 396 1184 l 1,18,-1
 396 1077 l 1,19,20
 527 1203 527 1203 684 1203 c 0,21,22
 787 1203 787 1203 838.5 1127.5 c 128,-1,23
 890 1052 890 1052 890 937 c 2,24,-1
 890 -12 l 2,25,26
 890 -215 890 -215 789 -306 c 128,-1,27
 688 -397 688 -397 459 -397 c 2,28,-1
 350 -397 l 1,0,-1
EndSplineSet
EndChar

StartChar: estimated
Encoding: 8494 8494 383
Width: 934
GlyphClass: 2
Flags: W
LayerCount: 2
UndoRedoHistory
Layer: 1
Undoes
EndUndoes
Redoes
EndRedoes
EndUndoRedoHistory
Fore
SplineSet
354 661 m 1,0,-1
 620 661 l 1,1,-1
 620 948 l 2,2,3
 620 1035 620 1035 592.5 1078 c 128,-1,4
 565 1121 565 1121 485 1121 c 128,-1,5
 405 1121 405 1121 379.5 1076 c 128,-1,6
 354 1031 354 1031 354 926 c 2,7,-1
 354 661 l 1,0,-1
493 -20 m 0,8,9
 287 -20 287 -20 184.5 69.5 c 128,-1,10
 82 159 82 159 82 354 c 2,11,-1
 82 823 l 2,12,13
 82 1021 82 1021 181 1112 c 128,-1,14
 280 1203 280 1203 483 1203 c 0,15,16
 688 1203 688 1203 774 1112 c 128,-1,17
 860 1021 860 1021 860 812 c 2,18,-1
 860 574 l 1,19,-1
 354 574 l 1,20,-1
 354 259 l 2,21,22
 354 216 354 216 356 190.5 c 128,-1,23
 358 165 358 165 366.5 137 c 128,-1,24
 375 109 375 109 391.5 94 c 128,-1,25
 408 79 408 79 438 69.5 c 128,-1,26
 468 60 468 60 511 60 c 0,27,28
 563 60 563 60 595 72.5 c 128,-1,29
 627 85 627 85 641 114 c 128,-1,30
 655 143 655 143 659 172.5 c 128,-1,31
 663 202 663 202 663 254 c 2,32,-1
 663 446 l 1,33,-1
 859 446 l 1,34,-1
 859 304 l 2,35,36
 859 127 859 127 772.5 53.5 c 128,-1,37
 686 -20 686 -20 493 -20 c 0,8,9
EndSplineSet
EndChar

StartChar: florin
Encoding: 402 402 384
Width: 900
GlyphClass: 2
Flags: W
LayerCount: 2
UndoRedoHistory
Layer: 1
Undoes
EndUndoes
Redoes
EndRedoes
EndUndoRedoHistory
Fore
SplineSet
187 -332 m 0,0,1
 126 -332 126 -332 32 -321 c 1,2,-1
 56 -91 l 1,3,4
 106 -101 106 -101 128 -101 c 0,5,6
 212 -101 212 -101 223 6 c 2,7,-1
 321 963 l 1,8,-1
 201 963 l 1,9,-1
 201 1184 l 1,10,-1
 344 1184 l 1,11,-1
 352 1264 l 2,12,13
 359 1334 359 1334 370 1383 c 128,-1,14
 381 1432 381 1432 405 1478.5 c 128,-1,15
 429 1525 429 1525 465.5 1552.5 c 128,-1,16
 502 1580 502 1580 560 1596.5 c 128,-1,17
 618 1613 618 1613 698 1613 c 0,18,19
 759 1613 759 1613 853 1602 c 1,20,-1
 830 1372 l 1,21,22
 760 1382 760 1382 758 1382 c 0,23,24
 673 1382 673 1382 662 1276 c 2,25,-1
 653 1184 l 1,26,-1
 790 1184 l 1,27,-1
 790 963 l 1,28,-1
 631 963 l 1,29,-1
 534 17 l 2,30,31
 527 -53 527 -53 515.5 -102 c 128,-1,32
 504 -151 504 -151 480.5 -197.5 c 128,-1,33
 457 -244 457 -244 420.5 -271.5 c 128,-1,34
 384 -299 384 -299 325.5 -315.5 c 128,-1,35
 267 -332 267 -332 187 -332 c 0,0,1
EndSplineSet
EndChar

StartChar: foundryicon
Encoding: 65539 -1 385
Width: 1484
GlyphClass: 2
Flags: W
LayerCount: 2
UndoRedoHistory
Layer: 1
Undoes
EndUndoes
Redoes
EndRedoes
EndUndoRedoHistory
Fore
SplineSet
319 252 m 1,0,-1
 472 746 l 1,1,-1
 53 1059 l 1,2,-1
 575 1064 l 1,3,-1
 737 1559 l 1,4,-1
 909 1064 l 1,5,-1
 1430 1064 l 1,6,-1
 1010 746 l 1,7,-1
 1165 252 l 1,8,-1
 737 550 l 1,9,-1
 319 252 l 1,0,-1
EndSplineSet
EndChar

StartChar: fraction
Encoding: 8260 8260 386
Width: 611
GlyphClass: 2
Flags: W
LayerCount: 2
UndoRedoHistory
Layer: 1
Undoes
EndUndoes
Redoes
EndRedoes
EndUndoRedoHistory
Fore
SplineSet
22 0 m 1,0,-1
 359 1658 l 1,1,-1
 589 1658 l 1,2,-1
 253 0 l 1,3,-1
 22 0 l 1,0,-1
EndSplineSet
EndChar

StartChar: gcommaaccent
Encoding: 291 291 389
Width: 901
GlyphClass: 2
Flags: W
LayerCount: 2
UndoRedoHistory
Layer: 1
Undoes
EndUndoes
Redoes
EndRedoes
EndUndoRedoHistory
Fore
SplineSet
499 547 m 0,0,1
 538 547 538 547 563 564.5 c 128,-1,2
 588 582 588 582 599.5 618 c 128,-1,3
 611 654 611 654 615 692.5 c 128,-1,4
 619 731 619 731 619 790 c 128,-1,5
 619 849 619 849 615 887.5 c 128,-1,6
 611 926 611 926 599 961 c 128,-1,7
 587 996 587 996 561.5 1012.5 c 128,-1,8
 536 1029 536 1029 497 1029 c 0,9,10
 466 1029 466 1029 443.5 1015 c 128,-1,11
 421 1001 421 1001 409 980 c 128,-1,12
 397 959 397 959 390.5 924.5 c 128,-1,13
 384 890 384 890 382.5 861 c 128,-1,14
 381 832 381 832 381 790 c 0,15,16
 381 745 381 745 383 713.5 c 128,-1,17
 385 682 385 682 392 648 c 128,-1,18
 399 614 399 614 411.5 593.5 c 128,-1,19
 424 573 424 573 446 560 c 128,-1,20
 468 547 468 547 499 547 c 0,0,1
519 -187 m 0,21,22
 711 -187 711 -187 718 -96 c 1,23,24
 719 -86 719 -86 719 -77 c 0,25,26
 719 -34 719 -34 691 -11 c 0,27,28
 657 17 657 17 561 34 c 1,29,-1
 404 59 l 1,30,31
 321 -24 321 -24 321 -83 c 0,32,33
 321 -187 321 -187 519 -187 c 0,21,22
402 1485 m 1,34,-1
 402 1727 l 2,35,36
 402 2025 402 2025 648 2049 c 1,37,-1
 663 1959 l 1,38,39
 527 1907 527 1907 527 1776 c 1,40,-1
 690 1776 l 1,41,-1
 690 1485 l 1,42,-1
 402 1485 l 1,34,-1
519 -366 m 0,43,44
 465 -366 465 -366 415.5 -362.5 c 128,-1,45
 366 -359 366 -359 308.5 -350 c 128,-1,46
 251 -341 251 -341 204.5 -324 c 128,-1,47
 158 -307 158 -307 119 -282 c 128,-1,48
 80 -257 80 -257 58 -218 c 128,-1,49
 36 -179 36 -179 36 -130 c 0,50,51
 36 -22 36 -22 220 106 c 1,52,53
 143 135 143 135 104.5 163 c 128,-1,54
 66 191 66 191 59 226 c 0,55,56
 56 241 56 241 56 256 c 0,57,58
 56 306 56 306 89 352 c 0,59,60
 132 412 132 412 209 478 c 1,61,62
 75 573 75 573 75 774 c 0,63,64
 75 979 75 979 185 1092.5 c 128,-1,65
 295 1206 295 1206 492 1206 c 0,66,67
 580 1206 580 1206 653.5 1175.5 c 128,-1,68
 727 1145 727 1145 769 1094 c 1,69,70
 845 1191 845 1191 930 1233 c 2,71,-1
 972 1254 l 1,72,-1
 1043 1112 l 1,73,74
 1010 1102 1010 1102 953 1070 c 128,-1,75
 896 1038 896 1038 848 1004 c 1,76,77
 909 918 909 918 909 777 c 0,78,79
 909 588 909 588 809.5 479.5 c 128,-1,80
 710 371 710 371 517 371 c 0,81,82
 406 371 406 371 318 410 c 1,83,84
 258 332 258 332 258 298 c 0,85,86
 258 295 258 295 258 292 c 0,87,88
 262 272 262 272 368 251 c 0,89,90
 376 249 376 249 633 207 c 0,91,92
 813 177 813 177 886 113 c 128,-1,93
 959 49 959 49 959 -68 c 0,94,95
 959 -204 959 -204 852 -285 c 128,-1,96
 745 -366 745 -366 519 -366 c 0,43,44
EndSplineSet
EndChar

